Bench12-Cond-Light.ufo
<glyph name="exclam" format="1">
  <advance width="286"/>
  <unicode hex="0021"/>
  <outline>
    <contour>
      <point x="109" y="0" type="curve" smooth="yes"/>
      <point x="181" y="0" type="line" smooth="yes"/>
      <point x="196" y="0"/>
      <point x="207" y="14"/>
      <point x="207" y="57" type="curve" smooth="yes"/>
      <point x="207" y="147" type="line" smooth="yes"/>
      <point x="207" y="190"/>
      <point x="196" y="204"/>
      <point x="181" y="204" type="curve" smooth="yes"/>
      <point x="109" y="204" type="line" smooth="yes"/>
      <point x="95" y="204"/>
      <point x="83" y="190"/>
      <point x="83" y="147" type="curve" smooth="yes"/>
      <point x="83" y="57" type="line" smooth="yes"/>
      <point x="83" y="14"/>
      <point x="95" y="0"/>
    </contour>
    <contour>
      <point x="143" y="352" type="curve" smooth="yes"/>
      <point x="144" y="352" type="line" smooth="yes"/>
      <point x="159" y="352"/>
      <point x="158" y="376"/>
      <point x="160" y="419" type="curve" smooth="yes"/>
      <point x="196" y="1372" type="line" smooth="yes"/>
      <point x="198" y="1415"/>
      <point x="182" y="1438"/>
      <point x="168" y="1438" type="curve" smooth="yes"/>
      <point x="117" y="1438" type="line" smooth="yes"/>
      <point x="101" y="1438"/>
      <point x="88" y="1414"/>
      <point x="90" y="1371" type="curve" smooth="yes"/>
      <point x="127" y="419" type="line" smooth="yes"/>
      <point x="129" y="376"/>
      <point x="128" y="352"/>
    </contour>
  </outline>
</glyph>
<glyph name="percent" format="1">
  <advance width="1003"/>
  <unicode hex="0025"/>
  <outline>
    <contour>
      <point x="365" y="-82" type="curve" smooth="yes"/>
      <point x="376" y="-82" type="line" smooth="yes"/>
      <point x="393" y="-82"/>
      <point x="407" y="-54"/>
      <point x="413" y="-12" type="curve" smooth="yes"/>
      <point x="635" y="1466" type="line"/>
      <point x="641" y="1499"/>
      <point x="632" y="1536"/>
      <point x="620" y="1536" type="curve" smooth="yes"/>
      <point x="609" y="1536" type="line" smooth="yes"/>
      <point x="594" y="1536"/>
      <point x="579" y="1508"/>
      <point x="572" y="1466" type="curve" smooth="yes"/>
      <point x="350" y="-12" type="line" smooth="yes"/>
      <point x="345" y="-45"/>
      <point x="353" y="-82"/>
    </contour>
    <contour>
      <point x="239" y="761" type="curve" smooth="yes"/>
      <point x="182" y="761"/>
      <point x="146" y="875"/>
      <point x="146" y="1059" type="curve" smooth="yes"/>
      <point x="146" y="1247"/>
      <point x="179" y="1357"/>
      <point x="239" y="1357" type="curve" smooth="yes"/>
      <point x="300" y="1357"/>
      <point x="330" y="1247"/>
      <point x="330" y="1059" type="curve" smooth="yes"/>
      <point x="330" y="875"/>
      <point x="298" y="761"/>
    </contour>
    <contour>
      <point x="239" y="621" type="curve" smooth="yes"/>
      <point x="339" y="621"/>
      <point x="391" y="818"/>
      <point x="391" y="1056" type="curve" smooth="yes"/>
      <point x="391" y="1292"/>
      <point x="341" y="1497"/>
      <point x="239" y="1497" type="curve" smooth="yes"/>
      <point x="135" y="1497"/>
      <point x="85" y="1292"/>
      <point x="85" y="1056" type="curve" smooth="yes"/>
      <point x="85" y="818"/>
      <point x="137" y="621"/>
    </contour>
    <contour>
      <point x="756.248" y="141" type="curve" smooth="yes"/>
      <point x="694.45" y="141"/>
      <point x="654" y="255"/>
      <point x="654" y="439" type="curve" smooth="yes"/>
      <point x="654" y="627"/>
      <point x="692.202" y="737"/>
      <point x="756.248" y="737" type="curve" smooth="yes"/>
      <point x="824.787" y="737"/>
      <point x="859.619" y="627"/>
      <point x="859.619" y="439" type="curve" smooth="yes"/>
      <point x="859.619" y="255"/>
      <point x="823.664" y="141"/>
    </contour>
    <contour>
      <point x="756.248" y="1" type="curve" smooth="yes"/>
      <point x="869.619" y="1"/>
      <point x="920.619" y="198"/>
      <point x="920.619" y="436" type="curve" smooth="yes"/>
      <point x="920.619" y="672"/>
      <point x="870.619" y="877"/>
      <point x="756.248" y="877" type="curve" smooth="yes"/>
      <point x="643" y="877"/>
      <point x="593" y="672"/>
      <point x="593" y="436" type="curve" smooth="yes"/>
      <point x="593" y="198"/>
      <point x="645" y="1"/>
    </contour>
  </outline>
</glyph>
<glyph name="ampersand" format="1">
  <advance width="1027.5951263"/>
  <unicode hex="0026"/>
  <outline>
    <contour>
      <point x="865" y="-13" type="curve" smooth="yes"/>
      <point x="917" y="-13"/>
      <point x="958" y="11"/>
      <point x="976" y="24" type="curve" smooth="yes"/>
      <point x="992" y="36"/>
      <point x="995" y="46"/>
      <point x="991" y="58" type="curve" smooth="yes"/>
      <point x="987" y="71" type="line" smooth="yes"/>
      <point x="981" y="90"/>
      <point x="967" y="90"/>
      <point x="955" y="81" type="curve" smooth="yes"/>
      <point x="930" y="62"/>
      <point x="909" y="51"/>
      <point x="876" y="51" type="curve" smooth="yes"/>
      <point x="822" y="51"/>
      <point x="763" y="100"/>
      <point x="763" y="313" type="curve" smooth="yes"/>
      <point x="763" y="700" type="line" smooth="yes"/>
      <point x="763" y="720"/>
      <point x="769" y="729"/>
      <point x="777" y="729" type="curve" smooth="yes"/>
      <point x="926" y="729" type="line" smooth="yes"/>
      <point x="944" y="729"/>
      <point x="957" y="731"/>
      <point x="957" y="764" type="curve" smooth="yes"/>
      <point x="957.0" y="774.0" type="line" smooth="yes"/>
      <point x="957.0" y="805.0"/>
      <point x="944" y="804"/>
      <point x="926" y="804" type="curve" smooth="yes"/>
      <point x="777" y="804" type="line" smooth="yes"/>
      <point x="769" y="804"/>
      <point x="763" y="814"/>
      <point x="763" y="834" type="curve" smooth="yes"/>
      <point x="763.0" y="1354.0" type="line" smooth="yes"/>
      <point x="763.0" y="1397.0"/>
      <point x="753.0" y="1408.0"/>
      <point x="736.0" y="1408.0" type="curve" smooth="yes"/>
      <point x="727.0" y="1408.0" type="line" smooth="yes"/>
      <point x="709.0" y="1408.0"/>
      <point x="697.0" y="1397.0"/>
      <point x="696.0" y="1354.0" type="curve"/>
      <point x="685" y="834" type="line"/>
      <point x="685" y="814"/>
      <point x="678" y="804"/>
      <point x="670" y="804" type="curve" smooth="yes"/>
      <point x="414" y="804" type="line" smooth="yes"/>
      <point x="286" y="804"/>
      <point x="211" y="914"/>
      <point x="211" y="1095" type="curve" smooth="yes"/>
      <point x="211" y="1336"/>
      <point x="312" y="1395"/>
      <point x="412" y="1395" type="curve" smooth="yes"/>
      <point x="467" y="1395"/>
      <point x="504" y="1378"/>
      <point x="514" y="1375" type="curve" smooth="yes"/>
      <point x="518" y="1373"/>
      <point x="527" y="1369"/>
      <point x="530" y="1369" type="curve" smooth="yes"/>
      <point x="537" y="1369"/>
      <point x="541" y="1379"/>
      <point x="541.0" y="1390.0" type="curve" smooth="yes"/>
      <point x="541.0" y="1394.0" type="line" smooth="yes"/>
      <point x="541.0" y="1394.0"/>
      <point x="541.0" y="1407.0"/>
      <point x="541.0" y="1411.0" type="curve" smooth="yes"/>
      <point x="541.0" y="1424.0"/>
      <point x="529" y="1434"/>
      <point x="513" y="1440" type="curve" smooth="yes"/>
      <point x="497" y="1446"/>
      <point x="470" y="1459"/>
      <point x="387.0" y="1459.0" type="curve" smooth="yes"/>
      <point x="258" y="1459"/>
      <point x="133" y="1370"/>
      <point x="133" y="1099" type="curve" smooth="yes"/>
      <point x="133" y="871"/>
      <point x="241.0" y="782.0"/>
      <point x="322.0" y="761.0" type="curve"/>
      <point x="239.0" y="736.0"/>
      <point x="135.0" y="608.0"/>
      <point x="135.0" y="424.0" type="curve" smooth="yes"/>
      <point x="135.0" y="86.0"/>
      <point x="284" y="-13"/>
      <point x="460" y="-13" type="curve" smooth="yes"/>
      <point x="637" y="-13"/>
      <point x="706" y="88"/>
      <point x="722" y="131" type="curve"/>
      <point x="731" y="36"/>
      <point x="786" y="-13"/>
    </contour>
    <contour>
      <point x="460" y="51" type="curve" smooth="yes"/>
      <point x="379" y="51"/>
      <point x="213.0" y="102.0"/>
      <point x="213.0" y="407.0" type="curve" smooth="yes"/>
      <point x="213.0" y="656.0"/>
      <point x="332" y="728"/>
      <point x="424" y="729" type="curve" smooth="yes"/>
      <point x="498" y="729"/>
      <point x="597" y="730"/>
      <point x="670" y="729" type="curve" smooth="yes"/>
      <point x="678" y="729"/>
      <point x="685" y="721"/>
      <point x="685" y="701" type="curve" smooth="yes"/>
      <point x="685.0" y="445.0" type="line" smooth="yes"/>
      <point x="685.0" y="404.0"/>
      <point x="687" y="273"/>
      <point x="689" y="237" type="curve"/>
      <point x="689" y="218"/>
      <point x="674" y="51"/>
    </contour>
  </outline>
</glyph>
<glyph name="parenleft" format="1">
  <advance width="377"/>
  <unicode hex="0028"/>
  <outline>
    <contour>
      <point x="266" y="-143" type="curve" smooth="yes"/>
      <point x="279" y="-151"/>
      <point x="292" y="-111"/>
      <point x="292" y="-73" type="curve" smooth="yes"/>
      <point x="292" y="-55" type="line" smooth="yes"/>
      <point x="292" y="14"/>
      <point x="279" y="15"/>
      <point x="257" y="46" type="curve" smooth="yes"/>
      <point x="213" y="112"/>
      <point x="168" y="236"/>
      <point x="168" y="699" type="curve" smooth="yes"/>
      <point x="168" y="1162"/>
      <point x="212" y="1284"/>
      <point x="256" y="1350" type="curve" smooth="yes"/>
      <point x="277" y="1381"/>
      <point x="292" y="1381"/>
      <point x="292" y="1450" type="curve" smooth="yes"/>
      <point x="292" y="1470" type="line" smooth="yes"/>
      <point x="292" y="1508"/>
      <point x="279" y="1548"/>
      <point x="266" y="1540" type="curve" smooth="yes"/>
      <point x="131" y="1460"/>
      <point x="92" y="1100"/>
      <point x="92" y="699" type="curve" smooth="yes"/>
      <point x="92" y="299"/>
      <point x="131" y="-62"/>
    </contour>
  </outline>
</glyph>
<glyph name="asterisk" format="1">
  <advance width="538"/>
  <unicode hex="002A"/>
  <outline>
    <contour>
      <point x="174" y="295" type="curve" smooth="yes"/>
      <point x="186" y="295"/>
      <point x="196" y="316"/>
      <point x="201" y="346" type="curve" smooth="yes"/>
      <point x="267.292" y="695" type="line"/>
      <point x="334.708" y="346" type="line"/>
      <point x="338.708" y="316"/>
      <point x="350.708" y="295"/>
      <point x="362.708" y="295" type="curve" smooth="yes"/>
      <point x="379.708" y="295"/>
      <point x="395.708" y="339"/>
      <point x="395.708" y="389" type="curve" smooth="yes"/>
      <point x="395.708" y="467"/>
      <point x="313.36" y="685"/>
      <point x="294.259" y="741" type="curve"/>
      <point x="428.708" y="824" type="line" smooth="yes"/>
      <point x="442.708" y="833"/>
      <point x="453.708" y="869"/>
      <point x="453.708" y="911" type="curve" smooth="yes"/>
      <point x="453.708" y="961"/>
      <point x="439.708" y="1009"/>
      <point x="422.708" y="1009" type="curve" smooth="yes"/>
      <point x="401.708" y="1009"/>
      <point x="307.742" y="853"/>
      <point x="283.023" y="820" type="curve"/>
      <point x="288.641" y="946"/>
      <point x="303.248" y="1095"/>
      <point x="303.248" y="1221" type="curve" smooth="yes"/>
      <point x="303.248" y="1271"/>
      <point x="286.394" y="1309"/>
      <point x="268.416" y="1309" type="curve" smooth="yes"/>
      <point x="250.438" y="1309"/>
      <point x="232.461" y="1276"/>
      <point x="232.461" y="1226" type="curve" smooth="yes"/>
      <point x="232.461" y="1098"/>
      <point x="244.82" y="948"/>
      <point x="252.686" y="820" type="curve"/>
      <point x="227.966" y="853"/>
      <point x="134" y="1009"/>
      <point x="114" y="1009" type="curve" smooth="yes"/>
      <point x="96" y="1009"/>
      <point x="82" y="961"/>
      <point x="82" y="911" type="curve" smooth="yes"/>
      <point x="82" y="869"/>
      <point x="93" y="833"/>
      <point x="107" y="824" type="curve" smooth="yes"/>
      <point x="241.45" y="741" type="line"/>
      <point x="222.348" y="685"/>
      <point x="141" y="467"/>
      <point x="141" y="389" type="curve" smooth="yes"/>
      <point x="141" y="339"/>
      <point x="158" y="295"/>
    </contour>
  </outline>
</glyph>
<glyph name="comma" format="1">
  <advance width="289"/>
  <unicode hex="002C"/>
  <outline>
    <contour>
      <point x="90" y="-268" type="curve" smooth="yes"/>
      <point x="138" y="-245"/>
      <point x="183" y="-142"/>
      <point x="183" y="95" type="curve" smooth="yes"/>
      <point x="183" y="144" type="line" smooth="yes"/>
      <point x="183" y="187"/>
      <point x="171" y="221"/>
      <point x="156" y="221" type="curve" smooth="yes"/>
      <point x="106" y="221" type="line" smooth="yes"/>
      <point x="91" y="221"/>
      <point x="68" y="200"/>
      <point x="68" y="157" type="curve" smooth="yes"/>
      <point x="68" y="50" type="line" smooth="yes"/>
      <point x="68" y="12"/>
      <point x="76" y="0"/>
      <point x="89" y="0" type="curve" smooth="yes"/>
      <point x="117" y="0" type="line" smooth="yes"/>
      <point x="123" y="0"/>
      <point x="123" y="-11"/>
      <point x="123" y="-27" type="curve" smooth="yes"/>
      <point x="123" y="-51"/>
      <point x="112" y="-128"/>
      <point x="89" y="-171" type="curve" smooth="yes"/>
      <point x="74" y="-198"/>
      <point x="68" y="-197"/>
      <point x="68" y="-223" type="curve" smooth="yes"/>
      <point x="68" y="-233" type="line" smooth="yes"/>
      <point x="68" y="-269"/>
      <point x="78" y="-274"/>
    </contour>
  </outline>
</glyph>
<glyph name="period" format="1">
  <advance width="270"/>
  <unicode hex="002E"/>
  <outline>
    <contour>
      <point x="102" y="0" type="curve" smooth="yes"/>
      <point x="174" y="0" type="line" smooth="yes"/>
      <point x="189" y="0"/>
      <point x="200" y="14"/>
      <point x="200" y="57" type="curve" smooth="yes"/>
      <point x="200" y="147" type="line" smooth="yes"/>
      <point x="200" y="190"/>
      <point x="189" y="204"/>
      <point x="174" y="204" type="curve" smooth="yes"/>
      <point x="102" y="204" type="line" smooth="yes"/>
      <point x="88" y="204"/>
      <point x="76" y="190"/>
      <point x="76" y="147" type="curve" smooth="yes"/>
      <point x="76" y="57" type="line" smooth="yes"/>
      <point x="76" y="14"/>
      <point x="88" y="0"/>
    </contour>
  </outline>
</glyph>
<glyph name="zero" format="1">
  <advance width="739"/>
  <unicode hex="0030"/>
  <outline>
    <contour>
      <point x="369" y="43" type="curve" smooth="yes"/>
      <point x="237" y="43"/>
      <point x="166" y="218"/>
      <point x="166" y="732" type="curve" smooth="yes"/>
      <point x="166" y="1222"/>
      <point x="233" y="1392"/>
      <point x="369" y="1392" type="curve" smooth="yes"/>
      <point x="506" y="1392"/>
      <point x="569" y="1224"/>
      <point x="569" y="732" type="curve" smooth="yes"/>
      <point x="569" y="213"/>
      <point x="502" y="43"/>
    </contour>
    <contour>
      <point x="368" y="-21" type="curve" smooth="yes"/>
      <point x="526" y="-21"/>
      <point x="648" y="153"/>
      <point x="648" y="732" type="curve" smooth="yes"/>
      <point x="648" y="1301"/>
      <point x="526" y="1455"/>
      <point x="368" y="1455" type="curve" smooth="yes"/>
      <point x="212" y="1455"/>
      <point x="89" y="1295"/>
      <point x="89" y="732" type="curve" smooth="yes"/>
      <point x="89" y="153"/>
      <point x="212" y="-21"/>
    </contour>
  </outline>
</glyph>
<glyph name="one" format="1">
  <advance width="410"/>
  <unicode hex="0031"/>
  <outline>
    <contour>
      <point x="221" y="0" type="curve" smooth="yes"/>
      <point x="255" y="0" type="line" smooth="yes"/>
      <point x="268" y="0"/>
      <point x="277" y="24"/>
      <point x="277" y="67" type="curve" smooth="yes"/>
      <point x="277" y="1404" type="line" smooth="yes"/>
      <point x="277" y="1447"/>
      <point x="265" y="1440"/>
      <point x="239" y="1433" type="curve" smooth="yes"/>
      <point x="91" y="1390" type="line" smooth="yes"/>
      <point x="78" y="1386"/>
      <point x="70" y="1383"/>
      <point x="70" y="1371" type="curve" smooth="yes"/>
      <point x="70" y="1336" type="line" smooth="yes"/>
      <point x="70" y="1309"/>
      <point x="78" y="1309"/>
      <point x="92" y="1313" type="curve" smooth="yes"/>
      <point x="185" y="1339" type="line" smooth="yes"/>
      <point x="193" y="1341"/>
      <point x="199" y="1340"/>
      <point x="199" y="1320" type="curve" smooth="yes"/>
      <point x="199" y="67" type="line" smooth="yes"/>
      <point x="199" y="24"/>
      <point x="206" y="0"/>
    </contour>
  </outline>
</glyph>
<glyph name="two" format="1">
  <advance width="773"/>
  <unicode hex="0032"/>
  <outline>
    <contour>
      <point x="619" y="0" type="line" smooth="yes"/>
      <point x="633" y="0"/>
      <point x="641" y="0"/>
      <point x="641" y="27" type="curve" smooth="yes"/>
      <point x="641" y="33" type="line" smooth="yes"/>
      <point x="641" y="60"/>
      <point x="633" y="60"/>
      <point x="619" y="60" type="curve" smooth="yes"/>
      <point x="194" y="60" type="line"/>
      <point x="194" y="105" type="line"/>
      <point x="194" y="631"/>
      <point x="689" y="577"/>
      <point x="689" y="1063" type="curve" smooth="yes"/>
      <point x="689" y="1364"/>
      <point x="572" y="1451"/>
      <point x="406" y="1451" type="curve" smooth="yes"/>
      <point x="275" y="1451"/>
      <point x="143" y="1381"/>
      <point x="118" y="1077" type="curve" smooth="yes"/>
      <point x="116" y="1057"/>
      <point x="115" y="1041"/>
      <point x="126" y="1039" type="curve" smooth="yes"/>
      <point x="161" y="1032" type="line" smooth="yes"/>
      <point x="177" y="1029"/>
      <point x="186" y="1035"/>
      <point x="188" y="1060" type="curve" smooth="yes"/>
      <point x="210" y="1311"/>
      <point x="291" y="1388"/>
      <point x="403" y="1388" type="curve" smooth="yes"/>
      <point x="543" y="1388"/>
      <point x="609" y="1304"/>
      <point x="609" y="1060" type="curve" smooth="yes"/>
      <point x="609" y="603"/>
      <point x="116" y="674"/>
      <point x="116" y="94" type="curve" smooth="yes"/>
      <point x="116" y="32" type="line" smooth="yes"/>
      <point x="116" y="0"/>
      <point x="124" y="0"/>
      <point x="138" y="0" type="curve" smooth="yes"/>
    </contour>
  </outline>
</glyph>
<glyph name="three" format="1">
  <advance width="798.261225207"/>
  <unicode hex="0033"/>
  <outline>
    <contour>
      <point x="392.261225207" y="-12" type="curve" smooth="yes"/>
      <point x="560.261225207" y="-18"/>
      <point x="717.261225207" y="55"/>
      <point x="717.261225207" y="375" type="curve" smooth="yes"/>
      <point x="717.261225207" y="575"/>
      <point x="662.261225207" y="713"/>
      <point x="509.261225207" y="737" type="curve"/>
      <point x="638.261225207" y="775"/>
      <point x="703.261225207" y="863"/>
      <point x="703.261225207" y="1063" type="curve" smooth="yes"/>
      <point x="703.261225207" y="1364"/>
      <point x="573.261225207" y="1451"/>
      <point x="407.261225207" y="1451" type="curve" smooth="yes"/>
      <point x="276.261225207" y="1451"/>
      <point x="138.261225207" y="1381"/>
      <point x="113.261225207" y="1077" type="curve" smooth="yes"/>
      <point x="111.261225207" y="1057"/>
      <point x="110.261225207" y="1041"/>
      <point x="121.261225207" y="1039" type="curve" smooth="yes"/>
      <point x="156.261225207" y="1032" type="line" smooth="yes"/>
      <point x="172.261225207" y="1029"/>
      <point x="181.261225207" y="1035"/>
      <point x="183.261225207" y="1060" type="curve" smooth="yes"/>
      <point x="205.261225207" y="1311"/>
      <point x="303.261225207" y="1388"/>
      <point x="407.261225207" y="1388" type="curve" smooth="yes"/>
      <point x="547.261225207" y="1388"/>
      <point x="623.261225207" y="1304"/>
      <point x="623.261225207" y="1060" type="curve" smooth="yes"/>
      <point x="623.261225207" y="843"/>
      <point x="553.261225207" y="775"/>
      <point x="376.261225207" y="775" type="curve" smooth="yes"/>
      <point x="360.261225207" y="775"/>
      <point x="359.261225207" y="759"/>
      <point x="359.261225207" y="749" type="curve" smooth="yes"/>
      <point x="359.261225207" y="722" type="line"/>
      <point x="359.261225207" y="708"/>
      <point x="362.261225207" y="699"/>
      <point x="376.261225207" y="699" type="curve" smooth="yes"/>
      <point x="547.261225207" y="699"/>
      <point x="639.261225207" y="657"/>
      <point x="640.261225207" y="390" type="curve" smooth="yes"/>
      <point x="640.261225207" y="134"/>
      <point x="565.261225207" y="44"/>
      <point x="392.261225207" y="51" type="curve" smooth="yes"/>
      <point x="257.261225207" y="56"/>
      <point x="219.261225207" y="172"/>
      <point x="193.261225207" y="346" type="curve" smooth="yes"/>
      <point x="191.261225207" y="358"/>
      <point x="184.261225207" y="386"/>
      <point x="168.261225207" y="382" type="curve" smooth="yes"/>
      <point x="126.261225207" y="371" type="line" smooth="yes"/>
      <point x="115.261225207" y="368"/>
      <point x="115.261225207" y="355"/>
      <point x="120.261225207" y="333" type="curve"/>
      <point x="154.261225207" y="48"/>
      <point x="261.261225207" y="-7"/>
    </contour>
  </outline>
</glyph>
<glyph name="four" format="1">
  <advance width="847.759490621"/>
  <unicode hex="0034"/>
  <outline>
    <contour>
      <point x="579.759490621" y="0" type="curve" smooth="yes"/>
      <point x="589.759490621" y="0" type="line" smooth="yes"/>
      <point x="612.759490621" y="0"/>
      <point x="623.759490621" y="4"/>
      <point x="623.759490621" y="47" type="curve" smooth="yes"/>
      <point x="623.759490621" y="284" type="line"/>
      <point x="798.759490621" y="284" type="line" smooth="yes"/>
      <point x="841.759490621" y="284"/>
      <point x="853.759490621" y="284"/>
      <point x="853.759490621" y="319" type="curve" smooth="yes"/>
      <point x="853.759490621" y="324" type="line" smooth="yes"/>
      <point x="853.759490621" y="359"/>
      <point x="841.759490621" y="359"/>
      <point x="798.759490621" y="359" type="curve" smooth="yes"/>
      <point x="623.759490621" y="359" type="line"/>
      <point x="623.759490621" y="1389" type="line" smooth="yes"/>
      <point x="623.759490621" y="1432"/>
      <point x="612.759490621" y="1438"/>
      <point x="589.759490621" y="1438" type="curve" smooth="yes"/>
      <point x="579.759490621" y="1438" type="line" smooth="yes"/>
      <point x="556.759490621" y="1438"/>
      <point x="545.759490621" y="1432"/>
      <point x="545.759490621" y="1389" type="curve" smooth="yes"/>
      <point x="545.759490621" y="359" type="line"/>
      <point x="222.759490621" y="359" type="line" smooth="yes"/>
      <point x="201.759490621" y="359"/>
      <point x="200.759490621" y="362"/>
      <point x="202.759490621" y="380" type="curve" smooth="yes"/>
      <point x="325.759490621" y="1371" type="line" smooth="yes"/>
      <point x="327.759490621" y="1387"/>
      <point x="335.759490621" y="1438"/>
      <point x="302.759490621" y="1438" type="curve" smooth="yes"/>
      <point x="283.759490621" y="1438" type="line" smooth="yes"/>
      <point x="257.759490621" y="1438"/>
      <point x="252.759490621" y="1414"/>
      <point x="246.759490621" y="1371" type="curve" smooth="yes"/>
      <point x="114.759490621" y="351" type="line" smooth="yes"/>
      <point x="108.759490621" y="305"/>
      <point x="138.978240621" y="284.0"/>
      <point x="181.759490621" y="284" type="curve" smooth="yes"/>
      <point x="545.759490621" y="284" type="line"/>
      <point x="545.759490621" y="47" type="line" smooth="yes"/>
      <point x="545.759490621" y="4"/>
      <point x="556.759490621" y="0"/>
    </contour>
  </outline>
</glyph>
<glyph name="five" format="1">
  <advance width="898"/>
  <unicode hex="0035"/>
  <outline>
    <contour>
      <point x="429" y="-13" type="curve" smooth="yes"/>
      <point x="430" y="-13" type="line" smooth="yes"/>
      <point x="662" y="-13"/>
      <point x="819" y="82"/>
      <point x="819" y="466" type="curve" smooth="yes"/>
      <point x="819" y="742"/>
      <point x="753" y="928"/>
      <point x="502" y="928" type="curve" smooth="yes"/>
      <point x="334" y="928"/>
      <point x="246" y="820"/>
      <point x="216" y="782" type="curve"/>
      <point x="216" y="1322" type="line" smooth="yes"/>
      <point x="216" y="1351"/>
      <point x="221" y="1357"/>
      <point x="237" y="1357" type="curve" smooth="yes"/>
      <point x="752" y="1357" type="line" smooth="yes"/>
      <point x="762" y="1357"/>
      <point x="765" y="1370"/>
      <point x="766" y="1400" type="curve"/>
      <point x="766" y="1400"/>
      <point x="766" y="1411"/>
      <point x="766" y="1415" type="curve"/>
      <point x="766" y="1437"/>
      <point x="750" y="1438"/>
      <point x="735" y="1438" type="curve" smooth="yes"/>
      <point x="158" y="1438" type="line" smooth="yes"/>
      <point x="132" y="1438"/>
      <point x="130" y="1426"/>
      <point x="131" y="1392" type="curve" smooth="yes"/>
      <point x="148" y="774" type="line" smooth="yes"/>
      <point x="149" y="734"/>
      <point x="147" y="694"/>
      <point x="173" y="694" type="curve" smooth="yes"/>
      <point x="194" y="694" type="line" smooth="yes"/>
      <point x="251" y="694"/>
      <point x="328" y="861"/>
      <point x="505" y="861" type="curve" smooth="yes"/>
      <point x="714" y="861"/>
      <point x="744" y="662"/>
      <point x="744" y="463" type="curve" smooth="yes"/>
      <point x="744" y="241"/>
      <point x="669" y="52"/>
      <point x="434" y="52" type="curve" smooth="yes"/>
      <point x="306" y="52"/>
      <point x="175" y="99"/>
      <point x="160" y="103" type="curve" smooth="yes"/>
      <point x="156" y="104"/>
      <point x="153" y="105"/>
      <point x="150" y="105" type="curve" smooth="yes"/>
      <point x="140" y="105"/>
      <point x="134" y="105"/>
      <point x="134" y="75" type="curve"/>
      <point x="134" y="75"/>
      <point x="134" y="69"/>
      <point x="134" y="69" type="curve"/>
      <point x="134" y="40"/>
      <point x="141" y="35"/>
      <point x="154" y="29" type="curve" smooth="yes"/>
      <point x="197" y="9"/>
      <point x="337" y="-12"/>
    </contour>
  </outline>
</glyph>
<glyph name="six" format="1">
  <advance width="773"/>
  <unicode hex="0036"/>
  <outline>
    <contour>
      <point x="367" y="-12" type="curve" smooth="yes"/>
      <point x="542" y="-18"/>
      <point x="685" y="61"/>
      <point x="684.204" y="426" type="curve" smooth="yes"/>
      <point x="684" y="653"/>
      <point x="638" y="846"/>
      <point x="407" y="846" type="curve" smooth="yes"/>
      <point x="347" y="846"/>
      <point x="261" y="831"/>
      <point x="171" y="797" type="curve"/>
      <point x="171" y="840" type="line" smooth="yes"/>
      <point x="171" y="1232"/>
      <point x="238" y="1388"/>
      <point x="415" y="1388" type="curve" smooth="yes"/>
      <point x="513" y="1388"/>
      <point x="565" y="1341"/>
      <point x="603" y="1315" type="curve" smooth="yes"/>
      <point x="625" y="1300"/>
      <point x="647" y="1355"/>
      <point x="622" y="1377" type="curve" smooth="yes"/>
      <point x="582" y="1412"/>
      <point x="507" y="1451"/>
      <point x="419" y="1451" type="curve" smooth="yes"/>
      <point x="202" y="1451"/>
      <point x="90" y="1295"/>
      <point x="90" y="736" type="curve" smooth="yes"/>
      <point x="90" y="292"/>
      <point x="122" y="-4"/>
    </contour>
    <contour>
      <point x="378" y="51" type="curve" smooth="yes"/>
      <point x="216" y="56"/>
      <point x="168" y="248"/>
      <point x="168" y="705" type="curve" smooth="yes"/>
      <point x="168" y="732" type="line"/>
      <point x="264" y="766"/>
      <point x="348" y="781"/>
      <point x="405" y="781" type="curve" smooth="yes"/>
      <point x="577" y="781"/>
      <point x="610" y="603"/>
      <point x="610" y="431" type="curve" smooth="yes"/>
      <point x="610" y="127"/>
      <point x="528" y="46"/>
    </contour>
  </outline>
</glyph>
<glyph name="seven" format="1">
  <advance width="456"/>
  <unicode hex="0037"/>
  <outline>
    <contour>
      <point x="179" y="0" type="curve" smooth="yes"/>
      <point x="211" y="0" type="line" smooth="yes"/>
      <point x="226" y="0"/>
      <point x="229" y="26"/>
      <point x="234" y="67" type="curve" smooth="yes"/>
      <point x="370" y="1371" type="line" smooth="yes"/>
      <point x="374" y="1413"/>
      <point x="365" y="1438"/>
      <point x="349" y="1438" type="curve" smooth="yes"/>
      <point x="98" y="1438" type="line" smooth="yes"/>
      <point x="83" y="1438"/>
      <point x="75" y="1414"/>
      <point x="75" y="1371" type="curve" smooth="yes"/>
      <point x="75" y="1336" type="line" smooth="yes"/>
      <point x="75" y="1293"/>
      <point x="83" y="1269"/>
      <point x="98" y="1269" type="curve" smooth="yes"/>
      <point x="269" y="1269" type="line" smooth="yes"/>
      <point x="276" y="1269"/>
      <point x="281" y="1255"/>
      <point x="279" y="1236" type="curve" smooth="yes"/>
      <point x="157" y="67" type="line" smooth="yes"/>
      <point x="152" y="26"/>
      <point x="164" y="0"/>
    </contour>
  </outline>
</glyph>
<glyph name="eight" format="1">
  <advance width="794"/>
  <unicode hex="0038"/>
  <outline>
    <contour>
      <point x="397" y="-12" type="curve" smooth="yes"/>
      <point x="574" y="-12"/>
      <point x="702" y="77"/>
      <point x="701.811" y="387" type="curve" smooth="yes"/>
      <point x="702" y="545"/>
      <point x="646" y="648"/>
      <point x="561" y="696" type="curve"/>
      <point x="601" y="754"/>
      <point x="668" y="879"/>
      <point x="667.811" y="1029" type="curve" smooth="yes"/>
      <point x="668" y="1322"/>
      <point x="574" y="1450"/>
      <point x="397" y="1450" type="curve" smooth="yes"/>
      <point x="222" y="1450"/>
      <point x="120" y="1323"/>
      <point x="120" y="1059" type="curve" smooth="yes"/>
      <point x="120" y="868"/>
      <point x="169" y="812"/>
      <point x="220" y="774" type="curve"/>
      <point x="177" y="717"/>
      <point x="93" y="561"/>
      <point x="93" y="403" type="curve" smooth="yes"/>
      <point x="93" y="97"/>
      <point x="222" y="-12"/>
    </contour>
    <contour>
      <point x="399" y="51" type="curve" smooth="yes"/>
      <point x="251" y="51"/>
      <point x="170" y="135"/>
      <point x="170" y="403" type="curve" smooth="yes"/>
      <point x="170" y="498"/>
      <point x="221" y="672"/>
      <point x="272" y="746" type="curve"/>
      <point x="583" y="655"/>
      <point x="623" y="584"/>
      <point x="622.811" y="403" type="curve" smooth="yes"/>
      <point x="623" y="135"/>
      <point x="548" y="51"/>
    </contour>
    <contour>
      <point x="510" y="730" type="curve"/>
      <point x="255" y="823"/>
      <point x="201" y="842"/>
      <point x="201.461" y="1029" type="curve" smooth="yes"/>
      <point x="202" y="1271"/>
      <point x="259" y="1388"/>
      <point x="399" y="1388" type="curve" smooth="yes"/>
      <point x="526" y="1388"/>
      <point x="592.474" y="1295"/>
      <point x="592.474" y="1025" type="curve" smooth="yes"/>
      <point x="592.474" y="887"/>
      <point x="532" y="781"/>
    </contour>
  </outline>
</glyph>
<glyph name="nine" format="1">
  <advance width="727"/>
  <unicode hex="0039"/>
  <outline>
    <contour>
      <point x="336" y="-12" type="curve" smooth="yes"/>
      <point x="520" y="-12"/>
      <point x="643" y="85"/>
      <point x="643" y="694" type="curve" smooth="yes"/>
      <point x="643" y="1239"/>
      <point x="610" y="1472"/>
      <point x="369" y="1472" type="curve" smooth="yes"/>
      <point x="212" y="1472"/>
      <point x="89" y="1332"/>
      <point x="89" y="1004" type="curve" smooth="yes"/>
      <point x="89" y="747"/>
      <point x="158" y="573"/>
      <point x="365" y="573" type="curve" smooth="yes"/>
      <point x="440" y="573"/>
      <point x="513" y="602"/>
      <point x="561" y="646" type="curve"/>
      <point x="561" y="520" type="line" smooth="yes"/>
      <point x="561" y="193"/>
      <point x="486" y="61"/>
      <point x="339" y="61" type="curve" smooth="yes"/>
      <point x="260" y="61"/>
      <point x="199" y="108"/>
      <point x="171" y="137" type="curve" smooth="yes"/>
      <point x="169" y="139"/>
      <point x="165" y="144"/>
      <point x="159" y="144" type="curve" smooth="yes"/>
      <point x="155" y="144"/>
      <point x="150" y="142"/>
      <point x="148" y="124" type="curve" smooth="yes"/>
      <point x="148" y="124"/>
      <point x="146.0" y="96.0"/>
      <point x="146" y="96" type="curve" smooth="yes"/>
      <point x="146" y="78"/>
      <point x="146" y="70"/>
      <point x="152" y="63" type="curve" smooth="yes"/>
      <point x="193" y="15"/>
      <point x="275" y="-12"/>
    </contour>
    <contour>
      <point x="368" y="641" type="curve" smooth="yes"/>
      <point x="216" y="641"/>
      <point x="167" y="784"/>
      <point x="167" y="1006" type="curve" smooth="yes"/>
      <point x="167" y="1250"/>
      <point x="236" y="1403"/>
      <point x="369" y="1403" type="curve" smooth="yes"/>
      <point x="513" y="1403"/>
      <point x="565" y="1247"/>
      <point x="565" y="875" type="curve" smooth="yes"/>
      <point x="565" y="714" type="line"/>
      <point x="502" y="655"/>
      <point x="419" y="641"/>
    </contour>
  </outline>
</glyph>
<glyph name="equal" format="1">
  <advance width="397"/>
  <unicode hex="003D"/>
  <outline>
    <contour>
      <point x="104" y="362" type="curve" smooth="yes"/>
      <point x="289" y="362" type="line" smooth="yes"/>
      <point x="304" y="362"/>
      <point x="309" y="366"/>
      <point x="309" y="409" type="curve" smooth="yes"/>
      <point x="309" y="413" type="line" smooth="yes"/>
      <point x="309" y="456"/>
      <point x="304" y="460"/>
      <point x="289" y="460" type="curve" smooth="yes"/>
      <point x="104" y="460" type="line" smooth="yes"/>
      <point x="89" y="460"/>
      <point x="85" y="456"/>
      <point x="85" y="413" type="curve" smooth="yes"/>
      <point x="85" y="409" type="line" smooth="yes"/>
      <point x="85" y="366"/>
      <point x="89" y="362"/>
    </contour>
    <contour>
      <point x="104" y="627" type="curve" smooth="yes"/>
      <point x="289" y="627" type="line" smooth="yes"/>
      <point x="304" y="627"/>
      <point x="309" y="631"/>
      <point x="309" y="674" type="curve" smooth="yes"/>
      <point x="309" y="678" type="line" smooth="yes"/>
      <point x="309" y="721"/>
      <point x="304" y="725"/>
      <point x="289" y="725" type="curve" smooth="yes"/>
      <point x="104" y="725" type="line" smooth="yes"/>
      <point x="89" y="725"/>
      <point x="85" y="721"/>
      <point x="85" y="678" type="curve" smooth="yes"/>
      <point x="85" y="674" type="line" smooth="yes"/>
      <point x="85" y="631"/>
      <point x="89" y="627"/>
    </contour>
  </outline>
</glyph>
<glyph name="greater" format="1">
  <advance width="494"/>
  <unicode hex="003E"/>
  <outline>
    <contour>
      <point x="84" y="1151" type="curve" smooth="yes"/>
      <point x="78" y="1151"/>
      <point x="75" y="1138"/>
      <point x="75" y="1113" type="curve" smooth="yes"/>
      <point x="75" y="1085" type="line" smooth="yes"/>
      <point x="75" y="1042"/>
      <point x="83" y="1034"/>
      <point x="99" y="1011" type="curve" smooth="yes"/>
      <point x="337" y="660" type="line" smooth="yes"/>
      <point x="340" y="657"/>
      <point x="341" y="652"/>
      <point x="341" y="648" type="curve" smooth="yes"/>
      <point x="341" y="643"/>
      <point x="340" y="638"/>
      <point x="338" y="635" type="curve" smooth="yes"/>
      <point x="98" y="242" type="line" smooth="yes"/>
      <point x="83" y="218"/>
      <point x="75" y="201"/>
      <point x="75" y="158" type="curve" smooth="yes"/>
      <point x="75" y="143" type="line" smooth="yes"/>
      <point x="75" y="115"/>
      <point x="78" y="101"/>
      <point x="85" y="101" type="curve" smooth="yes"/>
      <point x="89" y="101"/>
      <point x="94" y="104"/>
      <point x="99" y="113" type="curve" smooth="yes"/>
      <point x="374" y="560" type="line" smooth="yes"/>
      <point x="397" y="597"/>
      <point x="400" y="602"/>
      <point x="400" y="641" type="curve" smooth="yes"/>
      <point x="400" y="646" type="line" smooth="yes"/>
      <point x="400" y="686"/>
      <point x="399" y="697"/>
      <point x="375" y="732" type="curve" smooth="yes"/>
      <point x="98" y="1133" type="line" smooth="yes"/>
      <point x="92" y="1142"/>
      <point x="87" y="1151"/>
    </contour>
  </outline>
</glyph>
<glyph name="question" format="1">
  <advance width="881"/>
  <unicode hex="003F"/>
  <outline>
    <contour>
      <point x="302" y="0" type="curve" smooth="yes"/>
      <point x="374" y="0" type="line" smooth="yes"/>
      <point x="389" y="0"/>
      <point x="400" y="14"/>
      <point x="400" y="57" type="curve" smooth="yes"/>
      <point x="400" y="147" type="line" smooth="yes"/>
      <point x="400" y="190"/>
      <point x="389" y="204"/>
      <point x="374" y="204" type="curve" smooth="yes"/>
      <point x="302" y="204" type="line" smooth="yes"/>
      <point x="288" y="204"/>
      <point x="276" y="190"/>
      <point x="276" y="147" type="curve" smooth="yes"/>
      <point x="276" y="57" type="line" smooth="yes"/>
      <point x="276" y="14"/>
      <point x="288" y="0"/>
    </contour>
    <contour>
      <point x="324" y="464" type="curve" smooth="yes"/>
      <point x="350" y="451"/>
      <point x="353" y="478"/>
      <point x="353" y="478" type="curve" smooth="yes"/>
      <point x="401" y="589"/>
      <point x="415" y="641"/>
      <point x="513" y="700" type="curve" smooth="yes"/>
      <point x="692" y="808"/>
      <point x="784" y="863"/>
      <point x="784" y="1075" type="curve" smooth="yes"/>
      <point x="784" y="1306"/>
      <point x="680" y="1451"/>
      <point x="421" y="1451" type="curve" smooth="yes"/>
      <point x="245" y="1451"/>
      <point x="182" y="1423"/>
      <point x="105" y="1382" type="curve" smooth="yes"/>
      <point x="79" y="1368"/>
      <point x="63" y="1355"/>
      <point x="73" y="1337" type="curve" smooth="yes"/>
      <point x="80" y="1324" type="line" smooth="yes"/>
      <point x="92" y="1302"/>
      <point x="102" y="1299"/>
      <point x="129" y="1314" type="curve" smooth="yes"/>
      <point x="212" y="1360"/>
      <point x="263" y="1388"/>
      <point x="418" y="1388" type="curve" smooth="yes"/>
      <point x="636" y="1388"/>
      <point x="703" y="1273"/>
      <point x="713" y="1097" type="curve" smooth="yes"/>
      <point x="722" y="946"/>
      <point x="664" y="854"/>
      <point x="523" y="776" type="curve" smooth="yes"/>
      <point x="402" y="709"/>
      <point x="367" y="682"/>
      <point x="304" y="514" type="curve" smooth="yes"/>
      <point x="304" y="514"/>
      <point x="289" y="486"/>
      <point x="307" y="474" type="curve" smooth="yes"/>
      <point x="314" y="469"/>
      <point x="320" y="466"/>
    </contour>
  </outline>
</glyph>
<glyph name="at" format="1">
  <advance width="1383"/>
  <unicode hex="0040"/>
  <outline>
    <contour>
      <point x="662" y="-105" type="curve" smooth="yes"/>
      <point x="776" y="-105"/>
      <point x="941" y="-60"/>
      <point x="1003" y="-25" type="curve"/>
      <point x="986" y="40" type="line"/>
      <point x="918" y="10"/>
      <point x="765" y="-30"/>
      <point x="673" y="-30" type="curve" smooth="yes"/>
      <point x="239" y="-30"/>
      <point x="169" y="326"/>
      <point x="169" y="685" type="curve" smooth="yes"/>
      <point x="169" y="1028"/>
      <point x="301" y="1402"/>
      <point x="702" y="1402" type="curve" smooth="yes"/>
      <point x="1099" y="1402"/>
      <point x="1215" y="1091"/>
      <point x="1215" y="686" type="curve" smooth="yes"/>
      <point x="1215" y="377"/>
      <point x="1175" y="300"/>
      <point x="1117" y="300" type="curve" smooth="yes"/>
      <point x="1063" y="300"/>
      <point x="1021" y="354"/>
      <point x="1021" y="542" type="curve" smooth="yes"/>
      <point x="1021" y="985" type="line" smooth="yes"/>
      <point x="1021" y="1015"/>
      <point x="1017" y="1033"/>
      <point x="1004" y="1033" type="curve" smooth="yes"/>
      <point x="999" y="1033" type="line" smooth="yes"/>
      <point x="982" y="1033"/>
      <point x="978" y="1020"/>
      <point x="973" y="987" type="curve" smooth="yes"/>
      <point x="961" y="846" type="line" smooth="yes"/>
      <point x="961" y="839"/>
      <point x="959" y="834"/>
      <point x="956" y="834" type="curve" smooth="yes"/>
      <point x="954" y="834"/>
      <point x="950" y="838"/>
      <point x="948" y="845" type="curve" smooth="yes"/>
      <point x="911" y="961"/>
      <point x="857" y="1074"/>
      <point x="692" y="1074" type="curve" smooth="yes"/>
      <point x="467" y="1074"/>
      <point x="366" y="924"/>
      <point x="366" y="660" type="curve" smooth="yes"/>
      <point x="366" y="381"/>
      <point x="461" y="242"/>
      <point x="687" y="242" type="curve" smooth="yes"/>
      <point x="879" y="242"/>
      <point x="926" y="383"/>
      <point x="956" y="472" type="curve" smooth="yes"/>
      <point x="959" y="480"/>
      <point x="961" y="494"/>
      <point x="967" y="494" type="curve" smooth="yes"/>
      <point x="973" y="494"/>
      <point x="977" y="478"/>
      <point x="979" y="459" type="curve"/>
      <point x="991" y="352"/>
      <point x="1012" y="242"/>
      <point x="1115" y="242" type="curve" smooth="yes"/>
      <point x="1208" y="242"/>
      <point x="1293" y="366"/>
      <point x="1293" y="686" type="curve"/>
      <point x="1292" y="1101"/>
      <point x="1190" y="1475"/>
      <point x="699" y="1475" type="curve" smooth="yes"/>
      <point x="260" y="1475"/>
      <point x="90" y="1069"/>
      <point x="90" y="688" type="curve" smooth="yes"/>
      <point x="90" y="268"/>
      <point x="198" y="-105"/>
    </contour>
    <contour>
      <point x="689" y="299" type="curve" smooth="yes"/>
      <point x="528" y="299"/>
      <point x="445" y="395"/>
      <point x="445" y="660" type="curve" smooth="yes"/>
      <point x="445" y="912"/>
      <point x="524" y="1018"/>
      <point x="698" y="1018" type="curve" smooth="yes"/>
      <point x="868" y="1018"/>
      <point x="926" y="833"/>
      <point x="926" y="652" type="curve" smooth="yes"/>
      <point x="926" y="456"/>
      <point x="883" y="299"/>
    </contour>
  </outline>
</glyph>
<glyph name="A" format="1">
  <advance width="699.653061224"/>
  <unicode hex="0041"/>
  <outline>
    <contour>
      <point x="79.6530612245" y="0" type="curve" smooth="yes"/>
      <point x="114.653061224" y="0" type="line" smooth="yes"/>
      <point x="130.653061224" y="0"/>
      <point x="139.653061224" y="10"/>
      <point x="147.653061224" y="53" type="curve" smooth="yes"/>
      <point x="198.653061224" y="354" type="line"/>
      <point x="201.653061224" y="360" type="line"/>
      <point x="500.653061224" y="360" type="line"/>
      <point x="503.653061224" y="355" type="line"/>
      <point x="547.653061224" y="53" type="line" smooth="yes"/>
      <point x="553.653061224" y="9"/>
      <point x="571.653061224" y="0"/>
      <point x="585.653061224" y="0" type="curve" smooth="yes"/>
      <point x="620.653061224" y="0" type="line" smooth="yes"/>
      <point x="630.653061224" y="0"/>
      <point x="635.653061224" y="11"/>
      <point x="635.653061224" y="31" type="curve" smooth="yes"/>
      <point x="635.653061224" y="41"/>
      <point x="630.653061224" y="39"/>
      <point x="628.653061224" y="53" type="curve" smooth="yes"/>
      <point x="409" y="1380" type="line" smooth="yes"/>
      <point x="403" y="1421"/>
      <point x="391.653061224" y="1435"/>
      <point x="377.653061224" y="1438" type="curve"/>
      <point x="336.653061224" y="1438" type="line"/>
      <point x="322.653061224" y="1435"/>
      <point x="312" y="1421"/>
      <point x="305" y="1380" type="curve" smooth="yes"/>
      <point x="65.6530612245" y="53" type="line" smooth="yes"/>
      <point x="62.6530612245" y="39"/>
      <point x="64.6530612245" y="42"/>
      <point x="64.6530612245" y="32" type="curve" smooth="yes"/>
      <point x="64.6530612245" y="11"/>
      <point x="70.6530612245" y="0"/>
    </contour>
    <contour>
      <point x="227" y="420" type="line" smooth="yes"/>
      <point x="222" y="420"/>
      <point x="219" y="425"/>
      <point x="219" y="427" type="curve" smooth="yes"/>
      <point x="219" y="428"/>
      <point x="219" y="431"/>
      <point x="220" y="436" type="curve" smooth="yes"/>
      <point x="355.653061224" y="1278" type="line"/>
      <point x="355.653061224" y="1278"/>
      <point x="355.653061224" y="1280"/>
      <point x="356.653061224" y="1280" type="curve"/>
      <point x="356.653061224" y="1280"/>
      <point x="356.653061224" y="1279"/>
      <point x="357.653061224" y="1278" type="curve"/>
      <point x="485" y="430" type="line"/>
      <point x="487" y="429"/>
      <point x="487" y="427"/>
      <point x="487" y="425" type="curve" smooth="yes"/>
      <point x="487" y="423"/>
      <point x="487" y="420"/>
      <point x="485" y="420" type="curve" smooth="yes"/>
    </contour>
  </outline>
</glyph>
<glyph name="B" format="1">
  <advance width="906"/>
  <unicode hex="0042"/>
  <outline>
    <contour>
      <point x="130" y="0" type="curve" smooth="yes"/>
      <point x="433" y="0" type="line" smooth="yes"/>
      <point x="690.304" y="0"/>
      <point x="816.248" y="96"/>
      <point x="816.248" y="424" type="curve" smooth="yes"/>
      <point x="816.248" y="590"/>
      <point x="749.248" y="703"/>
      <point x="652.102" y="758" type="curve" smooth="yes"/>
      <point x="647.608" y="760"/>
      <point x="644.237" y="763"/>
      <point x="644.237" y="765" type="curve" smooth="yes"/>
      <point x="644.237" y="766"/>
      <point x="646.484" y="769"/>
      <point x="650.978" y="772" type="curve" smooth="yes"/>
      <point x="744.248" y="826"/>
      <point x="776.248" y="932"/>
      <point x="776.248" y="1043" type="curve" smooth="yes"/>
      <point x="776.248" y="1342"/>
      <point x="649.855" y="1438"/>
      <point x="455.472" y="1438" type="curve" smooth="yes"/>
      <point x="130" y="1438" type="line" smooth="yes"/>
      <point x="114" y="1438"/>
      <point x="103" y="1438"/>
      <point x="103" y="1399" type="curve" smooth="yes"/>
      <point x="103" y="37" type="line" smooth="yes"/>
      <point x="103" y="0"/>
      <point x="114" y="0"/>
    </contour>
    <contour>
      <point x="195" y="60" type="line" smooth="yes"/>
      <point x="187" y="60"/>
      <point x="181" y="60"/>
      <point x="181" y="75" type="curve" smooth="yes"/>
      <point x="181" y="718" type="line" smooth="yes"/>
      <point x="181" y="737"/>
      <point x="187" y="737"/>
      <point x="195" y="737" type="curve" smooth="yes"/>
      <point x="508.281" y="737" type="line" smooth="yes"/>
      <point x="631.877" y="737"/>
      <point x="738" y="623"/>
      <point x="738" y="417" type="curve" smooth="yes"/>
      <point x="738" y="187"/>
      <point x="668.956" y="60"/>
      <point x="447.607" y="60" type="curve" smooth="yes"/>
    </contour>
    <contour>
      <point x="195" y="795" type="line" smooth="yes"/>
      <point x="187" y="795"/>
      <point x="181" y="795"/>
      <point x="181" y="810" type="curve" smooth="yes"/>
      <point x="181" y="1358" type="line" smooth="yes"/>
      <point x="181" y="1378"/>
      <point x="187" y="1378"/>
      <point x="195" y="1378" type="curve" smooth="yes"/>
      <point x="458.843" y="1378" type="line" smooth="yes"/>
      <point x="626.259" y="1378"/>
      <point x="698.17" y="1276"/>
      <point x="698.17" y="1046" type="curve" smooth="yes"/>
      <point x="698.17" y="876"/>
      <point x="619.518" y="795"/>
      <point x="515.023" y="795" type="curve" smooth="yes"/>
    </contour>
  </outline>
</glyph>
<glyph name="C" format="1">
  <advance width="648"/>
  <unicode hex="0043"/>
  <outline>
    <contour>
      <point x="433" y="-13" type="curve" smooth="yes"/>
      <point x="464" y="-13"/>
      <point x="521" y="-9"/>
      <point x="564" y="6" type="curve"/>
      <point x="571" y="15" type="line"/>
      <point x="571" y="63" type="line"/>
      <point x="564" y="71" type="line"/>
      <point x="531" y="60"/>
      <point x="470" y="51"/>
      <point x="434" y="51" type="curve" smooth="yes"/>
      <point x="287" y="51"/>
      <point x="169" y="120"/>
      <point x="169" y="721" type="curve" smooth="yes"/>
      <point x="169" y="1317"/>
      <point x="311" y="1388"/>
      <point x="454" y="1388" type="curve" smooth="yes"/>
      <point x="525" y="1388"/>
      <point x="584" y="1363"/>
      <point x="586" y="1363" type="curve" smooth="yes"/>
      <point x="590" y="1363"/>
      <point x="593" y="1364"/>
      <point x="593" y="1372" type="curve" smooth="yes"/>
      <point x="593" y="1413" type="line" smooth="yes"/>
      <point x="593" y="1422"/>
      <point x="585" y="1426"/>
      <point x="581" y="1428" type="curve" smooth="yes"/>
      <point x="555" y="1439"/>
      <point x="507" y="1451"/>
      <point x="445" y="1451" type="curve" smooth="yes"/>
      <point x="274" y="1451"/>
      <point x="91" y="1383"/>
      <point x="91" y="721" type="curve" smooth="yes"/>
      <point x="91" y="22"/>
      <point x="278" y="-13"/>
    </contour>
    <contour>
      <point x="324" y="1455" type="move" name="top"/>
    </contour>
    <contour>
      <point x="324" y="0" type="move" name="bottom"/>
    </contour>
  </outline>
</glyph>
<glyph name="D" format="1">
  <advance width="925"/>
  <unicode hex="0044"/>
  <outline>
    <contour>
      <point x="192" y="60" type="line" smooth="yes"/>
      <point x="184" y="60"/>
      <point x="181" y="64"/>
      <point x="181" y="78" type="curve" smooth="yes"/>
      <point x="181" y="1364" type="line" smooth="yes"/>
      <point x="181" y="1374"/>
      <point x="185" y="1378"/>
      <point x="191" y="1378" type="curve" smooth="yes"/>
      <point x="455.282" y="1378" type="line" smooth="yes"/>
      <point x="688.991" y="1378"/>
      <point x="760.901" y="1162"/>
      <point x="760.901" y="721" type="curve" smooth="yes"/>
      <point x="760.901" y="202"/>
      <point x="705.845" y="60"/>
      <point x="455.282" y="60" type="curve" smooth="yes"/>
    </contour>
    <contour>
      <point x="125" y="0" type="curve" smooth="yes"/>
      <point x="455.282" y="0" type="line" smooth="yes"/>
      <point x="736.182" y="0"/>
      <point x="838.901" y="102"/>
      <point x="838.901" y="721" type="curve" smooth="yes"/>
      <point x="838.901" y="1293"/>
      <point x="695.732" y="1438"/>
      <point x="455.282" y="1438" type="curve" smooth="yes"/>
      <point x="125" y="1438" type="line" smooth="yes"/>
      <point x="111" y="1438"/>
      <point x="103" y="1434"/>
      <point x="103" y="1411" type="curve" smooth="yes"/>
      <point x="103" y="37" type="line" smooth="yes"/>
      <point x="103" y="4"/>
      <point x="111" y="0"/>
    </contour>
    <contour>
      <point x="463" y="1455" type="move" name="top"/>
    </contour>
    <contour>
      <point x="463" y="728" type="move" name="center"/>
    </contour>
  </outline>
</glyph>
<glyph name="E" format="1">
  <advance width="660"/>
  <unicode hex="0045"/>
  <outline>
    <contour>
      <point x="126" y="0" type="curve" smooth="yes"/>
      <point x="567" y="0" type="line" smooth="yes"/>
      <point x="581" y="0"/>
      <point x="589" y="0"/>
      <point x="589" y="27" type="curve" smooth="yes"/>
      <point x="589" y="33" type="line" smooth="yes"/>
      <point x="589" y="60"/>
      <point x="581" y="60"/>
      <point x="567" y="60" type="curve" smooth="yes"/>
      <point x="182" y="60" type="line"/>
      <point x="182" y="699" type="line"/>
      <point x="187" y="716" type="line"/>
      <point x="521" y="716" type="line" smooth="yes"/>
      <point x="536" y="716"/>
      <point x="544" y="716"/>
      <point x="544" y="743" type="curve" smooth="yes"/>
      <point x="544" y="750" type="line" smooth="yes"/>
      <point x="544" y="775"/>
      <point x="536" y="775"/>
      <point x="521" y="775" type="curve" smooth="yes"/>
      <point x="186" y="775" type="line"/>
      <point x="182" y="783" type="line"/>
      <point x="182" y="1353" type="line" smooth="yes"/>
      <point x="182" y="1373"/>
      <point x="183" y="1378"/>
      <point x="191" y="1378" type="curve" smooth="yes"/>
      <point x="566" y="1378" type="line" smooth="yes"/>
      <point x="580" y="1378"/>
      <point x="588" y="1378"/>
      <point x="588" y="1405" type="curve" smooth="yes"/>
      <point x="588" y="1411" type="line" smooth="yes"/>
      <point x="588" y="1438"/>
      <point x="580" y="1438"/>
      <point x="566" y="1438" type="curve" smooth="yes"/>
      <point x="126" y="1438" type="line" smooth="yes"/>
      <point x="112" y="1438"/>
      <point x="104" y="1433"/>
      <point x="104" y="1406" type="curve" smooth="yes"/>
      <point x="104" y="32" type="line" smooth="yes"/>
      <point x="104" y="0"/>
      <point x="112" y="0"/>
    </contour>
    <contour>
      <point x="334" y="1455" type="move" name="top"/>
    </contour>
    <contour>
      <point x="334" y="0" type="move" name="bottom"/>
    </contour>
    <contour>
      <point x="599" y="10" type="move" name="ogonek"/>
    </contour>
  </outline>
</glyph>
<glyph name="F" format="1">
  <advance width="652"/>
  <unicode hex="0046"/>
  <outline>
    <contour>
      <point x="125" y="0" type="curve" smooth="yes"/>
      <point x="158" y="0" type="line" smooth="yes"/>
      <point x="173" y="0"/>
      <point x="181" y="0"/>
      <point x="181" y="32" type="curve" smooth="yes"/>
      <point x="181" y="699" type="line"/>
      <point x="186" y="716" type="line"/>
      <point x="504" y="716" type="line" smooth="yes"/>
      <point x="519" y="716"/>
      <point x="527" y="716"/>
      <point x="527" y="743" type="curve" smooth="yes"/>
      <point x="527" y="750" type="line" smooth="yes"/>
      <point x="527" y="775"/>
      <point x="519" y="775"/>
      <point x="504" y="775" type="curve" smooth="yes"/>
      <point x="185" y="775" type="line"/>
      <point x="181" y="783" type="line"/>
      <point x="181" y="1353" type="line" smooth="yes"/>
      <point x="181" y="1373"/>
      <point x="182" y="1378"/>
      <point x="190" y="1378" type="curve" smooth="yes"/>
      <point x="549" y="1378" type="line" smooth="yes"/>
      <point x="563" y="1378"/>
      <point x="571" y="1378"/>
      <point x="571" y="1405" type="curve" smooth="yes"/>
      <point x="571" y="1411" type="line" smooth="yes"/>
      <point x="571" y="1438"/>
      <point x="563" y="1438"/>
      <point x="549" y="1438" type="curve" smooth="yes"/>
      <point x="125" y="1438" type="line" smooth="yes"/>
      <point x="111" y="1438"/>
      <point x="103" y="1433"/>
      <point x="103" y="1406" type="curve" smooth="yes"/>
      <point x="103" y="32" type="line" smooth="yes"/>
      <point x="103" y="0"/>
      <point x="111" y="0"/>
    </contour>
  </outline>
</glyph>
<glyph name="G" format="1">
  <advance width="879"/>
  <unicode hex="0047"/>
  <outline>
    <contour>
      <point x="761.822" y="-15" type="curve" smooth="yes"/>
      <point x="776.822" y="-15"/>
      <point x="784.822" y="-8"/>
      <point x="784.822" y="35" type="curve" smooth="yes"/>
      <point x="784.822" y="683" type="line" smooth="yes"/>
      <point x="784.822" y="726"/>
      <point x="773.822" y="717"/>
      <point x="758.822" y="717" type="curve" smooth="yes"/>
      <point x="494" y="717" type="line" smooth="yes"/>
      <point x="479" y="717"/>
      <point x="465" y="717"/>
      <point x="465" y="685" type="curve" smooth="yes"/>
      <point x="465" y="674" type="line" smooth="yes"/>
      <point x="465" y="642"/>
      <point x="481" y="642"/>
      <point x="497" y="642" type="curve" smooth="yes"/>
      <point x="699" y="642" type="line" smooth="yes"/>
      <point x="705" y="642"/>
      <point x="707" y="633"/>
      <point x="707" y="563" type="curve" smooth="yes"/>
      <point x="707" y="294"/>
      <point x="628.8" y="51"/>
      <point x="453.518" y="51" type="curve" smooth="yes"/>
      <point x="304.079" y="51"/>
      <point x="167" y="120"/>
      <point x="167" y="721" type="curve" smooth="yes"/>
      <point x="167" y="1351"/>
      <point x="346.776" y="1388"/>
      <point x="507.451" y="1388" type="curve" smooth="yes"/>
      <point x="587.226" y="1388"/>
      <point x="655.766" y="1362"/>
      <point x="658.013" y="1362" type="curve" smooth="yes"/>
      <point x="662.508" y="1362"/>
      <point x="665.878" y="1363"/>
      <point x="665.878" y="1371" type="curve" smooth="yes"/>
      <point x="665.878" y="1412" type="line" smooth="yes"/>
      <point x="665.878" y="1421"/>
      <point x="656.89" y="1425"/>
      <point x="652.395" y="1427" type="curve" smooth="yes"/>
      <point x="623.182" y="1437"/>
      <point x="574.867" y="1451"/>
      <point x="497.338" y="1451" type="curve" smooth="yes"/>
      <point x="305.203" y="1451"/>
      <point x="89" y="1412"/>
      <point x="89" y="721" type="curve" smooth="yes"/>
      <point x="89" y="22"/>
      <point x="289.472" y="-13"/>
      <point x="463.63" y="-13" type="curve" smooth="yes"/>
      <point x="571.496" y="-13"/>
      <point x="674.867" y="45"/>
      <point x="717.822" y="232" type="curve" smooth="yes"/>
      <point x="718.822" y="238"/>
      <point x="720.822" y="238"/>
      <point x="722.822" y="238" type="curve" smooth="yes"/>
      <point x="723.822" y="238"/>
      <point x="724.822" y="236"/>
      <point x="724.822" y="232" type="curve" smooth="yes"/>
      <point x="724.822" y="179"/>
      <point x="730.822" y="65"/>
      <point x="733.822" y="35" type="curve" smooth="yes"/>
      <point x="737.822" y="-8"/>
      <point x="746.822" y="-15"/>
    </contour>
    <contour>
      <point x="440" y="1455" type="move" name="top"/>
    </contour>
    <contour>
      <point x="440" y="0" type="move" name="bottom"/>
    </contour>
  </outline>
</glyph>
<glyph name="H" format="1">
  <advance width="849"/>
  <unicode hex="0048"/>
  <outline>
    <contour>
      <point x="127" y="0" type="curve" smooth="yes"/>
      <point x="156" y="0" type="line" smooth="yes"/>
      <point x="172" y="0"/>
      <point x="182" y="4"/>
      <point x="182" y="47" type="curve" smooth="yes"/>
      <point x="182" y="681" type="line"/>
      <point x="187" y="697" type="line"/>
      <point x="661" y="697" type="line"/>
      <point x="668" y="679" type="line"/>
      <point x="668" y="47" type="line" smooth="yes"/>
      <point x="668" y="4"/>
      <point x="678" y="0"/>
      <point x="695" y="0" type="curve" smooth="yes"/>
      <point x="724.834" y="0" type="line" smooth="yes"/>
      <point x="738.834" y="0"/>
      <point x="746.834" y="4"/>
      <point x="746.834" y="47" type="curve" smooth="yes"/>
      <point x="746.834" y="1391" type="line" smooth="yes"/>
      <point x="746.834" y="1434"/>
      <point x="738.834" y="1438"/>
      <point x="724.834" y="1438" type="curve" smooth="yes"/>
      <point x="695" y="1438" type="line" smooth="yes"/>
      <point x="678" y="1438"/>
      <point x="668" y="1434"/>
      <point x="668" y="1391" type="curve" smooth="yes"/>
      <point x="668" y="783" type="line"/>
      <point x="660" y="765" type="line"/>
      <point x="186" y="765" type="line"/>
      <point x="182" y="780" type="line"/>
      <point x="182" y="1391" type="line" smooth="yes"/>
      <point x="182" y="1434"/>
      <point x="172" y="1438"/>
      <point x="156" y="1438" type="curve" smooth="yes"/>
      <point x="127" y="1438" type="line" smooth="yes"/>
      <point x="111" y="1438"/>
      <point x="103" y="1434"/>
      <point x="103" y="1391" type="curve" smooth="yes"/>
      <point x="103" y="47" type="line" smooth="yes"/>
      <point x="103" y="4"/>
      <point x="111" y="0"/>
    </contour>
    <contour>
      <point x="425" y="1455" type="move" name="top"/>
    </contour>
    <contour>
      <point x="425" y="728" type="move" name="center"/>
    </contour>
  </outline>
</glyph>
<glyph name="I" format="1">
  <advance width="283"/>
  <unicode hex="0049"/>
  <outline>
    <contour>
      <point x="125" y="0" type="curve" smooth="yes"/>
      <point x="158" y="0" type="line" smooth="yes"/>
      <point x="173" y="0"/>
      <point x="181" y="4"/>
      <point x="181" y="47" type="curve" smooth="yes"/>
      <point x="181" y="1391" type="line" smooth="yes"/>
      <point x="181" y="1434"/>
      <point x="173" y="1438"/>
      <point x="158" y="1438" type="curve" smooth="yes"/>
      <point x="125" y="1438" type="line" smooth="yes"/>
      <point x="111" y="1438"/>
      <point x="103" y="1434"/>
      <point x="103" y="1391" type="curve" smooth="yes"/>
      <point x="103" y="47" type="line" smooth="yes"/>
      <point x="103" y="4"/>
      <point x="111" y="0"/>
    </contour>
    <contour>
      <point x="142" y="1455" type="move" name="top"/>
    </contour>
    <contour>
      <point x="255" y="10" type="move" name="ogonek"/>
    </contour>
  </outline>
</glyph>
<glyph name="J" format="1">
  <advance width="443"/>
  <unicode hex="004A"/>
  <outline>
    <contour>
      <point x="17" y="-141" type="curve" smooth="yes"/>
      <point x="230" y="-141"/>
      <point x="331" y="-137"/>
      <point x="331" y="371" type="curve" smooth="yes"/>
      <point x="331" y="1383" type="line" smooth="yes"/>
      <point x="331" y="1426"/>
      <point x="323" y="1438"/>
      <point x="308" y="1438" type="curve" smooth="yes"/>
      <point x="276" y="1438" type="line" smooth="yes"/>
      <point x="261" y="1438"/>
      <point x="253" y="1426"/>
      <point x="253" y="1383" type="curve" smooth="yes"/>
      <point x="253" y="371" type="line" smooth="yes"/>
      <point x="253" y="-66"/>
      <point x="198" y="-75"/>
      <point x="17" y="-75" type="curve" smooth="yes"/>
      <point x="12" y="-75"/>
      <point x="6" y="-75"/>
      <point x="6" y="-99" type="curve" smooth="yes"/>
      <point x="6" y="-118" type="line" smooth="yes"/>
      <point x="6" y="-141"/>
      <point x="11" y="-141"/>
    </contour>
    <contour>
      <point x="189" y="1455" type="move" name="top"/>
    </contour>
  </outline>
</glyph>
<glyph name="K" format="1">
  <advance width="678"/>
  <unicode hex="004B"/>
  <outline>
    <contour>
      <point x="125" y="0" type="curve" smooth="yes"/>
      <point x="156" y="0" type="line" smooth="yes"/>
      <point x="172.854" y="0"/>
      <point x="181.843" y="24"/>
      <point x="181.843" y="67" type="curve" smooth="yes"/>
      <point x="181.843" y="735" type="line"/>
      <point x="480.72" y="67" type="line" smooth="yes"/>
      <point x="496.451" y="32"/>
      <point x="507.687" y="0"/>
      <point x="523.417" y="0" type="curve" smooth="yes"/>
      <point x="566.417" y="0" type="line" smooth="yes"/>
      <point x="580.417" y="0"/>
      <point x="586.417" y="33"/>
      <point x="573.417" y="67" type="curve"/>
      <point x="280.72" y="736" type="line" smooth="yes"/>
      <point x="278.472" y="741"/>
      <point x="278.472" y="745"/>
      <point x="278.472" y="748" type="curve" smooth="yes"/>
      <point x="278.472" y="753"/>
      <point x="279.596" y="757"/>
      <point x="279.596" y="759" type="curve" smooth="yes"/>
      <point x="550.417" y="1365" type="line"/>
      <point x="564.417" y="1399"/>
      <point x="556.417" y="1438"/>
      <point x="542.417" y="1438" type="curve" smooth="yes"/>
      <point x="498.698" y="1438" type="line" smooth="yes"/>
      <point x="482.968" y="1438"/>
      <point x="471.732" y="1410"/>
      <point x="456.001" y="1376" type="curve" smooth="yes"/>
      <point x="181.843" y="762" type="line"/>
      <point x="181.843" y="1371" type="line" smooth="yes"/>
      <point x="181.843" y="1414"/>
      <point x="172.854" y="1438"/>
      <point x="156" y="1438" type="curve" smooth="yes"/>
      <point x="125" y="1438" type="line" smooth="yes"/>
      <point x="111" y="1438"/>
      <point x="103" y="1414"/>
      <point x="103" y="1371" type="curve" smooth="yes"/>
      <point x="103" y="67" type="line" smooth="yes"/>
      <point x="103" y="24"/>
      <point x="111" y="0"/>
    </contour>
    <contour>
      <point x="339" y="1455" type="move" name="top"/>
    </contour>
    <contour>
      <point x="339" y="0" type="move" name="bottom"/>
    </contour>
  </outline>
</glyph>
<glyph name="L" format="1">
  <advance width="559"/>
  <unicode hex="004C"/>
  <outline>
    <contour>
      <point x="125" y="0" type="curve" smooth="yes"/>
      <point x="461" y="0" type="line" smooth="yes"/>
      <point x="474" y="0"/>
      <point x="484" y="0"/>
      <point x="484" y="27" type="curve" smooth="yes"/>
      <point x="484" y="35" type="line" smooth="yes"/>
      <point x="484" y="60"/>
      <point x="474" y="60"/>
      <point x="461" y="60" type="curve" smooth="yes"/>
      <point x="195" y="60" type="line" smooth="yes"/>
      <point x="187" y="60"/>
      <point x="181" y="58"/>
      <point x="181" y="78" type="curve" smooth="yes"/>
      <point x="181" y="1391" type="line" smooth="yes"/>
      <point x="181" y="1434"/>
      <point x="173" y="1438"/>
      <point x="158" y="1438" type="curve" smooth="yes"/>
      <point x="125" y="1438" type="line" smooth="yes"/>
      <point x="111" y="1438"/>
      <point x="103" y="1434"/>
      <point x="103" y="1391" type="curve" smooth="yes"/>
      <point x="103" y="47" type="line" smooth="yes"/>
      <point x="103" y="4"/>
      <point x="111" y="0"/>
    </contour>
    <contour>
      <point x="280" y="1455" type="move" name="top"/>
    </contour>
    <contour>
      <point x="280" y="0" type="move" name="bottom"/>
    </contour>
  </outline>
</glyph>
<glyph name="M" format="1">
  <advance width="991"/>
  <unicode hex="004D"/>
  <outline>
    <contour>
      <point x="119" y="0" type="curve" smooth="yes"/>
      <point x="145" y="0" type="line" smooth="yes"/>
      <point x="159" y="0"/>
      <point x="167" y="24"/>
      <point x="169" y="67" type="curve" smooth="yes"/>
      <point x="200" y="1161" type="line"/>
      <point x="203.371" y="1165" type="line"/>
      <point x="439.788" y="67" type="line" smooth="yes"/>
      <point x="448.776" y="26"/>
      <point x="462.26" y="0"/>
      <point x="476.866" y="0" type="curve" smooth="yes"/>
      <point x="505.866" y="1" type="line" smooth="yes"/>
      <point x="520.473" y="1"/>
      <point x="536.204" y="26"/>
      <point x="545.192" y="67" type="curve" smooth="yes"/>
      <point x="785.396" y="1178" type="line"/>
      <point x="789.89" y="1177" type="line"/>
      <point x="823.845" y="67" type="line" smooth="yes"/>
      <point x="824.845" y="24"/>
      <point x="833.845" y="0"/>
      <point x="848.845" y="0" type="curve" smooth="yes"/>
      <point x="872.845" y="0" type="line" smooth="yes"/>
      <point x="887.845" y="0"/>
      <point x="894.845" y="24"/>
      <point x="893.845" y="67" type="curve" smooth="yes"/>
      <point x="851.89" y="1371" type="line" smooth="yes"/>
      <point x="850.89" y="1412"/>
      <point x="844.89" y="1435"/>
      <point x="830.89" y="1438" type="curve"/>
      <point x="793.89" y="1438" type="line"/>
      <point x="779.778" y="1435"/>
      <point x="766.294" y="1412"/>
      <point x="756.182" y="1371" type="curve"/>
      <point x="495.866" y="183" type="line"/>
      <point x="487.866" y="183" type="line"/>
      <point x="232.584" y="1371" type="line"/>
      <point x="222.472" y="1412"/>
      <point x="210.112" y="1435"/>
      <point x="195" y="1438" type="curve"/>
      <point x="159" y="1438" type="line"/>
      <point x="145" y="1435"/>
      <point x="138" y="1412"/>
      <point x="137" y="1371" type="curve" smooth="yes"/>
      <point x="97" y="67" type="line" smooth="yes"/>
      <point x="96" y="24"/>
      <point x="105" y="0"/>
    </contour>
  </outline>
</glyph>
<glyph name="N" format="1">
  <advance width="854"/>
  <unicode hex="004E"/>
  <outline>
    <contour>
      <point x="127" y="0" type="curve" smooth="yes"/>
      <point x="154" y="0" type="line" smooth="yes"/>
      <point x="169.73" y="0"/>
      <point x="179.843" y="14"/>
      <point x="179.843" y="57" type="curve" smooth="yes"/>
      <point x="179.843" y="1173" type="line"/>
      <point x="184.337" y="1182" type="line"/>
      <point x="691.081" y="19" type="line"/>
      <point x="695.575" y="6"/>
      <point x="701.193" y="0"/>
      <point x="710.182" y="0" type="curve" smooth="yes"/>
      <point x="729.182" y="0" type="line" smooth="yes"/>
      <point x="744.182" y="0"/>
      <point x="752.182" y="4"/>
      <point x="752.182" y="47" type="curve" smooth="yes"/>
      <point x="752.182" y="1391" type="line" smooth="yes"/>
      <point x="752.182" y="1434"/>
      <point x="744.182" y="1438"/>
      <point x="729.182" y="1438" type="curve" smooth="yes"/>
      <point x="700.07" y="1438" type="line" smooth="yes"/>
      <point x="683.216" y="1438"/>
      <point x="674.227" y="1434"/>
      <point x="674.227" y="1391" type="curve" smooth="yes"/>
      <point x="674.227" y="255" type="line"/>
      <point x="669.732" y="242" type="line"/>
      <point x="162.989" y="1420" type="line" smooth="yes"/>
      <point x="157.371" y="1432"/>
      <point x="152" y="1438"/>
      <point x="144" y="1438" type="curve" smooth="yes"/>
      <point x="127" y="1438" type="line" smooth="yes"/>
      <point x="111" y="1438"/>
      <point x="103" y="1434"/>
      <point x="103" y="1391" type="curve" smooth="yes"/>
      <point x="103" y="57" type="line" smooth="yes"/>
      <point x="103" y="14"/>
      <point x="111" y="0"/>
    </contour>
    <contour>
      <point x="427" y="1455" type="move" name="top"/>
    </contour>
    <contour>
      <point x="427" y="0" type="move" name="bottom"/>
    </contour>
  </outline>
</glyph>
<glyph name="O" format="1">
  <advance width="927"/>
  <unicode hex="004F"/>
  <outline>
    <contour>
      <point x="463.26" y="51" type="curve" smooth="yes"/>
      <point x="278.989" y="51"/>
      <point x="169" y="128"/>
      <point x="169" y="724" type="curve" smooth="yes"/>
      <point x="169" y="1252"/>
      <point x="274.495" y="1388"/>
      <point x="463.26" y="1388" type="curve" smooth="yes"/>
      <point x="654.272" y="1388"/>
      <point x="759" y="1273"/>
      <point x="759" y="724" type="curve" smooth="yes"/>
      <point x="759" y="114"/>
      <point x="649.777" y="51"/>
    </contour>
    <contour>
      <point x="463.26" y="-13" type="curve" smooth="yes"/>
      <point x="714.946" y="-13"/>
      <point x="836.643" y="85"/>
      <point x="836.643" y="724" type="curve" smooth="yes"/>
      <point x="836.643" y="1316"/>
      <point x="714.946" y="1451"/>
      <point x="463.26" y="1451" type="curve" smooth="yes"/>
      <point x="214.944" y="1451"/>
      <point x="91" y="1306"/>
      <point x="91" y="724" type="curve" smooth="yes"/>
      <point x="91" y="95"/>
      <point x="214.944" y="-13"/>
    </contour>
    <contour>
      <point x="464" y="1455" type="move" name="top"/>
    </contour>
  </outline>
</glyph>
<glyph name="P" format="1">
  <advance width="803"/>
  <unicode hex="0050"/>
  <outline>
    <contour>
      <point x="125" y="0" type="curve" smooth="yes"/>
      <point x="158" y="0" type="line" smooth="yes"/>
      <point x="173" y="0"/>
      <point x="181" y="6"/>
      <point x="181" y="42" type="curve" smooth="yes"/>
      <point x="181" y="546" type="line" smooth="yes"/>
      <point x="181" y="554"/>
      <point x="183" y="558"/>
      <point x="188" y="558" type="curve" smooth="yes"/>
      <point x="404" y="558" type="line" smooth="yes"/>
      <point x="586" y="558"/>
      <point x="714" y="578"/>
      <point x="714" y="994" type="curve" smooth="yes"/>
      <point x="714" y="1429"/>
      <point x="539" y="1438"/>
      <point x="351" y="1438" type="curve" smooth="yes"/>
      <point x="125" y="1438" type="line" smooth="yes"/>
      <point x="111" y="1438"/>
      <point x="103" y="1436"/>
      <point x="103" y="1393" type="curve" smooth="yes"/>
      <point x="103" y="42" type="line" smooth="yes"/>
      <point x="103" y="5"/>
      <point x="111" y="0"/>
    </contour>
    <contour>
      <point x="186" y="618" type="line" smooth="yes"/>
      <point x="181" y="618"/>
      <point x="181" y="623"/>
      <point x="181" y="628" type="curve" smooth="yes"/>
      <point x="181" y="1369" type="line" smooth="yes"/>
      <point x="181" y="1375"/>
      <point x="183" y="1378"/>
      <point x="187" y="1378" type="curve" smooth="yes"/>
      <point x="351" y="1378" type="line" smooth="yes"/>
      <point x="519" y="1378"/>
      <point x="637" y="1368"/>
      <point x="637" y="994" type="curve" smooth="yes"/>
      <point x="637" y="648"/>
      <point x="574" y="618"/>
      <point x="402" y="618" type="curve" smooth="yes"/>
    </contour>
  </outline>
</glyph>
<glyph name="Q" format="1">
  <advance width="926"/>
  <unicode hex="0051"/>
  <outline>
    <contour>
      <point x="672.373" y="-333" type="curve" smooth="yes"/>
      <point x="701.586" y="-324"/>
      <point x="692.598" y="-316"/>
      <point x="682.485" y="-282" type="curve" smooth="yes"/>
      <point x="601.586" y="4" type="line"/>
      <point x="761.643" y="53"/>
      <point x="835.643" y="216"/>
      <point x="835.643" y="724" type="curve" smooth="yes"/>
      <point x="835.643" y="1316"/>
      <point x="713.946" y="1451"/>
      <point x="462.26" y="1451" type="curve" smooth="yes"/>
      <point x="213.944" y="1451"/>
      <point x="90" y="1306"/>
      <point x="90" y="724" type="curve" smooth="yes"/>
      <point x="90" y="95"/>
      <point x="213.944" y="-13"/>
      <point x="462.26" y="-13" type="curve" smooth="yes"/>
      <point x="483.608" y="-13"/>
      <point x="516" y="-10"/>
      <point x="526" y="-7" type="curve"/>
      <point x="610.575" y="-305" type="line" smooth="yes"/>
      <point x="617" y="-327"/>
      <point x="623.315" y="-336.95075"/>
      <point x="632.460125" y="-339.784375" type="curve" smooth="yes"/>
      <point x="641.60525" y="-342.618"/>
      <point x="653.755" y="-338.5235"/>
    </contour>
    <contour>
      <point x="462.26" y="51" type="curve" smooth="yes"/>
      <point x="277.989" y="51"/>
      <point x="168" y="128"/>
      <point x="168" y="724" type="curve" smooth="yes"/>
      <point x="168" y="1252"/>
      <point x="273.495" y="1388"/>
      <point x="462.26" y="1388" type="curve" smooth="yes"/>
      <point x="653.272" y="1388"/>
      <point x="758" y="1273"/>
      <point x="758" y="724" type="curve" smooth="yes"/>
      <point x="758" y="114"/>
      <point x="648.777" y="51"/>
    </contour>
  </outline>
</glyph>
<glyph name="R" format="1">
  <advance width="843"/>
  <unicode hex="0052"/>
  <outline>
    <contour>
      <point x="126" y="0" type="curve" smooth="yes"/>
      <point x="159" y="0" type="line" smooth="yes"/>
      <point x="176" y="0"/>
      <point x="182" y="6"/>
      <point x="182" y="42" type="curve" smooth="yes"/>
      <point x="182" y="716" type="line" smooth="yes"/>
      <point x="182" y="724"/>
      <point x="184" y="728"/>
      <point x="190" y="728" type="curve" smooth="yes"/>
      <point x="386" y="728" type="line" smooth="yes"/>
      <point x="421" y="728"/>
      <point x="425" y="726"/>
      <point x="457" y="729" type="curve"/>
      <point x="542" y="729"/>
      <point x="673" y="694"/>
      <point x="673" y="489" type="curve" smooth="yes"/>
      <point x="673" y="56" type="line" smooth="yes"/>
      <point x="673" y="16"/>
      <point x="679" y="0"/>
      <point x="695" y="0" type="curve" smooth="yes"/>
      <point x="723" y="0" type="line" smooth="yes"/>
      <point x="736" y="0"/>
      <point x="748" y="15"/>
      <point x="748" y="56" type="curve" smooth="yes"/>
      <point x="748" y="491" type="line" smooth="yes"/>
      <point x="748" y="697"/>
      <point x="647" y="722"/>
      <point x="574" y="755" type="curve"/>
      <point x="570" y="756"/>
      <point x="569" y="758"/>
      <point x="569" y="760" type="curve" smooth="yes"/>
      <point x="569" y="763"/>
      <point x="572" y="766"/>
      <point x="576" y="768" type="curve" smooth="yes"/>
      <point x="685" y="815"/>
      <point x="755" y="897"/>
      <point x="755" y="1094" type="curve" smooth="yes"/>
      <point x="755" y="1425"/>
      <point x="568" y="1438"/>
      <point x="357" y="1438" type="curve" smooth="yes"/>
      <point x="126" y="1438" type="line" smooth="yes"/>
      <point x="112" y="1438"/>
      <point x="104" y="1436"/>
      <point x="104" y="1393" type="curve" smooth="yes"/>
      <point x="104" y="42" type="line" smooth="yes"/>
      <point x="104" y="5"/>
      <point x="112" y="0"/>
    </contour>
    <contour>
      <point x="188" y="788" type="line" smooth="yes"/>
      <point x="182" y="788"/>
      <point x="182" y="793"/>
      <point x="182" y="798" type="curve" smooth="yes"/>
      <point x="182" y="1369" type="line" smooth="yes"/>
      <point x="182" y="1375"/>
      <point x="184" y="1378"/>
      <point x="189" y="1378" type="curve" smooth="yes"/>
      <point x="357" y="1378" type="line" smooth="yes"/>
      <point x="546" y="1378"/>
      <point x="677" y="1358"/>
      <point x="677" y="1094" type="curve" smooth="yes"/>
      <point x="677" y="827"/>
      <point x="577" y="788"/>
      <point x="384" y="788" type="curve" smooth="yes"/>
    </contour>
    <contour>
      <point x="449" y="1455" type="move" name="top"/>
    </contour>
    <contour>
      <point x="449" y="0" type="move" name="bottom"/>
    </contour>
  </outline>
</glyph>
<glyph name="S" format="1">
  <advance width="735.907755004"/>
  <unicode hex="0053"/>
  <outline>
    <contour>
      <point x="78.9692516681" y="247"/>
      <point x="38.9692516681" y="197"/>
      <point x="57.9692516681" y="163" type="curve"/>
      <point x="130.969251668" y="39"/>
      <point x="229.938503336" y="-13"/>
      <point x="363.938503336" y="-13" type="curve" smooth="yes"/>
      <point x="548.938503336" y="-13"/>
      <point x="664.907755004" y="152"/>
      <point x="664.907755004" y="367" type="curve" smooth="yes"/>
      <point x="664.907755004" y="583"/>
      <point x="568.907755004" y="667"/>
      <point x="465.907755004" y="737" type="curve" smooth="yes"/>
      <point x="326.907755004" y="831" type="line" smooth="yes"/>
      <point x="258.907755004" y="878"/>
      <point x="173.907755004" y="947"/>
      <point x="173.907755004" y="1109" type="curve" smooth="yes"/>
      <point x="173.907755004" y="1263"/>
      <point x="243.938503336" y="1384"/>
      <point x="372.938503336" y="1388" type="curve" smooth="yes"/>
      <point x="465.938503336" y="1391"/>
      <point x="542.907755004" y="1352"/>
      <point x="595.907755004" y="1264" type="curve"/>
      <point x="604.907755004" y="1247"/>
      <point x="660.907755004" y="1280"/>
      <point x="638.907755004" y="1321" type="curve"/>
      <point x="582.907755004" y="1413"/>
      <point x="486.938503336" y="1455"/>
      <point x="369.938503336" y="1451" type="curve" smooth="yes"/>
      <point x="203.938503336" y="1445"/>
      <point x="97.9077550042" y="1305"/>
      <point x="97.9077550042" y="1102" type="curve" smooth="yes"/>
      <point x="97.9077550042" y="893"/>
      <point x="208.907755004" y="809"/>
      <point x="288.907755004" y="756" type="curve" smooth="yes"/>
      <point x="429.907755004" y="660" type="line" smooth="yes"/>
      <point x="520.907755004" y="598"/>
      <point x="588.907755004" y="536"/>
      <point x="588.907755004" y="360" type="curve" smooth="yes"/>
      <point x="588.907755004" y="194"/>
      <point x="506.938503336" y="51"/>
      <point x="366.938503336" y="51" type="curve" smooth="yes"/>
      <point x="258.938503336" y="51"/>
      <point x="168.969251668" y="100"/>
      <point x="101.969251668" y="226" type="curve"/>
    </contour>
    <contour>
      <point x="355.907755004" y="1454" type="move" name="top"/>
    </contour>
    <contour>
      <point x="355.907755004" y="1" type="move" name="bottom"/>
    </contour>
  </outline>
</glyph>
<glyph name="T" format="1">
  <advance width="559"/>
  <unicode hex="0054"/>
  <outline>
    <contour>
      <point x="264" y="0" type="curve" smooth="yes"/>
      <point x="296" y="0" type="line" smooth="yes"/>
      <point x="311" y="0"/>
      <point x="319" y="4"/>
      <point x="319" y="47" type="curve" smooth="yes"/>
      <point x="319" y="1346" type="line" smooth="yes"/>
      <point x="319" y="1366"/>
      <point x="322" y="1371"/>
      <point x="329" y="1371" type="curve" smooth="yes"/>
      <point x="508" y="1371" type="line" smooth="yes"/>
      <point x="524" y="1371"/>
      <point x="531" y="1371"/>
      <point x="531" y="1398" type="curve" smooth="yes"/>
      <point x="531" y="1404" type="line" smooth="yes"/>
      <point x="531" y="1438"/>
      <point x="524" y="1438"/>
      <point x="508" y="1438" type="curve" smooth="yes"/>
      <point x="51" y="1438" type="line" smooth="yes"/>
      <point x="36" y="1438"/>
      <point x="28" y="1438"/>
      <point x="28" y="1404" type="curve" smooth="yes"/>
      <point x="28" y="1398" type="line" smooth="yes"/>
      <point x="28" y="1371"/>
      <point x="36" y="1371"/>
      <point x="51" y="1371" type="curve" smooth="yes"/>
      <point x="232" y="1371" type="line" smooth="yes"/>
      <point x="239" y="1371"/>
      <point x="241" y="1366"/>
      <point x="241" y="1346" type="curve" smooth="yes"/>
      <point x="241" y="47" type="line" smooth="yes"/>
      <point x="241" y="4"/>
      <point x="249" y="0"/>
    </contour>
    <contour>
      <point x="280" y="1455" type="move" name="top"/>
    </contour>
    <contour>
      <point x="280" y="0" type="move" name="bottom"/>
    </contour>
    <contour>
      <point x="280" y="728" type="move" name="center"/>
    </contour>
  </outline>
</glyph>
<glyph name="U" format="1">
  <advance width="902"/>
  <unicode hex="0055"/>
  <outline>
    <contour>
      <point x="461" y="-13" type="curve" smooth="yes"/>
      <point x="679" y="-13"/>
      <point x="803" y="46"/>
      <point x="803" y="648" type="curve" smooth="yes"/>
      <point x="803" y="1391" type="line" smooth="yes"/>
      <point x="803" y="1434"/>
      <point x="795" y="1438"/>
      <point x="781" y="1438" type="curve" smooth="yes"/>
      <point x="748" y="1438" type="line" smooth="yes"/>
      <point x="733" y="1438"/>
      <point x="725" y="1434"/>
      <point x="725" y="1391" type="curve" smooth="yes"/>
      <point x="725" y="648" type="line" smooth="yes"/>
      <point x="725" y="99"/>
      <point x="644" y="51"/>
      <point x="460" y="51" type="curve" smooth="yes"/>
      <point x="279" y="51"/>
      <point x="177" y="106"/>
      <point x="177" y="648" type="curve" smooth="yes"/>
      <point x="177" y="1391" type="line" smooth="yes"/>
      <point x="177" y="1434"/>
      <point x="168" y="1438"/>
      <point x="154" y="1438" type="curve" smooth="yes"/>
      <point x="122" y="1438" type="line" smooth="yes"/>
      <point x="107" y="1438"/>
      <point x="99" y="1434"/>
      <point x="99" y="1391" type="curve" smooth="yes"/>
      <point x="99" y="648" type="line" smooth="yes"/>
      <point x="99" y="45"/>
      <point x="240" y="-13"/>
    </contour>
  </outline>
</glyph>
<glyph name="V" format="1">
  <advance width="721.559855983"/>
  <unicode hex="0056"/>
  <outline>
    <contour>
      <point x="352.522025188" y="0" type="curve"/>
      <point x="389.522025188" y="0" type="line"/>
      <point x="404.522025188" y="3"/>
      <point x="414.522025188" y="16"/>
      <point x="421.522025188" y="57" type="curve" smooth="yes"/>
      <point x="656.522025188" y="1371" type="line" smooth="yes"/>
      <point x="664.522025188" y="1414"/>
      <point x="660.522025188" y="1438"/>
      <point x="645.522025188" y="1438" type="curve" smooth="yes"/>
      <point x="611" y="1438" type="line" smooth="yes"/>
      <point x="596" y="1438"/>
      <point x="587" y="1419"/>
      <point x="580" y="1376" type="curve" smooth="yes"/>
      <point x="373" y="121" type="line"/>
      <point x="145" y="1376" type="line" smooth="yes"/>
      <point x="137" y="1419"/>
      <point x="126" y="1438"/>
      <point x="112" y="1438" type="curve" smooth="yes"/>
      <point x="75.5215251875" y="1438" type="line" smooth="yes"/>
      <point x="61.5215251875" y="1438"/>
      <point x="56.5215251875" y="1414"/>
      <point x="65.5215251875" y="1371" type="curve" smooth="yes"/>
      <point x="317.522025188" y="57" type="line"/>
      <point x="326.522025188" y="16"/>
      <point x="339.522025188" y="3"/>
    </contour>
  </outline>
</glyph>
<glyph name="W" format="1">
  <advance width="1185.39570137"/>
  <unicode hex="0057"/>
  <outline>
    <contour>
      <point x="304.521525188" y="0" type="curve"/>
      <point x="338.521525188" y="0" type="line"/>
      <point x="353.521525188" y="3"/>
      <point x="359.521525188" y="26"/>
      <point x="366.521525188" y="67" type="curve" smooth="yes"/>
      <point x="587.521525188" y="1324" type="line"/>
      <point x="822.561550375" y="67" type="line" smooth="yes"/>
      <point x="830.521525188" y="25"/>
      <point x="843.910550375" y="3"/>
      <point x="860.764550375" y="0" type="curve"/>
      <point x="899.764550375" y="0" type="line"/>
      <point x="913.764550375" y="3"/>
      <point x="924.764550375" y="26"/>
      <point x="930.764550375" y="67" type="curve" smooth="yes"/>
      <point x="1110.52152519" y="1371" type="line" smooth="yes"/>
      <point x="1117.52152519" y="1414"/>
      <point x="1115.52152519" y="1438"/>
      <point x="1100.52152519" y="1438" type="curve" smooth="yes"/>
      <point x="1067.52152519" y="1438" type="line" smooth="yes"/>
      <point x="1053.52152519" y="1438"/>
      <point x="1040.52152519" y="1414"/>
      <point x="1034.52152519" y="1371" type="curve" smooth="yes"/>
      <point x="878.521525188" y="157" type="line"/>
      <point x="650.521525188" y="1360" type="line" smooth="yes"/>
      <point x="642.521525188" y="1403"/>
      <point x="628.521525188" y="1413"/>
      <point x="611.521525188" y="1413" type="curve" smooth="yes"/>
      <point x="562.521525188" y="1413" type="line" smooth="yes"/>
      <point x="548.521525188" y="1413"/>
      <point x="532.521525188" y="1403"/>
      <point x="524.521525188" y="1360" type="curve" smooth="yes"/>
      <point x="322.521525188" y="192" type="line"/>
      <point x="155.521525188" y="1371" type="line" smooth="yes"/>
      <point x="148.521525188" y="1414"/>
      <point x="134.521525188" y="1438"/>
      <point x="119.521525188" y="1438" type="curve" smooth="yes"/>
      <point x="85.5215251875" y="1438" type="line" smooth="yes"/>
      <point x="71.5215251875" y="1438"/>
      <point x="66.5215251875" y="1414"/>
      <point x="75.5215251875" y="1371" type="curve"/>
      <point x="271.521525188" y="67" type="line" smooth="yes"/>
      <point x="278.521525188" y="26"/>
      <point x="290.521525188" y="3"/>
    </contour>
    <contour>
      <point x="586.521550375" y="1455" type="move" name="top"/>
    </contour>
  </outline>
</glyph>
<glyph name="X" format="1">
  <advance width="825"/>
  <unicode hex="0058"/>
  <outline>
    <contour>
      <point x="94" y="0" type="curve" smooth="yes"/>
      <point x="127" y="0" type="line" smooth="yes"/>
      <point x="143.854" y="0"/>
      <point x="155.09" y="5"/>
      <point x="171.944" y="47" type="curve" smooth="yes"/>
      <point x="421.383" y="658" type="line"/>
      <point x="647.227" y="47" type="line" smooth="yes"/>
      <point x="662.957" y="4"/>
      <point x="680.935" y="0"/>
      <point x="697.789" y="0" type="curve" smooth="yes"/>
      <point x="721.789" y="0" type="line" smooth="yes"/>
      <point x="732.789" y="0"/>
      <point x="738.789" y="9"/>
      <point x="738.789" y="24" type="curve" smooth="yes"/>
      <point x="738.789" y="35"/>
      <point x="735.789" y="50"/>
      <point x="729.789" y="67" type="curve" smooth="yes"/>
      <point x="471.945" y="750" type="line"/>
      <point x="729.789" y="1383" type="line" smooth="yes"/>
      <point x="734.789" y="1397"/>
      <point x="736.789" y="1408"/>
      <point x="736.789" y="1416" type="curve" smooth="yes"/>
      <point x="736.789" y="1431"/>
      <point x="730.789" y="1438"/>
      <point x="718.789" y="1438" type="curve" smooth="yes"/>
      <point x="687.676" y="1438" type="line" smooth="yes"/>
      <point x="670.822" y="1438"/>
      <point x="655.092" y="1432"/>
      <point x="639.362" y="1390" type="curve" smooth="yes"/>
      <point x="424.754" y="825" type="line"/>
      <point x="214.641" y="1390" type="line" smooth="yes"/>
      <point x="198.91" y="1433"/>
      <point x="184.304" y="1438"/>
      <point x="167.45" y="1438" type="curve" smooth="yes"/>
      <point x="128.124" y="1438" type="line" smooth="yes"/>
      <point x="121" y="1438"/>
      <point x="117" y="1432"/>
      <point x="117" y="1420" type="curve" smooth="yes"/>
      <point x="117" y="1409"/>
      <point x="122" y="1392"/>
      <point x="128.124" y="1371" type="curve"/>
      <point x="366.327" y="748" type="line"/>
      <point x="93" y="67" type="line" smooth="yes"/>
      <point x="86" y="47"/>
      <point x="83" y="31"/>
      <point x="83" y="20" type="curve" smooth="yes"/>
      <point x="83" y="7"/>
      <point x="88" y="0"/>
    </contour>
  </outline>
</glyph>
<glyph name="Y" format="1">
  <advance width="615"/>
  <unicode hex="0059"/>
  <outline>
    <contour>
      <point x="293" y="0" type="curve" smooth="yes"/>
      <point x="326" y="0" type="line" smooth="yes"/>
      <point x="341" y="0"/>
      <point x="348" y="10"/>
      <point x="348" y="53" type="curve" smooth="yes"/>
      <point x="348" y="517" type="line"/>
      <point x="562" y="1381" type="line" smooth="yes"/>
      <point x="568" y="1399"/>
      <point x="568" y="1407"/>
      <point x="568" y="1418" type="curve" smooth="yes"/>
      <point x="568" y="1431"/>
      <point x="562" y="1438"/>
      <point x="547" y="1438" type="curve" smooth="yes"/>
      <point x="528" y="1438" type="line" smooth="yes"/>
      <point x="512" y="1438"/>
      <point x="496" y="1425"/>
      <point x="490" y="1401" type="curve" smooth="yes"/>
      <point x="313" y="659" type="line"/>
      <point x="129" y="1401" type="line" smooth="yes"/>
      <point x="122" y="1430"/>
      <point x="103" y="1438"/>
      <point x="89" y="1438" type="curve" smooth="yes"/>
      <point x="70" y="1438" type="line" smooth="yes"/>
      <point x="56" y="1438"/>
      <point x="48" y="1432"/>
      <point x="48" y="1420" type="curve" smooth="yes"/>
      <point x="48" y="1409"/>
      <point x="49" y="1401"/>
      <point x="56" y="1381" type="curve" smooth="yes"/>
      <point x="270" y="513" type="line"/>
      <point x="270" y="53" type="line" smooth="yes"/>
      <point x="270" y="10"/>
      <point x="278" y="0"/>
    </contour>
    <contour>
      <point x="308" y="1455" type="move" name="top"/>
    </contour>
  </outline>
</glyph>
<glyph name="Z" format="1">
  <advance width="614"/>
  <unicode hex="005A"/>
  <outline>
    <contour>
      <point x="103" y="0" type="curve" smooth="yes"/>
      <point x="533" y="0" type="line" smooth="yes"/>
      <point x="546" y="0"/>
      <point x="555" y="0"/>
      <point x="555" y="27" type="curve" smooth="yes"/>
      <point x="555" y="33" type="line" smooth="yes"/>
      <point x="555" y="60"/>
      <point x="546" y="60"/>
      <point x="533" y="60" type="curve" smooth="yes"/>
      <point x="180" y="60" type="line" smooth="yes"/>
      <point x="174" y="60"/>
      <point x="173" y="66"/>
      <point x="173" y="74" type="curve" smooth="yes"/>
      <point x="173" y="82"/>
      <point x="175" y="92"/>
      <point x="178" y="102" type="curve" smooth="yes"/>
      <point x="536" y="1326" type="line" smooth="yes"/>
      <point x="540" y="1340"/>
      <point x="548" y="1363"/>
      <point x="548" y="1406" type="curve" smooth="yes"/>
      <point x="548" y="1411" type="line" smooth="yes"/>
      <point x="548" y="1438"/>
      <point x="539" y="1438"/>
      <point x="525" y="1438" type="curve" smooth="yes"/>
      <point x="107" y="1438" type="line" smooth="yes"/>
      <point x="92" y="1438"/>
      <point x="84" y="1438"/>
      <point x="84" y="1411" type="curve" smooth="yes"/>
      <point x="84" y="1405" type="line" smooth="yes"/>
      <point x="84" y="1378"/>
      <point x="92" y="1378"/>
      <point x="107" y="1378" type="curve" smooth="yes"/>
      <point x="452" y="1378" type="line" smooth="yes"/>
      <point x="460" y="1378"/>
      <point x="464" y="1369"/>
      <point x="464" y="1358" type="curve" smooth="yes"/>
      <point x="464" y="1348"/>
      <point x="461" y="1337"/>
      <point x="458" y="1326" type="curve" smooth="yes"/>
      <point x="87" y="69" type="line" smooth="yes"/>
      <point x="83" y="55"/>
      <point x="81" y="54"/>
      <point x="81" y="30" type="curve" smooth="yes"/>
      <point x="81" y="27" type="line" smooth="yes"/>
      <point x="81" y="0"/>
      <point x="89" y="0"/>
    </contour>
    <contour>
      <point x="317" y="1455" type="move" name="top"/>
    </contour>
  </outline>
</glyph>
<glyph name="bracketleft" format="1">
  <advance width="433"/>
  <unicode hex="005B"/>
  <outline>
    <contour>
      <point x="130" y="-65" type="curve" smooth="yes"/>
      <point x="325" y="-65" type="line" smooth="yes"/>
      <point x="339" y="-65"/>
      <point x="347" y="-51"/>
      <point x="347" y="-8" type="curve" smooth="yes"/>
      <point x="347" y="41" type="line" smooth="yes"/>
      <point x="347" y="84"/>
      <point x="339" y="98"/>
      <point x="325" y="98" type="curve" smooth="yes"/>
      <point x="190" y="98" type="line" smooth="yes"/>
      <point x="183" y="98"/>
      <point x="181" y="105"/>
      <point x="181" y="125" type="curve" smooth="yes"/>
      <point x="181" y="1317" type="line" smooth="yes"/>
      <point x="181" y="1337"/>
      <point x="183" y="1344"/>
      <point x="190" y="1344" type="curve" smooth="yes"/>
      <point x="325" y="1344" type="line" smooth="yes"/>
      <point x="339" y="1344"/>
      <point x="347" y="1358"/>
      <point x="347" y="1401" type="curve" smooth="yes"/>
      <point x="347" y="1460" type="line" smooth="yes"/>
      <point x="347" y="1503"/>
      <point x="339" y="1517"/>
      <point x="325" y="1517" type="curve" smooth="yes"/>
      <point x="130" y="1517" type="line" smooth="yes"/>
      <point x="114" y="1517"/>
      <point x="103" y="1483"/>
      <point x="103" y="1440" type="curve" smooth="yes"/>
      <point x="103" y="12" type="line" smooth="yes"/>
      <point x="103" y="-31"/>
      <point x="114" y="-65"/>
    </contour>
  </outline>
</glyph>
<glyph name="backslash" format="1">
  <advance width="505.522738947"/>
  <unicode hex="005C"/>
  <outline>
    <contour>
      <point x="357.617044797" y="-205" type="curve" smooth="yes"/>
      <point x="413.617044797" y="-205" type="line" smooth="yes"/>
      <point x="418.617044797" y="-205"/>
      <point x="423.617044797" y="-187"/>
      <point x="420.617044797" y="-170" type="curve" smooth="yes"/>
      <point x="187.617044797" y="1612" type="line" smooth="yes"/>
      <point x="184.617044797" y="1633"/>
      <point x="178.617044797" y="1647"/>
      <point x="171.617044797" y="1647" type="curve" smooth="yes"/>
      <point x="114.617044797" y="1647" type="line" smooth="yes"/>
      <point x="108.617044797" y="1647"/>
      <point x="105.617044797" y="1629"/>
      <point x="107.617044797" y="1612" type="curve" smooth="yes"/>
      <point x="340.617044797" y="-170" type="line" smooth="yes"/>
      <point x="343.617044797" y="-191"/>
      <point x="351.617044797" y="-205"/>
    </contour>
  </outline>
</glyph>
<glyph name="asciicircum" format="1">
  <advance width="1030.95346414"/>
  <unicode hex="005E"/>
  <outline>
    <contour>
      <point x="143.224930347" y="201" type="line" smooth="yes"/>
      <point x="179.224930347" y="201"/>
      <point x="185.224930347" y="215"/>
      <point x="204.224930347" y="270" type="curve" smooth="yes"/>
      <point x="492.224930347" y="1093" type="line" smooth="yes"/>
      <point x="501.224930347" y="1118"/>
      <point x="504.224930347" y="1124"/>
      <point x="513.224930347" y="1124" type="curve" smooth="yes"/>
      <point x="522.224930347" y="1124"/>
      <point x="525.224930347" y="1118"/>
      <point x="534.224930347" y="1093" type="curve" smooth="yes"/>
      <point x="830.224930347" y="270" type="line" smooth="yes"/>
      <point x="850.224930347" y="215"/>
      <point x="860.224930347" y="201"/>
      <point x="886.224930347" y="201" type="curve" smooth="yes"/>
      <point x="899.224930347" y="201" type="line" smooth="yes"/>
      <point x="935.224930347" y="201"/>
      <point x="931.224930347" y="239"/>
      <point x="920.224930347" y="269" type="curve" smooth="yes"/>
      <point x="603.224930347" y="1139" type="line" smooth="yes"/>
      <point x="585.224930347" y="1182"/>
      <point x="573.224930347" y="1207"/>
      <point x="526.224930347" y="1207" type="curve" smooth="yes"/>
      <point x="501.224930347" y="1207" type="line" smooth="yes"/>
      <point x="454.224930347" y="1207"/>
      <point x="439.224930347" y="1182"/>
      <point x="422.224930347" y="1140" type="curve" smooth="yes"/>
      <point x="111.224930347" y="268" type="line" smooth="yes"/>
      <point x="99.2249303473" y="236"/>
      <point x="96.2249303473" y="201"/>
      <point x="131.224930347" y="201" type="curve" smooth="yes"/>
    </contour>
  </outline>
</glyph>
<glyph name="underscore" format="1">
  <advance width="540"/>
  <unicode hex="005F"/>
  <outline>
    <contour>
      <point x="14" y="0"/>
      <point x="24" y="0"/>
      <point x="37" y="0" type="curve" smooth="yes"/>
      <point x="507" y="0" type="line" smooth="yes"/>
      <point x="520" y="0"/>
      <point x="530" y="0"/>
      <point x="530" y="27" type="curve" smooth="yes"/>
      <point x="530" y="35" type="line" smooth="yes"/>
      <point x="530" y="60"/>
      <point x="520" y="60"/>
      <point x="507" y="60" type="curve" smooth="yes"/>
      <point x="37" y="60" type="line" smooth="yes"/>
      <point x="24" y="60"/>
      <point x="14" y="60"/>
      <point x="14" y="33" type="curve" smooth="yes"/>
      <point x="14" y="25" type="line" smooth="yes"/>
    </contour>
    <contour>
      <point x="281.0" y="1455.0" type="move" name="top"/>
    </contour>
    <contour>
      <point x="281.0" y="0.0" type="move" name="bottom"/>
    </contour>
  </outline>
</glyph>
<glyph name="grave" format="1">
  <advance width="595"/>
  <unicode hex="0060"/>
  <outline>
    <contour>
      <point x="453" y="1166" type="curve" smooth="yes"/>
      <point x="466" y="1166" type="line" smooth="yes"/>
      <point x="476" y="1166"/>
      <point x="480" y="1171"/>
      <point x="480" y="1198" type="curve" smooth="yes"/>
      <point x="480" y="1207"/>
      <point x="480" y="1219"/>
      <point x="479" y="1233" type="curve" smooth="yes"/>
      <point x="459" y="1543" type="line" smooth="yes"/>
      <point x="455" y="1586"/>
      <point x="449" y="1598"/>
      <point x="433" y="1598" type="curve" smooth="yes"/>
      <point x="377" y="1598" type="line" smooth="yes"/>
      <point x="370" y="1598"/>
      <point x="367" y="1586"/>
      <point x="367" y="1570" type="curve" smooth="yes"/>
      <point x="367" y="1559"/>
      <point x="369" y="1545"/>
      <point x="371" y="1533" type="curve" smooth="yes"/>
      <point x="433" y="1205" type="line" smooth="yes"/>
      <point x="436" y="1188"/>
      <point x="439" y="1166"/>
    </contour>
  </outline>
</glyph>
<glyph name="a" format="1">
  <advance width="645"/>
  <unicode hex="0061"/>
  <outline>
    <contour>
      <point x="273" y="-12" type="curve" smooth="yes"/>
      <point x="394" y="-12"/>
      <point x="456" y="85"/>
      <point x="488" y="238" type="curve" smooth="yes"/>
      <point x="489" y="245"/>
      <point x="492" y="249"/>
      <point x="493" y="249" type="curve" smooth="yes"/>
      <point x="496" y="249"/>
      <point x="497" y="246"/>
      <point x="498" y="235" type="curve" smooth="yes"/>
      <point x="501" y="193"/>
      <point x="511" y="70"/>
      <point x="514" y="36" type="curve" smooth="yes"/>
      <point x="516" y="15"/>
      <point x="524" y="-4"/>
      <point x="534" y="-4" type="curve" smooth="yes"/>
      <point x="540" y="-4" type="line" smooth="yes"/>
      <point x="552" y="-4"/>
      <point x="558" y="10"/>
      <point x="558" y="45" type="curve" smooth="yes"/>
      <point x="558" y="656" type="line" smooth="yes"/>
      <point x="558" y="905"/>
      <point x="491" y="1019"/>
      <point x="325" y="1019" type="curve" smooth="yes"/>
      <point x="170" y="1019"/>
      <point x="133" y="932"/>
      <point x="95" y="824" type="curve" smooth="yes"/>
      <point x="91" y="813"/>
      <point x="84" y="786"/>
      <point x="84" y="768" type="curve" smooth="yes"/>
      <point x="84" y="736"/>
      <point x="99" y="731"/>
      <point x="116" y="731" type="curve" smooth="yes"/>
      <point x="131" y="731"/>
      <point x="140" y="753"/>
      <point x="148" y="780" type="curve" smooth="yes"/>
      <point x="176" y="875"/>
      <point x="205" y="957"/>
      <point x="327" y="957" type="curve" smooth="yes"/>
      <point x="456" y="957"/>
      <point x="479" y="823"/>
      <point x="479" y="668" type="curve" smooth="yes"/>
      <point x="479" y="608" type="line"/>
      <point x="411" y="593"/>
      <point x="71" y="584"/>
      <point x="71" y="238" type="curve" smooth="yes"/>
      <point x="71" y="92"/>
      <point x="126" y="-12"/>
    </contour>
    <contour>
      <point x="281" y="50" type="curve" smooth="yes"/>
      <point x="178" y="50"/>
      <point x="141" y="122"/>
      <point x="140" y="242" type="curve" smooth="yes"/>
      <point x="139" y="374"/>
      <point x="179" y="500"/>
      <point x="403" y="540" type="curve" smooth="yes"/>
      <point x="406" y="541"/>
      <point x="474" y="551"/>
      <point x="475" y="551" type="curve" smooth="yes"/>
      <point x="481" y="551"/>
      <point x="481" y="507"/>
      <point x="481" y="493" type="curve" smooth="yes"/>
      <point x="481" y="245"/>
      <point x="422" y="50"/>
    </contour>
    <contour>
      <point x="293" y="1006" type="move" name="top"/>
    </contour>
  </outline>
</glyph>
<glyph name="b" format="1">
  <advance width="662"/>
  <unicode hex="0062"/>
  <outline>
    <contour>
      <point x="351" y="-21" type="curve" smooth="yes"/>
      <point x="450" y="-21"/>
      <point x="576" y="107"/>
      <point x="576" y="504" type="curve" smooth="yes"/>
      <point x="576" y="912"/>
      <point x="469" y="1052"/>
      <point x="361" y="1052" type="curve" smooth="yes"/>
      <point x="292" y="1052"/>
      <point x="220" y="989"/>
      <point x="183" y="857" type="curve"/>
      <point x="183" y="857"/>
      <point x="182" y="853"/>
      <point x="181" y="853" type="curve"/>
      <point x="181" y="853"/>
      <point x="180" y="854"/>
      <point x="180" y="861" type="curve" smooth="yes"/>
      <point x="180" y="1371" type="line" smooth="yes"/>
      <point x="180" y="1414"/>
      <point x="172" y="1438"/>
      <point x="157" y="1438" type="curve" smooth="yes"/>
      <point x="125" y="1438" type="line" smooth="yes"/>
      <point x="111" y="1438"/>
      <point x="103" y="1414"/>
      <point x="103" y="1371" type="curve" smooth="yes"/>
      <point x="103" y="53" type="line" smooth="yes"/>
      <point x="103" y="10"/>
      <point x="107" y="0"/>
      <point x="121" y="0" type="curve" smooth="yes"/>
      <point x="125" y="0" type="line" smooth="yes"/>
      <point x="140" y="0"/>
      <point x="146" y="18"/>
      <point x="156" y="109" type="curve" smooth="yes"/>
      <point x="158" y="129"/>
      <point x="162" y="184"/>
      <point x="165" y="201" type="curve"/>
      <point x="166" y="210"/>
      <point x="167" y="212"/>
      <point x="167" y="212" type="curve"/>
      <point x="168" y="212"/>
      <point x="169" y="209"/>
      <point x="170" y="207" type="curve"/>
      <point x="210" y="43"/>
      <point x="282" y="-21"/>
    </contour>
    <contour>
      <point x="340" y="43" type="curve" smooth="yes"/>
      <point x="252" y="43"/>
      <point x="180" y="247"/>
      <point x="180" y="504" type="curve" smooth="yes"/>
      <point x="180" y="784"/>
      <point x="267" y="990"/>
      <point x="350" y="990" type="curve" smooth="yes"/>
      <point x="431" y="990"/>
      <point x="499" y="849"/>
      <point x="499" y="504" type="curve" smooth="yes"/>
      <point x="499" y="198"/>
      <point x="426" y="43"/>
    </contour>
  </outline>
</glyph>
<glyph name="c" format="1">
  <advance width="614"/>
  <unicode hex="0063"/>
  <outline>
    <contour>
      <point x="339.0" y="-20.0" type="curve" smooth="yes"/>
      <point x="375.0" y="-19.0"/>
      <point x="417.0" y="-12.0"/>
      <point x="448.0" y="2.0" type="curve"/>
      <point x="457" y="13" type="line"/>
      <point x="457" y="52" type="line"/>
      <point x="448.0" y="62.0" type="line"/>
      <point x="414.0" y="50.0"/>
      <point x="373.0" y="43.0"/>
      <point x="344.0" y="43.0" type="curve" smooth="yes"/>
      <point x="249.0" y="43.0"/>
      <point x="162.0" y="111.0"/>
      <point x="162.0" y="514.0" type="curve" smooth="yes"/>
      <point x="162.0" y="943.0"/>
      <point x="256.0" y="984.0"/>
      <point x="338.0" y="989.0" type="curve" smooth="yes"/>
      <point x="370.0" y="991.0"/>
      <point x="413.0" y="983.0"/>
      <point x="448.0" y="973.0" type="curve"/>
      <point x="455.0" y="983.0" type="line"/>
      <point x="455.0" y="1023.0" type="line"/>
      <point x="448.0" y="1034.0" type="line"/>
      <point x="412.0" y="1048.0"/>
      <point x="365.0" y="1052.0"/>
      <point x="339.0" y="1052.0" type="curve" smooth="yes"/>
      <point x="227.0" y="1052.0"/>
      <point x="84.0" y="991.0"/>
      <point x="84.0" y="514.0" type="curve" smooth="yes"/>
      <point x="84.0" y="43.0"/>
      <point x="228.0" y="-22.0"/>
    </contour>
  </outline>
</glyph>
<glyph name="d" format="1">
  <advance width="681"/>
  <unicode hex="0064"/>
  <outline>
    <contour>
      <point x="317" y="-13" type="curve" smooth="yes"/>
      <point x="415" y="-13"/>
      <point x="476" y="50"/>
      <point x="519" y="211" type="curve" smooth="yes"/>
      <point x="520" y="217"/>
      <point x="522" y="222"/>
      <point x="523" y="228" type="curve"/>
      <point x="524" y="224"/>
      <point x="525" y="217"/>
      <point x="526" y="209" type="curve" smooth="yes"/>
      <point x="530" y="174"/>
      <point x="535" y="100"/>
      <point x="543" y="53" type="curve" smooth="yes"/>
      <point x="549" y="22"/>
      <point x="556" y="0"/>
      <point x="564" y="0" type="curve" smooth="yes"/>
      <point x="569" y="0" type="line" smooth="yes"/>
      <point x="584" y="0"/>
      <point x="587" y="24"/>
      <point x="587" y="67" type="curve" smooth="yes"/>
      <point x="587" y="1371" type="line" smooth="yes"/>
      <point x="587" y="1414"/>
      <point x="578" y="1438"/>
      <point x="564" y="1438" type="curve" smooth="yes"/>
      <point x="533" y="1438" type="line" smooth="yes"/>
      <point x="517" y="1438"/>
      <point x="509" y="1414"/>
      <point x="509" y="1371" type="curve" smooth="yes"/>
      <point x="509" y="826" type="line"/>
      <point x="509" y="813" type="line"/>
      <point x="508" y="818"/>
      <point x="506" y="823"/>
      <point x="505" y="826" type="curve"/>
      <point x="463" y="956"/>
      <point x="395" y="1018"/>
      <point x="319" y="1018" type="curve" smooth="yes"/>
      <point x="185" y="1018"/>
      <point x="74" y="956"/>
      <point x="74" y="505" type="curve" smooth="yes"/>
      <point x="74" y="43"/>
      <point x="205" y="-13"/>
    </contour>
    <contour>
      <point x="331" y="49" type="curve" smooth="yes"/>
      <point x="224" y="45"/>
      <point x="152" y="142"/>
      <point x="152" y="505" type="curve" smooth="yes"/>
      <point x="152" y="892"/>
      <point x="235" y="965"/>
      <point x="331" y="956" type="curve" smooth="yes"/>
      <point x="423" y="947"/>
      <point x="509.305" y="786"/>
      <point x="509.305" y="504" type="curve" smooth="yes"/>
      <point x="509.305" y="246"/>
      <point x="430" y="53"/>
    </contour>
    <contour>
      <point x="339" y="503" type="move" name="center"/>
    </contour>
  </outline>
</glyph>
<glyph name="e" format="1">
  <advance width="672"/>
  <unicode hex="0065"/>
  <outline>
    <contour>
      <point x="353.888" y="-21" type="curve" smooth="yes"/>
      <point x="504.451" y="-21"/>
      <point x="572.058" y="111"/>
      <point x="572.058" y="247" type="curve" smooth="yes"/>
      <point x="572.058" y="280" type="line" smooth="yes"/>
      <point x="572.058" y="290"/>
      <point x="567.058" y="293"/>
      <point x="562.058" y="293" type="curve" smooth="yes"/>
      <point x="523.058" y="293" type="line" smooth="yes"/>
      <point x="521.058" y="293"/>
      <point x="519.058" y="282"/>
      <point x="517.934" y="275" type="curve" smooth="yes"/>
      <point x="511.192" y="191"/>
      <point x="494.338" y="43"/>
      <point x="359.506" y="43" type="curve" smooth="yes"/>
      <point x="201.079" y="43"/>
      <point x="165.124" y="317"/>
      <point x="164" y="477" type="curve" smooth="yes"/>
      <point x="164" y="485"/>
      <point x="166.247" y="487"/>
      <point x="169.618" y="487" type="curve" smooth="yes"/>
      <point x="539.058" y="487" type="line" smooth="yes"/>
      <point x="578.058" y="487"/>
      <point x="584.058" y="530"/>
      <point x="584.058" y="565" type="curve" smooth="yes"/>
      <point x="584.058" y="607" type="line"/>
      <point x="571.058" y="861"/>
      <point x="508.945" y="1052"/>
      <point x="346.023" y="1052" type="curve" smooth="yes"/>
      <point x="220.18" y="1052"/>
      <point x="84" y="932"/>
      <point x="84" y="504" type="curve" smooth="yes"/>
      <point x="84" y="106"/>
      <point x="205.573" y="-21"/>
    </contour>
    <contour>
      <point x="168.494" y="539" type="line" smooth="yes"/>
      <point x="166.247" y="539"/>
      <point x="166.247" y="598"/>
      <point x="166.247" y="602" type="curve" smooth="yes"/>
      <point x="188.719" y="906"/>
      <point x="264" y="990"/>
      <point x="344.9" y="990" type="curve" smooth="yes"/>
      <point x="467.372" y="990"/>
      <point x="510.069" y="802"/>
      <point x="519.058" y="541" type="curve"/>
      <point x="519.058" y="539" type="line"/>
    </contour>
    <contour>
      <point x="336" y="1006" type="move" name="top"/>
    </contour>
    <contour>
      <point x="336" y="0" type="move" name="bottom"/>
    </contour>
    <contour>
      <point x="605" y="10" type="move" name="ogonek"/>
    </contour>
  </outline>
</glyph>
<glyph name="f" format="1">
  <advance width="506"/>
  <unicode hex="0066"/>
  <outline>
    <contour>
      <point x="193" y="0" type="curve" smooth="yes"/>
      <point x="219" y="0" type="line" smooth="yes"/>
      <point x="233" y="0"/>
      <point x="244" y="34"/>
      <point x="244" y="77" type="curve" smooth="yes"/>
      <point x="244" y="821" type="line" smooth="yes"/>
      <point x="244" y="841"/>
      <point x="246" y="858"/>
      <point x="253" y="858" type="curve" smooth="yes"/>
      <point x="387" y="858" type="line" smooth="yes"/>
      <point x="401" y="858"/>
      <point x="410" y="867"/>
      <point x="410" y="910" type="curve" smooth="yes"/>
      <point x="410" y="951" type="line" smooth="yes"/>
      <point x="410" y="994"/>
      <point x="401" y="1006"/>
      <point x="387" y="1006" type="curve" smooth="yes"/>
      <point x="248" y="1006" type="line" smooth="yes"/>
      <point x="246" y="1006"/>
      <point x="244" y="1009"/>
      <point x="244" y="1012" type="curve" smooth="yes"/>
      <point x="244" y="1090" type="line" smooth="yes"/>
      <point x="244" y="1229"/>
      <point x="262" y="1310"/>
      <point x="338" y="1310" type="curve" smooth="yes"/>
      <point x="361" y="1310"/>
      <point x="402" y="1280"/>
      <point x="404" y="1280" type="curve" smooth="yes"/>
      <point x="415" y="1280"/>
      <point x="417" y="1294"/>
      <point x="417" y="1331" type="curve" smooth="yes"/>
      <point x="417" y="1375" type="line" smooth="yes"/>
      <point x="417" y="1403"/>
      <point x="411" y="1431"/>
      <point x="401" y="1438" type="curve"/>
      <point x="395" y="1441"/>
      <point x="353" y="1475"/>
      <point x="314" y="1475" type="curve" smooth="yes"/>
      <point x="241" y="1475"/>
      <point x="167" y="1381"/>
      <point x="167" y="1041" type="curve" smooth="yes"/>
      <point x="167" y="1019"/>
      <point x="167" y="1006"/>
      <point x="159" y="1006" type="curve" smooth="yes"/>
      <point x="109" y="1006" type="line" smooth="yes"/>
      <point x="94" y="1006"/>
      <point x="85" y="988"/>
      <point x="85" y="945" type="curve" smooth="yes"/>
      <point x="85" y="910" type="line" smooth="yes"/>
      <point x="85" y="867"/>
      <point x="94" y="858"/>
      <point x="109" y="858" type="curve" smooth="yes"/>
      <point x="159" y="858" type="line" smooth="yes"/>
      <point x="167" y="858"/>
      <point x="167" y="841"/>
      <point x="167" y="821" type="curve" smooth="yes"/>
      <point x="167" y="77" type="line" smooth="yes"/>
      <point x="167" y="34"/>
      <point x="179" y="0"/>
    </contour>
  </outline>
</glyph>
<glyph name="g" format="1">
  <advance width="606"/>
  <unicode hex="0067"/>
  <outline>
    <contour>
      <point x="324.057" y="-282" type="curve" smooth="yes"/>
      <point x="507.204" y="-282"/>
      <point x="582.563" y="-203"/>
      <point x="582.563" y="-23" type="curve" smooth="yes"/>
      <point x="582.563" y="83"/>
      <point x="537.563" y="170"/>
      <point x="381.36" y="170" type="curve" smooth="yes"/>
      <point x="257.764" y="170" type="line" smooth="yes"/>
      <point x="188.101" y="170"/>
      <point x="158" y="213"/>
      <point x="158" y="252" type="curve" smooth="yes"/>
      <point x="158" y="316"/>
      <point x="188.101" y="350"/>
      <point x="219.562" y="381" type="curve"/>
      <point x="248.776" y="364"/>
      <point x="288.102" y="354"/>
      <point x="333.046" y="354" type="curve" smooth="yes"/>
      <point x="508.327" y="354"/>
      <point x="540.001" y="512"/>
      <point x="540.001" y="705" type="curve" smooth="yes"/>
      <point x="540.001" y="823"/>
      <point x="504.001" y="947"/>
      <point x="438.664" y="999" type="curve" smooth="yes"/>
      <point x="433.046" y="1003"/>
      <point x="429.675" y="1010"/>
      <point x="429.675" y="1019" type="curve" smooth="yes"/>
      <point x="429.675" y="1022"/>
      <point x="429.675" y="1025"/>
      <point x="430.799" y="1029" type="curve" smooth="yes"/>
      <point x="498.001" y="1303" type="line" smooth="yes"/>
      <point x="504.001" y="1328"/>
      <point x="496.001" y="1342"/>
      <point x="485.001" y="1342" type="curve" smooth="yes"/>
      <point x="451.024" y="1342" type="line" smooth="yes"/>
      <point x="434.17" y="1342"/>
      <point x="425.181" y="1339"/>
      <point x="420.686" y="1300" type="curve" smooth="yes"/>
      <point x="391.473" y="1060" type="line" smooth="yes"/>
      <point x="389.226" y="1043"/>
      <point x="384.731" y="1039"/>
      <point x="377.99" y="1041" type="curve" smooth="yes"/>
      <point x="361.136" y="1046"/>
      <point x="339.787" y="1052"/>
      <point x="318.439" y="1052" type="curve" smooth="yes"/>
      <point x="140" y="1052"/>
      <point x="92" y="889"/>
      <point x="92" y="705" type="curve" smooth="yes"/>
      <point x="92" y="614"/>
      <point x="109" y="508"/>
      <point x="161" y="435" type="curve" smooth="yes"/>
      <point x="164" y="432"/>
      <point x="165" y="427"/>
      <point x="165" y="422" type="curve" smooth="yes"/>
      <point x="165" y="417"/>
      <point x="164" y="412"/>
      <point x="160" y="407" type="curve" smooth="yes"/>
      <point x="127" y="363"/>
      <point x="101" y="337"/>
      <point x="101" y="242" type="curve" smooth="yes"/>
      <point x="101" y="205"/>
      <point x="117" y="162"/>
      <point x="165" y="138" type="curve" smooth="yes"/>
      <point x="171.247" y="135"/>
      <point x="174.618" y="133"/>
      <point x="174.618" y="128" type="curve" smooth="yes"/>
      <point x="174.618" y="124"/>
      <point x="172.371" y="119"/>
      <point x="170.124" y="115" type="curve" smooth="yes"/>
      <point x="130" y="42"/>
      <point x="98" y="-57"/>
      <point x="98" y="-113" type="curve" smooth="yes"/>
      <point x="98" y="-209"/>
      <point x="158" y="-282"/>
    </contour>
    <contour>
      <point x="310.574" y="-222" type="curve" smooth="yes"/>
      <point x="195.966" y="-222"/>
      <point x="169" y="-168"/>
      <point x="169" y="-97" type="curve" smooth="yes"/>
      <point x="169" y="9"/>
      <point x="224.056" y="111"/>
      <point x="258.888" y="111" type="curve" smooth="yes"/>
      <point x="374.619" y="111" type="line" smooth="yes"/>
      <point x="458.889" y="111"/>
      <point x="519.563" y="78"/>
      <point x="519.563" y="-25" type="curve" smooth="yes"/>
      <point x="519.563" y="-158"/>
      <point x="469.001" y="-222"/>
    </contour>
    <contour>
      <point x="330.798" y="413" type="curve" smooth="yes"/>
      <point x="197.09" y="413"/>
      <point x="165" y="553"/>
      <point x="165" y="709" type="curve" smooth="yes"/>
      <point x="165" y="824"/>
      <point x="172.371" y="990"/>
      <point x="304.956" y="990" type="curve" smooth="yes"/>
      <point x="443.158" y="990"/>
      <point x="469.001" y="827"/>
      <point x="469.001" y="698" type="curve" smooth="yes"/>
      <point x="469.001" y="561"/>
      <point x="471.001" y="413"/>
    </contour>
    <contour>
      <point x="303" y="1006" type="move" name="top"/>
    </contour>
  </outline>
</glyph>
<glyph name="h" format="1">
  <advance width="637.372"/>
  <unicode hex="0068"/>
  <outline>
    <contour>
      <point x="116" y="0" type="curve" smooth="yes"/>
      <point x="149" y="0" type="line" smooth="yes"/>
      <point x="164" y="0"/>
      <point x="171" y="9"/>
      <point x="171" y="52" type="curve" smooth="yes"/>
      <point x="171" y="613" type="line" smooth="yes"/>
      <point x="171" y="773"/>
      <point x="269" y="957"/>
      <point x="368" y="957" type="curve" smooth="yes"/>
      <point x="449" y="957"/>
      <point x="474" y="858"/>
      <point x="474" y="633" type="curve" smooth="yes"/>
      <point x="474.372" y="52" type="line" smooth="yes"/>
      <point x="474.372" y="9"/>
      <point x="481.372" y="0"/>
      <point x="496.372" y="0" type="curve" smooth="yes"/>
      <point x="528.372" y="0" type="line" smooth="yes"/>
      <point x="541.372" y="0"/>
      <point x="551.372" y="9"/>
      <point x="551.372" y="52" type="curve" smooth="yes"/>
      <point x="551" y="599" type="line" smooth="yes"/>
      <point x="551" y="935"/>
      <point x="499" y="1019"/>
      <point x="373" y="1019" type="curve" smooth="yes"/>
      <point x="305" y="1019"/>
      <point x="223" y="971"/>
      <point x="178" y="820" type="curve" smooth="yes"/>
      <point x="177" y="817"/>
      <point x="175" y="816"/>
      <point x="173" y="816" type="curve" smooth="yes"/>
      <point x="172" y="816"/>
      <point x="171" y="817"/>
      <point x="171" y="821" type="curve" smooth="yes"/>
      <point x="171" y="1382" type="line" smooth="yes"/>
      <point x="171" y="1425"/>
      <point x="163" y="1438"/>
      <point x="148" y="1438" type="curve" smooth="yes"/>
      <point x="116" y="1438" type="line" smooth="yes"/>
      <point x="102" y="1438"/>
      <point x="94" y="1425"/>
      <point x="94" y="1382" type="curve" smooth="yes"/>
      <point x="94" y="52" type="line" smooth="yes"/>
      <point x="94" y="9"/>
      <point x="102" y="0"/>
    </contour>
    <contour>
      <point x="321" y="1006" type="move" name="top"/>
    </contour>
    <contour>
      <point x="321" y="503" type="move" name="center"/>
    </contour>
  </outline>
</glyph>
<glyph name="i" format="1">
  <advance width="281"/>
  <unicode hex="0069"/>
  <outline>
    <contour>
      <point x="125" y="0" type="curve" smooth="yes"/>
      <point x="157" y="0" type="line" smooth="yes"/>
      <point x="172" y="0"/>
      <point x="179" y="24"/>
      <point x="179" y="67" type="curve" smooth="yes"/>
      <point x="179" y="939" type="line" smooth="yes"/>
      <point x="179" y="982"/>
      <point x="172" y="1006"/>
      <point x="157" y="1006" type="curve" smooth="yes"/>
      <point x="125" y="1006" type="line" smooth="yes"/>
      <point x="110" y="1006"/>
      <point x="102" y="982"/>
      <point x="102" y="939" type="curve" smooth="yes"/>
      <point x="102" y="67" type="line" smooth="yes"/>
      <point x="102" y="24"/>
      <point x="110" y="0"/>
    </contour>
    <contour>
      <point x="125" y="1179" type="curve" smooth="yes"/>
      <point x="157" y="1179" type="line" smooth="yes"/>
      <point x="172" y="1179"/>
      <point x="179" y="1203"/>
      <point x="179" y="1246" type="curve" smooth="yes"/>
      <point x="179" y="1344" type="line" smooth="yes"/>
      <point x="179" y="1387"/>
      <point x="172" y="1411"/>
      <point x="157" y="1411" type="curve" smooth="yes"/>
      <point x="125" y="1411" type="line" smooth="yes"/>
      <point x="110" y="1411"/>
      <point x="102" y="1387"/>
      <point x="102" y="1344" type="curve" smooth="yes"/>
      <point x="102" y="1246" type="line" smooth="yes"/>
      <point x="102" y="1203"/>
      <point x="110" y="1179"/>
    </contour>
  </outline>
</glyph>
<glyph name="j" format="1">
  <advance width="306"/>
  <unicode hex="006A"/>
  <outline>
    <contour>
      <point x="34" y="-291" type="curve" smooth="yes"/>
      <point x="73" y="-291" type="line" smooth="yes"/>
      <point x="179" y="-291"/>
      <point x="212" y="-259"/>
      <point x="212" y="6" type="curve" smooth="yes"/>
      <point x="212" y="959" type="line" smooth="yes"/>
      <point x="212" y="1002"/>
      <point x="205" y="1006"/>
      <point x="189" y="1006" type="curve" smooth="yes"/>
      <point x="158" y="1006" type="line" smooth="yes"/>
      <point x="144" y="1006"/>
      <point x="135" y="1002"/>
      <point x="135" y="959" type="curve" smooth="yes"/>
      <point x="135" y="19" type="line" smooth="yes"/>
      <point x="135" y="-167"/>
      <point x="129" y="-212"/>
      <point x="72" y="-212" type="curve" smooth="yes"/>
      <point x="34" y="-212" type="line" smooth="yes"/>
      <point x="17" y="-212"/>
      <point x="14" y="-221"/>
      <point x="14" y="-234" type="curve" smooth="yes"/>
      <point x="14" y="-266" type="line" smooth="yes"/>
      <point x="14" y="-282"/>
      <point x="19" y="-291"/>
    </contour>
    <contour>
      <point x="158" y="1179" type="curve" smooth="yes"/>
      <point x="190" y="1179" type="line" smooth="yes"/>
      <point x="205" y="1179"/>
      <point x="212" y="1183"/>
      <point x="212" y="1226" type="curve" smooth="yes"/>
      <point x="212" y="1294" type="line" smooth="yes"/>
      <point x="212" y="1337"/>
      <point x="205" y="1341"/>
      <point x="190" y="1341" type="curve" smooth="yes"/>
      <point x="158" y="1341" type="line" smooth="yes"/>
      <point x="143" y="1341"/>
      <point x="135" y="1337"/>
      <point x="135" y="1294" type="curve" smooth="yes"/>
      <point x="135" y="1226" type="line" smooth="yes"/>
      <point x="135" y="1183"/>
      <point x="143" y="1179"/>
    </contour>
  </outline>
</glyph>
<glyph name="k" format="1">
  <advance width="628"/>
  <unicode hex="006B"/>
  <outline>
    <contour>
      <point x="116" y="0" type="curve" smooth="yes"/>
      <point x="150" y="0" type="line" smooth="yes"/>
      <point x="165" y="0"/>
      <point x="173" y="24"/>
      <point x="173" y="67" type="curve" smooth="yes"/>
      <point x="173" y="308" type="line" smooth="yes"/>
      <point x="173" y="319"/>
      <point x="175" y="325"/>
      <point x="177" y="330" type="curve" smooth="yes"/>
      <point x="179" y="332"/>
      <point x="254" y="459"/>
      <point x="280" y="498" type="curve" smooth="yes"/>
      <point x="283" y="502"/>
      <point x="285" y="503"/>
      <point x="286" y="503" type="curve" smooth="yes"/>
      <point x="290" y="503"/>
      <point x="291" y="498"/>
      <point x="292" y="495" type="curve" smooth="yes"/>
      <point x="500.215" y="67" type="line"/>
      <point x="516.215" y="31"/>
      <point x="531.215" y="0"/>
      <point x="544.215" y="0" type="curve" smooth="yes"/>
      <point x="583" y="0" type="line" smooth="yes"/>
      <point x="590" y="0"/>
      <point x="595" y="9"/>
      <point x="595" y="22" type="curve" smooth="yes"/>
      <point x="595" y="34"/>
      <point x="591" y="50"/>
      <point x="583" y="67" type="curve" smooth="yes"/>
      <point x="340" y="545" type="line" smooth="yes"/>
      <point x="340" y="546"/>
      <point x="336" y="549"/>
      <point x="336" y="553" type="curve" smooth="yes"/>
      <point x="336" y="556"/>
      <point x="338" y="558"/>
      <point x="340" y="561" type="curve" smooth="yes"/>
      <point x="568" y="939" type="line" smooth="yes"/>
      <point x="579" y="958"/>
      <point x="584" y="976"/>
      <point x="584" y="989" type="curve" smooth="yes"/>
      <point x="584" y="999"/>
      <point x="580" y="1006"/>
      <point x="574" y="1006" type="curve" smooth="yes"/>
      <point x="537" y="1006" type="line" smooth="yes"/>
      <point x="523" y="1006"/>
      <point x="505" y="975"/>
      <point x="481" y="939" type="curve"/>
      <point x="179" y="426" type="line" smooth="yes"/>
      <point x="177" y="424"/>
      <point x="176" y="424"/>
      <point x="176" y="424" type="curve"/>
      <point x="174" y="424"/>
      <point x="173" y="427"/>
      <point x="173" y="433" type="curve" smooth="yes"/>
      <point x="173" y="1371" type="line" smooth="yes"/>
      <point x="173" y="1414"/>
      <point x="165" y="1438"/>
      <point x="150" y="1438" type="curve" smooth="yes"/>
      <point x="116" y="1438" type="line" smooth="yes"/>
      <point x="102" y="1438"/>
      <point x="94" y="1414"/>
      <point x="94" y="1371" type="curve" smooth="yes"/>
      <point x="94" y="67" type="line" smooth="yes"/>
      <point x="94" y="24"/>
      <point x="102" y="0"/>
    </contour>
    <contour>
      <point x="347" y="0" type="move" name="bottom"/>
    </contour>
  </outline>
</glyph>
<glyph name="l" format="1">
  <advance width="263"/>
  <unicode hex="006C"/>
  <outline>
    <contour>
      <point x="120" y="0" type="curve" smooth="yes"/>
      <point x="152" y="0" type="line" smooth="yes"/>
      <point x="167" y="0"/>
      <point x="175" y="24"/>
      <point x="175" y="67" type="curve" smooth="yes"/>
      <point x="175" y="1371" type="line" smooth="yes"/>
      <point x="175" y="1414"/>
      <point x="167" y="1438"/>
      <point x="152" y="1438" type="curve" smooth="yes"/>
      <point x="120" y="1438" type="line" smooth="yes"/>
      <point x="106" y="1438"/>
      <point x="98" y="1414"/>
      <point x="98" y="1371" type="curve" smooth="yes"/>
      <point x="98" y="67" type="line" smooth="yes"/>
      <point x="98" y="24"/>
      <point x="106" y="0"/>
    </contour>
    <contour>
      <point x="137" y="1006" type="move" name="top"/>
    </contour>
    <contour>
      <point x="137" y="0" type="move" name="bottom"/>
    </contour>
    <contour>
      <point x="257" y="1006" type="move" name="topright"/>
    </contour>
  </outline>
</glyph>
<glyph name="m" format="1">
  <advance width="962"/>
  <unicode hex="006D"/>
  <outline>
    <contour>
      <point x="123" y="0" type="curve" smooth="yes"/>
      <point x="155" y="0" type="line" smooth="yes"/>
      <point x="169" y="0"/>
      <point x="178" y="9"/>
      <point x="178" y="52" type="curve" smooth="yes"/>
      <point x="178" y="656" type="line" smooth="yes"/>
      <point x="178" y="789"/>
      <point x="250" y="989"/>
      <point x="346" y="989" type="curve" smooth="yes"/>
      <point x="409" y="989"/>
      <point x="445" y="921"/>
      <point x="445" y="696" type="curve" smooth="yes"/>
      <point x="445" y="52" type="line" smooth="yes"/>
      <point x="445" y="9"/>
      <point x="453" y="0"/>
      <point x="468" y="0" type="curve" smooth="yes"/>
      <point x="501" y="0" type="line" smooth="yes"/>
      <point x="515" y="0"/>
      <point x="524" y="9"/>
      <point x="524" y="52" type="curve" smooth="yes"/>
      <point x="524" y="656" type="line" smooth="yes"/>
      <point x="524" y="789"/>
      <point x="596" y="989"/>
      <point x="692" y="989" type="curve" smooth="yes"/>
      <point x="755" y="989"/>
      <point x="791" y="921"/>
      <point x="791" y="696" type="curve" smooth="yes"/>
      <point x="791" y="52" type="line" smooth="yes"/>
      <point x="791" y="9"/>
      <point x="799" y="0"/>
      <point x="814" y="0" type="curve" smooth="yes"/>
      <point x="847" y="0" type="line" smooth="yes"/>
      <point x="861" y="0"/>
      <point x="870" y="9"/>
      <point x="870" y="52" type="curve" smooth="yes"/>
      <point x="870" y="642" type="line" smooth="yes"/>
      <point x="870" y="978"/>
      <point x="798" y="1052"/>
      <point x="693" y="1052" type="curve" smooth="yes"/>
      <point x="628" y="1052"/>
      <point x="555" y="997"/>
      <point x="519" y="826" type="curve"/>
      <point x="518" y="822"/>
      <point x="517" y="821"/>
      <point x="516" y="821" type="curve" smooth="yes"/>
      <point x="515" y="821"/>
      <point x="515" y="823"/>
      <point x="514" y="826" type="curve" smooth="yes"/>
      <point x="478" y="1005"/>
      <point x="429" y="1052"/>
      <point x="347" y="1052" type="curve" smooth="yes"/>
      <point x="282" y="1052"/>
      <point x="209" y="997"/>
      <point x="173" y="826" type="curve"/>
      <point x="172" y="819"/>
      <point x="170" y="811"/>
      <point x="168" y="811" type="curve" smooth="yes"/>
      <point x="164" y="811"/>
      <point x="163" y="816"/>
      <point x="162" y="824" type="curve"/>
      <point x="153" y="952" type="line" smooth="yes"/>
      <point x="148" y="1002"/>
      <point x="142" y="1006"/>
      <point x="126" y="1006" type="curve" smooth="yes"/>
      <point x="120" y="1006" type="line" smooth="yes"/>
      <point x="105" y="1006"/>
      <point x="99" y="982"/>
      <point x="99" y="939" type="curve" smooth="yes"/>
      <point x="99" y="52" type="line" smooth="yes"/>
      <point x="99" y="9"/>
      <point x="108" y="0"/>
    </contour>
  </outline>
</glyph>
<glyph name="n" format="1">
  <advance width="650"/>
  <unicode hex="006E"/>
  <outline>
    <contour>
      <point x="122" y="0" type="curve" smooth="yes"/>
      <point x="154" y="0" type="line" smooth="yes"/>
      <point x="168" y="0"/>
      <point x="177" y="9"/>
      <point x="177" y="52" type="curve" smooth="yes"/>
      <point x="177" y="656" type="line" smooth="yes"/>
      <point x="177" y="789"/>
      <point x="257.899" y="989"/>
      <point x="365.765" y="989" type="curve" smooth="yes"/>
      <point x="436.552" y="989"/>
      <point x="477.001" y="921"/>
      <point x="477.001" y="696" type="curve" smooth="yes"/>
      <point x="477.001" y="52" type="line" smooth="yes"/>
      <point x="477.001" y="9"/>
      <point x="485.001" y="0"/>
      <point x="500.001" y="0" type="curve" smooth="yes"/>
      <point x="533.001" y="0" type="line" smooth="yes"/>
      <point x="547.001" y="0"/>
      <point x="556.001" y="9"/>
      <point x="556.001" y="52" type="curve" smooth="yes"/>
      <point x="556.001" y="642" type="line" smooth="yes"/>
      <point x="556.001" y="978"/>
      <point x="484.001" y="1052"/>
      <point x="366.888" y="1052" type="curve" smooth="yes"/>
      <point x="293.854" y="1052"/>
      <point x="211.832" y="997"/>
      <point x="172" y="826" type="curve" smooth="yes"/>
      <point x="171" y="819"/>
      <point x="169" y="811"/>
      <point x="167" y="811" type="curve" smooth="yes"/>
      <point x="163" y="811"/>
      <point x="162" y="816"/>
      <point x="161" y="824" type="curve" smooth="yes"/>
      <point x="152" y="952" type="line"/>
      <point x="147" y="1002"/>
      <point x="141" y="1006"/>
      <point x="125" y="1006" type="curve" smooth="yes"/>
      <point x="119" y="1006" type="line" smooth="yes"/>
      <point x="104" y="1006"/>
      <point x="98" y="982"/>
      <point x="98" y="939" type="curve" smooth="yes"/>
      <point x="98" y="52" type="line" smooth="yes"/>
      <point x="98" y="9"/>
      <point x="107" y="0"/>
    </contour>
    <contour>
      <point x="325" y="1006" type="move" name="top"/>
    </contour>
    <contour>
      <point x="325" y="0" type="move" name="bottom"/>
    </contour>
  </outline>
</glyph>
<glyph name="o" format="1">
  <advance width="673"/>
  <unicode hex="006F"/>
  <outline>
    <contour>
      <point x="338" y="50" type="curve" smooth="yes"/>
      <point x="239" y="50"/>
      <point x="158" y="115"/>
      <point x="158" y="503" type="curve" smooth="yes"/>
      <point x="158" y="915"/>
      <point x="245" y="957"/>
      <point x="338" y="957" type="curve" smooth="yes"/>
      <point x="428" y="957"/>
      <point x="516" y="917"/>
      <point x="516" y="503" type="curve" smooth="yes"/>
      <point x="516" y="112"/>
      <point x="434" y="50"/>
    </contour>
    <contour>
      <point x="339" y="-12" type="curve" smooth="yes"/>
      <point x="462" y="-12"/>
      <point x="593" y="66"/>
      <point x="593" y="503" type="curve" smooth="yes"/>
      <point x="593" y="951"/>
      <point x="474" y="1019"/>
      <point x="339" y="1019" type="curve" smooth="yes"/>
      <point x="202" y="1019"/>
      <point x="80" y="951"/>
      <point x="80" y="503" type="curve" smooth="yes"/>
      <point x="80" y="65"/>
      <point x="213" y="-12"/>
    </contour>
    <contour>
      <point x="338" y="1006" type="move" name="top"/>
    </contour>
  </outline>
</glyph>
<glyph name="p" format="1">
  <advance width="698"/>
  <unicode hex="0070"/>
  <outline>
    <contour>
      <point x="122" y="-427" type="curve" smooth="yes"/>
      <point x="154" y="-427" type="line" smooth="yes"/>
      <point x="168" y="-427"/>
      <point x="177" y="-408"/>
      <point x="177" y="-365" type="curve" smooth="yes"/>
      <point x="177" y="167" type="line" smooth="yes"/>
      <point x="177" y="173"/>
      <point x="177" y="175"/>
      <point x="178.124" y="175" type="curve" smooth="yes"/>
      <point x="178.124" y="175"/>
      <point x="180.371" y="173"/>
      <point x="181.494" y="170" type="curve" smooth="yes"/>
      <point x="221.944" y="41"/>
      <point x="288.236" y="-21"/>
      <point x="362.394" y="-21" type="curve" smooth="yes"/>
      <point x="491.608" y="-21"/>
      <point x="612.305" y="99"/>
      <point x="612.305" y="507" type="curve" smooth="yes"/>
      <point x="612.305" y="904"/>
      <point x="493.855" y="1052"/>
      <point x="369.136" y="1052" type="curve" smooth="yes"/>
      <point x="293.854" y="1052"/>
      <point x="209.584" y="968"/>
      <point x="167" y="806" type="curve" smooth="yes"/>
      <point x="165" y="802"/>
      <point x="164" y="800"/>
      <point x="162" y="800" type="curve" smooth="yes"/>
      <point x="161" y="800"/>
      <point x="158" y="805"/>
      <point x="158" y="811" type="curve" smooth="yes"/>
      <point x="158" y="844"/>
      <point x="153" y="889"/>
      <point x="148" y="927" type="curve" smooth="yes"/>
      <point x="140" y="1000"/>
      <point x="132" y="1011"/>
      <point x="122" y="1011" type="curve" smooth="yes"/>
      <point x="117" y="1011" type="line" smooth="yes"/>
      <point x="102" y="1011"/>
      <point x="99" y="997"/>
      <point x="99" y="954" type="curve" smooth="yes"/>
      <point x="99" y="-365" type="line" smooth="yes"/>
      <point x="99" y="-408"/>
      <point x="107" y="-427"/>
    </contour>
    <contour>
      <point x="356.776" y="43" type="curve" smooth="yes"/>
      <point x="263.517" y="43"/>
      <point x="177" y="225"/>
      <point x="177" y="507" type="curve" smooth="yes"/>
      <point x="177" y="765"/>
      <point x="257.899" y="990"/>
      <point x="356.776" y="990" type="curve" smooth="yes"/>
      <point x="453.406" y="990"/>
      <point x="534.305" y="798"/>
      <point x="534.305" y="507" type="curve" smooth="yes"/>
      <point x="534.305" y="143"/>
      <point x="446.664" y="43"/>
    </contour>
  </outline>
</glyph>
<glyph name="q" format="1">
  <advance width="659"/>
  <unicode hex="0071"/>
  <outline>
    <contour>
      <point x="518" y="-427" type="curve" smooth="yes"/>
      <point x="550" y="-427" type="line" smooth="yes"/>
      <point x="565" y="-427"/>
      <point x="573" y="-408"/>
      <point x="573" y="-365" type="curve" smooth="yes"/>
      <point x="573" y="954" type="line" smooth="yes"/>
      <point x="573" y="997"/>
      <point x="570" y="1011"/>
      <point x="555" y="1011" type="curve" smooth="yes"/>
      <point x="550" y="1011" type="line" smooth="yes"/>
      <point x="540" y="1011"/>
      <point x="532" y="1000"/>
      <point x="524" y="927" type="curve" smooth="yes"/>
      <point x="519" y="889"/>
      <point x="514" y="844"/>
      <point x="514" y="811" type="curve" smooth="yes"/>
      <point x="514" y="805"/>
      <point x="511" y="800"/>
      <point x="510" y="800" type="curve" smooth="yes"/>
      <point x="508" y="800"/>
      <point x="507" y="802"/>
      <point x="505" y="806" type="curve"/>
      <point x="466" y="968"/>
      <point x="391" y="1052"/>
      <point x="324" y="1052" type="curve" smooth="yes"/>
      <point x="213" y="1052"/>
      <point x="99" y="904"/>
      <point x="99" y="507" type="curve" smooth="yes"/>
      <point x="99" y="99"/>
      <point x="215" y="-21"/>
      <point x="330" y="-21" type="curve" smooth="yes"/>
      <point x="396" y="-21"/>
      <point x="455" y="41"/>
      <point x="491" y="170" type="curve" smooth="yes"/>
      <point x="492" y="173"/>
      <point x="494" y="175"/>
      <point x="494" y="175" type="curve" smooth="yes"/>
      <point x="495" y="175"/>
      <point x="495" y="173"/>
      <point x="495" y="167" type="curve" smooth="yes"/>
      <point x="495" y="-365" type="line" smooth="yes"/>
      <point x="495" y="-408"/>
      <point x="504" y="-427"/>
    </contour>
    <contour>
      <point x="335" y="43" type="curve" smooth="yes"/>
      <point x="255" y="43"/>
      <point x="177" y="143"/>
      <point x="177" y="507" type="curve" smooth="yes"/>
      <point x="177" y="798"/>
      <point x="249" y="990"/>
      <point x="335" y="990" type="curve" smooth="yes"/>
      <point x="423" y="990"/>
      <point x="495" y="765"/>
      <point x="495" y="507" type="curve" smooth="yes"/>
      <point x="495" y="225"/>
      <point x="418" y="43"/>
    </contour>
  </outline>
</glyph>
<glyph name="r" format="1">
  <advance width="439"/>
  <unicode hex="0072"/>
  <outline>
    <contour>
      <point x="122" y="0" type="curve" smooth="yes"/>
      <point x="154" y="0" type="line" smooth="yes"/>
      <point x="168" y="0"/>
      <point x="177" y="10"/>
      <point x="177" y="53" type="curve" smooth="yes"/>
      <point x="177" y="606" type="line" smooth="yes"/>
      <point x="177" y="739"/>
      <point x="243" y="959"/>
      <point x="310" y="959" type="curve" smooth="yes"/>
      <point x="333" y="959" type="line" smooth="yes"/>
      <point x="349" y="959"/>
      <point x="357" y="968"/>
      <point x="357" y="1002" type="curve" smooth="yes"/>
      <point x="357" y="1010" type="line" smooth="yes"/>
      <point x="357" y="1043"/>
      <point x="349" y="1052"/>
      <point x="333" y="1052" type="curve" smooth="yes"/>
      <point x="318" y="1052" type="line" smooth="yes"/>
      <point x="254" y="1052"/>
      <point x="199" y="936"/>
      <point x="173" y="833" type="curve" smooth="yes"/>
      <point x="171" y="826"/>
      <point x="169" y="811"/>
      <point x="167" y="811" type="curve" smooth="yes"/>
      <point x="163" y="811"/>
      <point x="162" y="823"/>
      <point x="161" y="832" type="curve" smooth="yes"/>
      <point x="152" y="942" type="line" smooth="yes"/>
      <point x="147" y="992"/>
      <point x="141" y="1006"/>
      <point x="125" y="1006" type="curve" smooth="yes"/>
      <point x="119" y="1006" type="line" smooth="yes"/>
      <point x="104" y="1006"/>
      <point x="98" y="972"/>
      <point x="98" y="929" type="curve" smooth="yes"/>
      <point x="98" y="53" type="line" smooth="yes"/>
      <point x="98" y="10"/>
      <point x="107" y="0"/>
    </contour>
    <contour>
      <point x="220" y="1006" type="move" name="top"/>
    </contour>
    <contour>
      <point x="220" y="0" type="move" name="bottom"/>
    </contour>
  </outline>
</glyph>
<glyph name="s" format="1">
  <advance width="683"/>
  <unicode hex="0073"/>
  <outline>
    <contour>
      <point x="329.551" y="-21" type="curve" smooth="yes"/>
      <point x="474.496" y="-21"/>
      <point x="593.181" y="64"/>
      <point x="593.181" y="260" type="curve" smooth="yes"/>
      <point x="593.181" y="430"/>
      <point x="535.181" y="507"/>
      <point x="348.652" y="560" type="curve" smooth="yes"/>
      <point x="177.865" y="608"/>
      <point x="170" y="656"/>
      <point x="170" y="782" type="curve" smooth="yes"/>
      <point x="170" y="886"/>
      <point x="214.944" y="990"/>
      <point x="353.147" y="990" type="curve" smooth="yes"/>
      <point x="427.304" y="990"/>
      <point x="496.968" y="965"/>
      <point x="527.181" y="943" type="curve" smooth="yes"/>
      <point x="540.181" y="933"/>
      <point x="555.181" y="938"/>
      <point x="555.181" y="964" type="curve" smooth="yes"/>
      <point x="555.181" y="979" type="line" smooth="yes"/>
      <point x="555.181" y="990"/>
      <point x="552.181" y="998"/>
      <point x="543.181" y="1005" type="curve" smooth="yes"/>
      <point x="502.586" y="1035"/>
      <point x="432.922" y="1052"/>
      <point x="357.641" y="1052" type="curve" smooth="yes"/>
      <point x="268.877" y="1052"/>
      <point x="94" y="1002"/>
      <point x="94" y="782" type="curve" smooth="yes"/>
      <point x="94" y="614"/>
      <point x="148" y="542"/>
      <point x="327.304" y="494" type="curve" smooth="yes"/>
      <point x="517.192" y="444"/>
      <point x="526.181" y="347"/>
      <point x="526.181" y="251" type="curve" smooth="yes"/>
      <point x="526.181" y="137"/>
      <point x="459.889" y="43"/>
      <point x="328.428" y="43" type="curve" smooth="yes"/>
      <point x="239.663" y="43"/>
      <point x="176.742" y="63"/>
      <point x="131" y="84" type="curve" smooth="yes"/>
      <point x="127" y="86"/>
      <point x="96" y="108"/>
      <point x="96" y="68" type="curve" smooth="yes"/>
      <point x="96" y="59" type="line" smooth="yes"/>
      <point x="96" y="31"/>
      <point x="114" y="25"/>
      <point x="124" y="20" type="curve" smooth="yes"/>
      <point x="170" y="-3"/>
      <point x="255.394" y="-21"/>
    </contour>
    <contour>
      <point x="342" y="1006" type="move" name="top"/>
    </contour>
    <contour>
      <point x="342" y="0" type="move" name="bottom"/>
    </contour>
  </outline>
</glyph>
<glyph name="t" format="1">
  <advance width="487"/>
  <unicode hex="0074"/>
  <outline>
    <contour>
      <point x="316" y="-27" type="curve" smooth="yes"/>
      <point x="372" y="-27"/>
      <point x="372" y="-27"/>
      <point x="394" y="-27" type="curve" smooth="yes"/>
      <point x="412" y="-27"/>
      <point x="421" y="-22"/>
      <point x="421" y="-6" type="curve" smooth="yes"/>
      <point x="421" y="29" type="line" smooth="yes"/>
      <point x="421" y="41"/>
      <point x="405" y="43"/>
      <point x="392" y="43" type="curve" smooth="yes"/>
      <point x="369" y="43"/>
      <point x="362" y="43"/>
      <point x="328" y="43" type="curve" smooth="yes"/>
      <point x="275" y="43"/>
      <point x="234" y="67"/>
      <point x="234" y="277" type="curve" smooth="yes"/>
      <point x="234" y="921" type="line" smooth="yes"/>
      <point x="234" y="936"/>
      <point x="236" y="937"/>
      <point x="244" y="937" type="curve" smooth="yes"/>
      <point x="375" y="937" type="line" smooth="yes"/>
      <point x="391" y="937"/>
      <point x="398" y="938"/>
      <point x="398" y="969" type="curve" smooth="yes"/>
      <point x="398" y="973" type="line" smooth="yes"/>
      <point x="398" y="1005"/>
      <point x="391" y="1006"/>
      <point x="375" y="1006" type="curve" smooth="yes"/>
      <point x="244" y="1006" type="line" smooth="yes"/>
      <point x="236" y="1006"/>
      <point x="234" y="1013"/>
      <point x="234" y="1033" type="curve" smooth="yes"/>
      <point x="234" y="1428" type="line" smooth="yes"/>
      <point x="234" y="1471"/>
      <point x="226" y="1475"/>
      <point x="211" y="1475" type="curve" smooth="yes"/>
      <point x="193" y="1475" type="line" smooth="yes"/>
      <point x="179" y="1475"/>
      <point x="172" y="1470"/>
      <point x="171" y="1428" type="curve" smooth="yes"/>
      <point x="157" y="1033" type="line"/>
      <point x="157" y="1013"/>
      <point x="153" y="1006"/>
      <point x="147" y="1006" type="curve" smooth="yes"/>
      <point x="79" y="1006" type="line" smooth="yes"/>
      <point x="64" y="1006"/>
      <point x="56" y="1005"/>
      <point x="56" y="973" type="curve" smooth="yes"/>
      <point x="56" y="969" type="line" smooth="yes"/>
      <point x="56" y="938"/>
      <point x="64" y="937"/>
      <point x="79" y="937" type="curve" smooth="yes"/>
      <point x="147" y="937" type="line" smooth="yes"/>
      <point x="153" y="937"/>
      <point x="157" y="936"/>
      <point x="157" y="921" type="curve" smooth="yes"/>
      <point x="157" y="273" type="line" smooth="yes"/>
      <point x="157" y="46"/>
      <point x="211" y="-27"/>
    </contour>
  </outline>
</glyph>
<glyph name="u" format="1">
  <advance width="616"/>
  <unicode hex="0075"/>
  <outline>
    <contour>
      <point x="269" y="-47" type="curve" smooth="yes"/>
      <point x="335" y="-47"/>
      <point x="399" y="19"/>
      <point x="442" y="180" type="curve" smooth="yes"/>
      <point x="444" y="187"/>
      <point x="447" y="195"/>
      <point x="449" y="195" type="curve" smooth="yes"/>
      <point x="451" y="195"/>
      <point x="452" y="190"/>
      <point x="453" y="182" type="curve" smooth="yes"/>
      <point x="463" y="64" type="line" smooth="yes"/>
      <point x="467" y="14"/>
      <point x="474" y="0"/>
      <point x="490" y="0" type="curve" smooth="yes"/>
      <point x="497" y="0" type="line" smooth="yes"/>
      <point x="512" y="0"/>
      <point x="518" y="34"/>
      <point x="518" y="77" type="curve" smooth="yes"/>
      <point x="518" y="939" type="line" smooth="yes"/>
      <point x="518" y="982"/>
      <point x="509" y="1006"/>
      <point x="494" y="1006" type="curve" smooth="yes"/>
      <point x="461" y="1006" type="line" smooth="yes"/>
      <point x="447" y="1006"/>
      <point x="439" y="982"/>
      <point x="439" y="939" type="curve" smooth="yes"/>
      <point x="439" y="400" type="line" smooth="yes"/>
      <point x="439" y="267"/>
      <point x="351" y="111"/>
      <point x="284" y="111" type="curve" smooth="yes"/>
      <point x="221" y="111"/>
      <point x="170" y="175"/>
      <point x="170" y="400" type="curve" smooth="yes"/>
      <point x="170" y="939" type="line" smooth="yes"/>
      <point x="170" y="982"/>
      <point x="163" y="1006"/>
      <point x="147" y="1006" type="curve" smooth="yes"/>
      <point x="115" y="1006" type="line" smooth="yes"/>
      <point x="101" y="1006"/>
      <point x="93" y="982"/>
      <point x="93" y="939" type="curve" smooth="yes"/>
      <point x="93" y="454" type="line" smooth="yes"/>
      <point x="93" y="118"/>
      <point x="164" y="-47"/>
    </contour>
  </outline>
</glyph>
<glyph name="v" format="1">
  <advance width="552"/>
  <unicode hex="0076"/>
  <outline>
    <contour>
      <point x="252" y="1" type="curve" smooth="yes"/>
      <point x="290" y="1" type="line" smooth="yes"/>
      <point x="304" y="1"/>
      <point x="318" y="27"/>
      <point x="326" y="67" type="curve" smooth="yes"/>
      <point x="498" y="939" type="line" smooth="yes"/>
      <point x="502" y="957"/>
      <point x="504" y="971"/>
      <point x="504" y="982" type="curve" smooth="yes"/>
      <point x="504" y="998"/>
      <point x="500" y="1006"/>
      <point x="491" y="1006" type="curve" smooth="yes"/>
      <point x="449" y="1006" type="line" smooth="yes"/>
      <point x="435" y="1006"/>
      <point x="425" y="985"/>
      <point x="417" y="939" type="curve" smooth="yes"/>
      <point x="277" y="121" type="line" smooth="yes"/>
      <point x="276" y="115"/>
      <point x="275" y="112"/>
      <point x="274" y="112" type="curve" smooth="yes"/>
      <point x="272" y="112"/>
      <point x="271" y="115"/>
      <point x="270" y="121" type="curve" smooth="yes"/>
      <point x="133" y="939" type="line" smooth="yes"/>
      <point x="125" y="982"/>
      <point x="119" y="1006"/>
      <point x="103" y="1006" type="curve" smooth="yes"/>
      <point x="62" y="1006" type="line" smooth="yes"/>
      <point x="52" y="1006"/>
      <point x="48" y="996"/>
      <point x="48" y="977" type="curve" smooth="yes"/>
      <point x="48" y="967"/>
      <point x="49" y="954"/>
      <point x="52" y="939" type="curve" smooth="yes"/>
      <point x="221" y="67" type="line" smooth="yes"/>
      <point x="229" y="27"/>
      <point x="239" y="1"/>
    </contour>
  </outline>
</glyph>
<glyph name="w" format="1">
  <advance width="974"/>
  <unicode hex="0077"/>
  <outline>
    <contour>
      <point x="275" y="0" type="curve" smooth="yes"/>
      <point x="315" y="0" type="line" smooth="yes"/>
      <point x="329.607" y="0"/>
      <point x="346.461" y="23"/>
      <point x="354.326" y="67" type="curve" smooth="yes"/>
      <point x="481.293" y="781" type="line" smooth="yes"/>
      <point x="482.416" y="784"/>
      <point x="485.787" y="788"/>
      <point x="486.911" y="788" type="curve" smooth="yes"/>
      <point x="488.034" y="788"/>
      <point x="489.158" y="787"/>
      <point x="490.282" y="781" type="curve" smooth="yes"/>
      <point x="628.484" y="67" type="line" smooth="yes"/>
      <point x="636.35" y="26"/>
      <point x="650.956" y="0"/>
      <point x="665.563" y="0" type="curve" smooth="yes"/>
      <point x="706.563" y="0" type="line" smooth="yes"/>
      <point x="719.563" y="0"/>
      <point x="734.563" y="23"/>
      <point x="742.563" y="67" type="curve" smooth="yes"/>
      <point x="886.563" y="939" type="line"/>
      <point x="890.563" y="957"/>
      <point x="892.563" y="971"/>
      <point x="892.563" y="982" type="curve" smooth="yes"/>
      <point x="892.563" y="998"/>
      <point x="888.563" y="1006"/>
      <point x="880.563" y="1006" type="curve" smooth="yes"/>
      <point x="838.563" y="1006" type="line" smooth="yes"/>
      <point x="822.563" y="1006"/>
      <point x="812.563" y="986"/>
      <point x="805.563" y="939" type="curve" smooth="yes"/>
      <point x="691.563" y="183" type="line" smooth="yes"/>
      <point x="691.563" y="180"/>
      <point x="690.563" y="175"/>
      <point x="686.563" y="175" type="curve" smooth="yes"/>
      <point x="685.563" y="175"/>
      <point x="684.563" y="177"/>
      <point x="683.563" y="183" type="curve" smooth="yes"/>
      <point x="534.102" y="939" type="line" smooth="yes"/>
      <point x="526.237" y="980"/>
      <point x="519.495" y="1006"/>
      <point x="506.012" y="1006" type="curve" smooth="yes"/>
      <point x="470.057" y="1006" type="line" smooth="yes"/>
      <point x="454.326" y="1006"/>
      <point x="444.214" y="986"/>
      <point x="435.225" y="939" type="curve" smooth="yes"/>
      <point x="301" y="183" type="line" smooth="yes"/>
      <point x="300" y="177"/>
      <point x="299" y="173"/>
      <point x="297" y="173" type="curve" smooth="yes"/>
      <point x="296" y="173"/>
      <point x="295" y="176"/>
      <point x="292" y="183" type="curve"/>
      <point x="165" y="939" type="line" smooth="yes"/>
      <point x="157" y="983"/>
      <point x="151" y="1006"/>
      <point x="135" y="1006" type="curve" smooth="yes"/>
      <point x="94" y="1006" type="line" smooth="yes"/>
      <point x="84" y="1006"/>
      <point x="80" y="996"/>
      <point x="80" y="977" type="curve" smooth="yes"/>
      <point x="80" y="967"/>
      <point x="81" y="954"/>
      <point x="84" y="939" type="curve" smooth="yes"/>
      <point x="242" y="67" type="line" smooth="yes"/>
      <point x="249" y="27"/>
      <point x="261" y="0"/>
    </contour>
    <contour>
      <point x="487" y="1006" type="move" name="top"/>
    </contour>
  </outline>
</glyph>
<glyph name="x" format="1">
  <advance width="569"/>
  <unicode hex="0078"/>
  <outline>
    <contour>
      <point x="62" y="0" type="curve" smooth="yes"/>
      <point x="87" y="0" type="line" smooth="yes"/>
      <point x="104" y="0"/>
      <point x="116" y="18"/>
      <point x="130" y="47" type="curve" smooth="yes"/>
      <point x="154" y="103"/>
      <point x="218" y="270"/>
      <point x="275" y="414" type="curve"/>
      <point x="281" y="419"/>
      <point x="283" y="420"/>
      <point x="284" y="420" type="curve" smooth="yes"/>
      <point x="287" y="420"/>
      <point x="288" y="417"/>
      <point x="290" y="414" type="curve" smooth="yes"/>
      <point x="354" y="267"/>
      <point x="410" y="98"/>
      <point x="432" y="50" type="curve" smooth="yes"/>
      <point x="443" y="21"/>
      <point x="460" y="0"/>
      <point x="477" y="0" type="curve" smooth="yes"/>
      <point x="507" y="0" type="line" smooth="yes"/>
      <point x="512" y="0"/>
      <point x="515" y="14"/>
      <point x="515" y="28" type="curve" smooth="yes"/>
      <point x="515" y="35"/>
      <point x="514" y="42"/>
      <point x="512" y="48" type="curve" smooth="yes"/>
      <point x="443" y="219"/>
      <point x="381" y="368"/>
      <point x="327" y="493" type="curve"/>
      <point x="326" y="499"/>
      <point x="324" y="504"/>
      <point x="324" y="507" type="curve" smooth="yes"/>
      <point x="324" y="511"/>
      <point x="326" y="513"/>
      <point x="327" y="515" type="curve" smooth="yes"/>
      <point x="395" y="678"/>
      <point x="466" y="845"/>
      <point x="510" y="960" type="curve" smooth="yes"/>
      <point x="513" y="965"/>
      <point x="514" y="973"/>
      <point x="514" y="981" type="curve" smooth="yes"/>
      <point x="514" y="994"/>
      <point x="510" y="1006"/>
      <point x="505" y="1006" type="curve" smooth="yes"/>
      <point x="475" y="1006" type="line" smooth="yes"/>
      <point x="460" y="1006"/>
      <point x="451" y="987"/>
      <point x="439" y="958" type="curve" smooth="yes"/>
      <point x="416" y="903"/>
      <point x="344" y="717"/>
      <point x="290" y="585" type="curve" smooth="yes"/>
      <point x="289" y="582"/>
      <point x="286" y="581"/>
      <point x="284" y="581" type="curve" smooth="yes"/>
      <point x="283" y="581"/>
      <point x="283" y="583"/>
      <point x="282" y="585" type="curve" smooth="yes"/>
      <point x="210" y="750"/>
      <point x="163" y="899"/>
      <point x="139" y="956" type="curve" smooth="yes"/>
      <point x="127" y="985"/>
      <point x="117" y="1006"/>
      <point x="101" y="1006" type="curve" smooth="yes"/>
      <point x="68" y="1006" type="line" smooth="yes"/>
      <point x="64" y="1006"/>
      <point x="59" y="992"/>
      <point x="59" y="978" type="curve" smooth="yes"/>
      <point x="59" y="971"/>
      <point x="61" y="963"/>
      <point x="63" y="958" type="curve" smooth="yes"/>
      <point x="87" y="892"/>
      <point x="152" y="702"/>
      <point x="235" y="511" type="curve"/>
      <point x="236" y="506"/>
      <point x="236" y="502"/>
      <point x="236" y="499" type="curve" smooth="yes"/>
      <point x="236" y="495"/>
      <point x="236" y="494"/>
      <point x="235" y="492" type="curve" smooth="yes"/>
      <point x="172" y="349"/>
      <point x="116" y="193"/>
      <point x="57" y="46" type="curve" smooth="yes"/>
      <point x="55" y="41"/>
      <point x="54" y="33"/>
      <point x="54" y="26" type="curve" smooth="yes"/>
      <point x="54" y="13"/>
      <point x="57" y="0"/>
    </contour>
  </outline>
</glyph>
<glyph name="y" format="1">
  <advance width="644"/>
  <unicode hex="0079"/>
  <outline>
    <contour>
      <point x="265" y="-269" type="curve" smooth="yes"/>
      <point x="338" y="-261"/>
      <point x="358" y="-170"/>
      <point x="390" y="8" type="curve" smooth="yes"/>
      <point x="557" y="943" type="line" smooth="yes"/>
      <point x="558" y="950"/>
      <point x="559" y="957"/>
      <point x="559" y="964" type="curve" smooth="yes"/>
      <point x="559" y="990"/>
      <point x="553" y="1006"/>
      <point x="543" y="1006" type="curve" smooth="yes"/>
      <point x="511" y="1006" type="line" smooth="yes"/>
      <point x="496" y="1006"/>
      <point x="487" y="990"/>
      <point x="481" y="947" type="curve" smooth="yes"/>
      <point x="353" y="148" type="line" smooth="yes"/>
      <point x="352" y="141"/>
      <point x="351" y="137"/>
      <point x="349" y="137" type="curve" smooth="yes"/>
      <point x="347" y="137"/>
      <point x="346" y="140"/>
      <point x="344" y="146" type="curve" smooth="yes"/>
      <point x="163" y="950" type="line"/>
      <point x="155" y="992"/>
      <point x="146" y="1006"/>
      <point x="130" y="1006" type="curve" smooth="yes"/>
      <point x="96" y="1006" type="line" smooth="yes"/>
      <point x="87" y="1006"/>
      <point x="80" y="992"/>
      <point x="80" y="969" type="curve" smooth="yes"/>
      <point x="80" y="962"/>
      <point x="81" y="954"/>
      <point x="82" y="947" type="curve" smooth="yes"/>
      <point x="292" y="110" type="line" smooth="yes"/>
      <point x="302" y="72"/>
      <point x="311" y="33"/>
      <point x="311" y="2" type="curve" smooth="yes"/>
      <point x="311" y="-75"/>
      <point x="291" y="-195"/>
      <point x="245" y="-195" type="curve" smooth="yes"/>
      <point x="216" y="-195"/>
      <point x="177" y="-152"/>
      <point x="175" y="-152" type="curve" smooth="yes"/>
      <point x="167" y="-152"/>
      <point x="155" y="-187"/>
      <point x="155" y="-210" type="curve" smooth="yes"/>
      <point x="155" y="-214"/>
      <point x="155" y="-218"/>
      <point x="156" y="-221" type="curve" smooth="yes"/>
      <point x="164" y="-247"/>
      <point x="219" y="-274"/>
    </contour>
    <contour>
      <point x="322" y="1006" type="move" name="top"/>
    </contour>
  </outline>
</glyph>
<glyph name="z" format="1">
  <advance width="492"/>
  <unicode hex="007A"/>
  <outline>
    <contour>
      <point x="99" y="0" type="curve" smooth="yes"/>
      <point x="423" y="0" type="line" smooth="yes"/>
      <point x="428" y="0"/>
      <point x="435" y="3"/>
      <point x="435" y="17" type="curve" smooth="yes"/>
      <point x="435" y="53" type="line" smooth="yes"/>
      <point x="435" y="68"/>
      <point x="428" y="70"/>
      <point x="423" y="70" type="curve" smooth="yes"/>
      <point x="158" y="70" type="line"/>
      <point x="413" y="905" type="line" smooth="yes"/>
      <point x="417" y="919"/>
      <point x="422" y="943"/>
      <point x="422" y="966" type="curve" smooth="yes"/>
      <point x="422" y="987" type="line" smooth="yes"/>
      <point x="422" y="1003"/>
      <point x="409" y="1006"/>
      <point x="402" y="1006" type="curve" smooth="yes"/>
      <point x="92" y="1006" type="line" smooth="yes"/>
      <point x="85" y="1006"/>
      <point x="81" y="1000"/>
      <point x="81" y="987" type="curve" smooth="yes"/>
      <point x="81" y="959" type="line" smooth="yes"/>
      <point x="81" y="939"/>
      <point x="85" y="936"/>
      <point x="92" y="936" type="curve" smooth="yes"/>
      <point x="348" y="936" type="line"/>
      <point x="98" y="111" type="line" smooth="yes"/>
      <point x="87" y="76"/>
      <point x="80" y="62"/>
      <point x="80" y="39" type="curve" smooth="yes"/>
      <point x="80" y="15" type="line" smooth="yes"/>
      <point x="80" y="3"/>
      <point x="93" y="0"/>
    </contour>
    <contour>
      <point x="256" y="1006" type="move" name="top"/>
    </contour>
  </outline>
</glyph>
<glyph name="braceleft" format="1">
  <advance width="499"/>
  <unicode hex="007B"/>
  <outline>
    <contour>
      <point x="290" y="-123" type="curve" smooth="yes"/>
      <point x="382" y="-123" type="line" smooth="yes"/>
      <point x="397" y="-123"/>
      <point x="409" y="-118"/>
      <point x="409" y="-86" type="curve" smooth="yes"/>
      <point x="409" y="-56" type="line" smooth="yes"/>
      <point x="409" y="-4"/>
      <point x="349" y="-23"/>
      <point x="331" y="-12" type="curve" smooth="yes"/>
      <point x="244" y="44"/>
      <point x="411" y="701"/>
      <point x="208" y="701" type="curve" smooth="yes"/>
      <point x="200" y="701"/>
      <point x="200" y="719"/>
      <point x="208" y="719" type="curve" smooth="yes"/>
      <point x="297" y="719"/>
      <point x="298" y="834"/>
      <point x="298" y="1114" type="curve" smooth="yes"/>
      <point x="298" y="1430"/>
      <point x="299" y="1452"/>
      <point x="331" y="1452" type="curve" smooth="yes"/>
      <point x="392" y="1452"/>
      <point x="409" y="1454"/>
      <point x="409" y="1476" type="curve" smooth="yes"/>
      <point x="409" y="1506" type="line" smooth="yes"/>
      <point x="409" y="1538"/>
      <point x="397" y="1543"/>
      <point x="382" y="1543" type="curve" smooth="yes"/>
      <point x="310" y="1543" type="line" smooth="yes"/>
      <point x="216" y="1543"/>
      <point x="194" y="1499"/>
      <point x="194" y="1145" type="curve" smooth="yes"/>
      <point x="194" y="873"/>
      <point x="191" y="807"/>
      <point x="148" y="807" type="curve" smooth="yes"/>
      <point x="124" y="807"/>
      <point x="82" y="792"/>
      <point x="82" y="736" type="curve" smooth="yes"/>
      <point x="82" y="684" type="line" smooth="yes"/>
      <point x="82" y="628"/>
      <point x="126" y="623"/>
      <point x="148" y="613" type="curve" smooth="yes"/>
      <point x="247" y="568"/>
      <point x="128" y="-123"/>
    </contour>
  </outline>
</glyph>
<glyph name="braceleft" format="1">
  <advance width="499"/>
  <unicode hex="007B"/>
  <outline>
    <contour>
      <point x="105" y="736" type="line" smooth="yes"/>
      <point x="105" y="684"/>
      <point x="126" y="690"/>
      <point x="171" y="690" type="curve" smooth="yes"/>
      <point x="213" y="690"/>
      <point x="217" y="674"/>
      <point x="217" y="522" type="curve" smooth="yes"/>
      <point x="217" y="293" type="line" smooth="yes"/>
      <point x="217" y="-54"/>
      <point x="239" y="-65"/>
      <point x="333" y="-65" type="curve" smooth="yes"/>
      <point x="376" y="-65" type="line" smooth="yes"/>
      <point x="391" y="-65"/>
      <point x="403" y="-59"/>
      <point x="403" y="-35" type="curve" smooth="yes"/>
      <point x="403" y="-16" type="line" smooth="yes"/>
      <point x="403" y="6"/>
      <point x="390" y="9"/>
      <point x="345" y="9" type="curve" smooth="yes"/>
      <point x="292" y="9"/>
      <point x="292" y="11"/>
      <point x="292" y="327" type="curve" smooth="yes"/>
      <point x="292" y="569" type="line" smooth="yes"/>
      <point x="292" y="703"/>
      <point x="280" y="733"/>
      <point x="220" y="741" type="curve"/>
      <point x="280" y="748"/>
      <point x="292" y="775"/>
      <point x="292" y="909" type="curve" smooth="yes"/>
      <point x="292" y="1151" type="line" smooth="yes"/>
      <point x="292" y="1467"/>
      <point x="292" y="1469"/>
      <point x="345" y="1469" type="curve" smooth="yes"/>
      <point x="390" y="1469"/>
      <point x="403" y="1472"/>
      <point x="403" y="1494" type="curve" smooth="yes"/>
      <point x="403" y="1513" type="line" smooth="yes"/>
      <point x="403" y="1537"/>
      <point x="391" y="1543"/>
      <point x="376" y="1543" type="curve" smooth="yes"/>
      <point x="333" y="1543" type="line" smooth="yes"/>
      <point x="239" y="1543"/>
      <point x="217" y="1533"/>
      <point x="217" y="1186" type="curve" smooth="yes"/>
      <point x="217" y="950" type="line" smooth="yes"/>
      <point x="217" y="798"/>
      <point x="213" y="782"/>
      <point x="171" y="782" type="curve" smooth="yes"/>
      <point x="127" y="782"/>
      <point x="105" y="792"/>
      <point x="105" y="741" type="curve" smooth="yes"/>
    </contour>
  </outline>
</glyph>
<glyph name="bar" format="1">
  <advance width="278"/>
  <unicode hex="007C"/>
  <outline>
    <contour>
      <point x="131" y="-150" type="curve" smooth="yes"/>
      <point x="148" y="-150" type="line" smooth="yes"/>
      <point x="163" y="-150"/>
      <point x="174" y="-136"/>
      <point x="174" y="-93" type="curve" smooth="yes"/>
      <point x="174" y="1498" type="line" smooth="yes"/>
      <point x="174" y="1541"/>
      <point x="163" y="1555"/>
      <point x="148" y="1555" type="curve" smooth="yes"/>
      <point x="131" y="1555" type="line" smooth="yes"/>
      <point x="115" y="1555"/>
      <point x="103" y="1541"/>
      <point x="103" y="1498" type="curve" smooth="yes"/>
      <point x="103" y="-93" type="line" smooth="yes"/>
      <point x="103" y="-136"/>
      <point x="115" y="-150"/>
    </contour>
  </outline>
</glyph>
<glyph name="braceright" format="1">
  <advance width="499"/>
  <unicode hex="007D"/>
  <outline>
    <contour>
      <point x="403" y="742" type="line" smooth="yes"/>
      <point x="403" y="794"/>
      <point x="382" y="788"/>
      <point x="337" y="788" type="curve" smooth="yes"/>
      <point x="295" y="788"/>
      <point x="291" y="804"/>
      <point x="291" y="956" type="curve" smooth="yes"/>
      <point x="291" y="1185" type="line" smooth="yes"/>
      <point x="291" y="1532"/>
      <point x="269" y="1543"/>
      <point x="175" y="1543" type="curve" smooth="yes"/>
      <point x="132" y="1543" type="line" smooth="yes"/>
      <point x="117" y="1543"/>
      <point x="105" y="1537"/>
      <point x="105" y="1513" type="curve" smooth="yes"/>
      <point x="105" y="1494" type="line" smooth="yes"/>
      <point x="105" y="1472"/>
      <point x="118" y="1469"/>
      <point x="163" y="1469" type="curve" smooth="yes"/>
      <point x="216" y="1469"/>
      <point x="216" y="1467"/>
      <point x="216" y="1151" type="curve" smooth="yes"/>
      <point x="216" y="909" type="line" smooth="yes"/>
      <point x="216" y="775"/>
      <point x="228" y="745"/>
      <point x="288" y="737" type="curve"/>
      <point x="228" y="730"/>
      <point x="216" y="703"/>
      <point x="216" y="569" type="curve" smooth="yes"/>
      <point x="216" y="327" type="line" smooth="yes"/>
      <point x="216" y="11"/>
      <point x="216" y="9"/>
      <point x="163" y="9" type="curve" smooth="yes"/>
      <point x="118" y="9"/>
      <point x="105" y="6"/>
      <point x="105" y="-16" type="curve" smooth="yes"/>
      <point x="105" y="-35" type="line" smooth="yes"/>
      <point x="105" y="-59"/>
      <point x="117" y="-65"/>
      <point x="132" y="-65" type="curve" smooth="yes"/>
      <point x="175" y="-65" type="line" smooth="yes"/>
      <point x="269" y="-65"/>
      <point x="291" y="-55"/>
      <point x="291" y="292" type="curve" smooth="yes"/>
      <point x="291" y="528" type="line" smooth="yes"/>
      <point x="291" y="680"/>
      <point x="295" y="696"/>
      <point x="337" y="696" type="curve" smooth="yes"/>
      <point x="381" y="696"/>
      <point x="403" y="692"/>
      <point x="403" y="737" type="curve" smooth="yes"/>
    </contour>
  </outline>
</glyph>
<glyph name="asciitilde" format="1">
  <advance width="1399"/>
  <unicode hex="007E"/>
  <outline>
    <contour>
      <point x="434" y="818" type="curve" smooth="yes"/>
      <point x="630" y="822"/>
      <point x="860" y="996"/>
      <point x="1003" y="1003" type="curve" smooth="yes"/>
      <point x="1067" y="1006"/>
      <point x="1100" y="933"/>
      <point x="1145" y="859" type="curve" smooth="yes"/>
      <point x="1154" y="844"/>
      <point x="1166" y="828"/>
      <point x="1186" y="831" type="curve" smooth="yes"/>
      <point x="1199" y="833"/>
      <point x="1198" y="833"/>
      <point x="1207" y="839" type="curve" smooth="yes"/>
      <point x="1225" y="851"/>
      <point x="1223" y="859"/>
      <point x="1223" y="875" type="curve" smooth="yes"/>
      <point x="1223" y="883"/>
      <point x="1221" y="892"/>
      <point x="1216" y="902" type="curve" smooth="yes"/>
      <point x="1160" y="1018"/>
      <point x="1118" y="1086"/>
      <point x="988" y="1081" type="curve" smooth="yes"/>
      <point x="813" y="1074"/>
      <point x="601" y="897"/>
      <point x="448" y="896" type="curve" smooth="yes"/>
      <point x="355" y="895"/>
      <point x="304" y="936"/>
      <point x="262" y="1057" type="curve" smooth="yes"/>
      <point x="259" y="1065"/>
      <point x="256" y="1084"/>
      <point x="232" y="1084" type="curve" smooth="yes"/>
      <point x="225" y="1084"/>
      <point x="216" y="1082"/>
      <point x="206" y="1077" type="curve" smooth="yes"/>
      <point x="196" y="1073" type="line" smooth="yes"/>
      <point x="173" y="1062"/>
      <point x="180" y="1053"/>
      <point x="180" y="1040" type="curve" smooth="yes"/>
      <point x="180" y="1032"/>
      <point x="181" y="1025"/>
      <point x="185" y="1015" type="curve" smooth="yes"/>
      <point x="214" y="937"/>
      <point x="270" y="815"/>
    </contour>
  </outline>
</glyph>
<glyph name="sterling" format="1">
  <advance width="841.007776703"/>
  <unicode hex="00A3"/>
  <outline>
    <contour>
      <point x="73" y="0" type="curve" smooth="yes"/>
      <point x="732" y="0" type="line" smooth="yes"/>
      <point x="754" y="0"/>
      <point x="760" y="1"/>
      <point x="760" y="23" type="curve" smooth="yes"/>
      <point x="760" y="37" type="line" smooth="yes"/>
      <point x="760" y="59"/>
      <point x="754" y="60"/>
      <point x="732" y="60" type="curve" smooth="yes"/>
      <point x="316" y="60" type="line" smooth="yes"/>
      <point x="290" y="60"/>
      <point x="288" y="64"/>
      <point x="288" y="100" type="curve" smooth="yes"/>
      <point x="288" y="682" type="line"/>
      <point x="636" y="682" type="line" smooth="yes"/>
      <point x="647" y="682"/>
      <point x="658" y="684"/>
      <point x="658" y="707" type="curve" smooth="yes"/>
      <point x="658" y="716" type="line" smooth="yes"/>
      <point x="658" y="740"/>
      <point x="647" y="742"/>
      <point x="636" y="742" type="curve" smooth="yes"/>
      <point x="290" y="742" type="line"/>
      <point x="290" y="906" type="line" smooth="yes"/>
      <point x="290" y="1272"/>
      <point x="321" y="1379"/>
      <point x="523" y="1388" type="curve" smooth="yes"/>
      <point x="634" y="1393"/>
      <point x="690" y="1357"/>
      <point x="723" y="1336" type="curve" smooth="yes"/>
      <point x="751" y="1318"/>
      <point x="765" y="1314"/>
      <point x="772" y="1338" type="curve" smooth="yes"/>
      <point x="775" y="1346" type="line" smooth="yes"/>
      <point x="781" y="1367"/>
      <point x="759" y="1383"/>
      <point x="741" y="1394" type="curve" smooth="yes"/>
      <point x="721" y="1406"/>
      <point x="656" y="1455"/>
      <point x="511" y="1451" type="curve" smooth="yes"/>
      <point x="235" y="1443"/>
      <point x="213" y="1232"/>
      <point x="212" y="889" type="curve" smooth="yes"/>
      <point x="212" y="874"/>
      <point x="212" y="758"/>
      <point x="212" y="742" type="curve"/>
      <point x="55" y="742" type="line" smooth="yes"/>
      <point x="45" y="742"/>
      <point x="31" y="740"/>
      <point x="31" y="716" type="curve" smooth="yes"/>
      <point x="31" y="707" type="line" smooth="yes"/>
      <point x="31" y="684"/>
      <point x="45" y="682"/>
      <point x="55" y="682" type="curve" smooth="yes"/>
      <point x="186" y="682" type="line" smooth="yes"/>
      <point x="206" y="682"/>
      <point x="212" y="666"/>
      <point x="212" y="639" type="curve" smooth="yes"/>
      <point x="212" y="83" type="line" smooth="yes"/>
      <point x="212" y="63"/>
      <point x="210" y="60"/>
      <point x="186" y="60" type="curve" smooth="yes"/>
      <point x="73" y="60" type="line" smooth="yes"/>
      <point x="38" y="60"/>
      <point x="31" y="60"/>
      <point x="31" y="37" type="curve" smooth="yes"/>
      <point x="31" y="24" type="line" smooth="yes"/>
      <point x="31" y="2"/>
      <point x="38" y="0"/>
    </contour>
  </outline>
</glyph>
<glyph name="currency" format="1">
  <advance width="946"/>
  <unicode hex="00A4"/>
  <outline>
    <contour>
      <point x="473" y="679" type="curve" smooth="yes"/>
      <point x="575" y="679"/>
      <point x="636" y="704"/>
      <point x="702" y="747" type="curve"/>
      <point x="726" y="723" type="line" smooth="yes"/>
      <point x="741" y="707"/>
      <point x="755" y="693"/>
      <point x="769" y="693" type="curve" smooth="yes"/>
      <point x="776" y="693"/>
      <point x="782" y="697"/>
      <point x="788" y="703" type="curve" smooth="yes"/>
      <point x="813" y="728" type="line" smooth="yes"/>
      <point x="821" y="735"/>
      <point x="824" y="742"/>
      <point x="824" y="749" type="curve" smooth="yes"/>
      <point x="824" y="763"/>
      <point x="811" y="776"/>
      <point x="795" y="792" type="curve" smooth="yes"/>
      <point x="776" y="811" type="line"/>
      <point x="835" y="879"/>
      <point x="866" y="967"/>
      <point x="866" y="1063" type="curve" smooth="yes"/>
      <point x="866" y="1161"/>
      <point x="834" y="1251"/>
      <point x="774" y="1320" type="curve"/>
      <point x="795" y="1340" type="line" smooth="yes"/>
      <point x="811" y="1356"/>
      <point x="824" y="1370"/>
      <point x="824" y="1384" type="curve" smooth="yes"/>
      <point x="824" y="1390"/>
      <point x="821" y="1396"/>
      <point x="815" y="1403" type="curve" smooth="yes"/>
      <point x="790" y="1427" type="line" smooth="yes"/>
      <point x="782" y="1435"/>
      <point x="776" y="1438"/>
      <point x="769" y="1438" type="curve" smooth="yes"/>
      <point x="754" y="1438"/>
      <point x="741" y="1425"/>
      <point x="725" y="1409" type="curve" smooth="yes"/>
      <point x="700" y="1384" type="line"/>
      <point x="635" y="1426"/>
      <point x="574" y="1451"/>
      <point x="473" y="1451" type="curve" smooth="yes"/>
      <point x="372" y="1451"/>
      <point x="312" y="1426"/>
      <point x="247" y="1384" type="curve"/>
      <point x="221" y="1410" type="line" smooth="yes"/>
      <point x="205" y="1425"/>
      <point x="192" y="1438"/>
      <point x="178" y="1438" type="curve" smooth="yes"/>
      <point x="171" y="1438"/>
      <point x="163" y="1435"/>
      <point x="156" y="1427" type="curve" smooth="yes"/>
      <point x="131" y="1403" type="line" smooth="yes"/>
      <point x="124" y="1397"/>
      <point x="121" y="1390"/>
      <point x="121" y="1384" type="curve" smooth="yes"/>
      <point x="121" y="1370"/>
      <point x="135" y="1356"/>
      <point x="151" y="1340" type="curve" smooth="yes"/>
      <point x="172" y="1320" type="line"/>
      <point x="111" y="1251"/>
      <point x="80" y="1161"/>
      <point x="80" y="1063" type="curve" smooth="yes"/>
      <point x="80" y="967"/>
      <point x="111" y="878"/>
      <point x="170" y="811" type="curve"/>
      <point x="151" y="792" type="line" smooth="yes"/>
      <point x="136" y="776"/>
      <point x="123" y="763"/>
      <point x="123" y="749" type="curve" smooth="yes"/>
      <point x="123" y="742"/>
      <point x="126" y="735"/>
      <point x="134" y="727" type="curve" smooth="yes"/>
      <point x="158" y="703" type="line" smooth="yes"/>
      <point x="164" y="696"/>
      <point x="171" y="693"/>
      <point x="177" y="693" type="curve" smooth="yes"/>
      <point x="191" y="693"/>
      <point x="205" y="707"/>
      <point x="221" y="723" type="curve" smooth="yes"/>
      <point x="244" y="747" type="line"/>
      <point x="309" y="704"/>
      <point x="370" y="679"/>
    </contour>
    <contour>
      <point x="473" y="743" type="curve" smooth="yes"/>
      <point x="243" y="743"/>
      <point x="157" y="913"/>
      <point x="157" y="1059" type="curve" smooth="yes"/>
      <point x="157" y="1214"/>
      <point x="243" y="1379"/>
      <point x="473" y="1379" type="curve" smooth="yes"/>
      <point x="702" y="1379"/>
      <point x="787" y="1214"/>
      <point x="787" y="1059" type="curve" smooth="yes"/>
      <point x="787" y="913"/>
      <point x="702" y="743"/>
    </contour>
  </outline>
</glyph>
<glyph name="yen" format="1">
  <advance width="606"/>
  <unicode hex="00A5"/>
  <outline>
    <contour>
      <point x="152" y="563" type="curve" smooth="yes"/>
      <point x="446" y="563" type="line" smooth="yes"/>
      <point x="461" y="563"/>
      <point x="466" y="563"/>
      <point x="466" y="606" type="curve" smooth="yes"/>
      <point x="466" y="610" type="line" smooth="yes"/>
      <point x="466" y="653"/>
      <point x="461" y="653"/>
      <point x="446" y="653" type="curve" smooth="yes"/>
      <point x="152" y="653" type="line" smooth="yes"/>
      <point x="137" y="653"/>
      <point x="133" y="653"/>
      <point x="133" y="610" type="curve" smooth="yes"/>
      <point x="133" y="606" type="line" smooth="yes"/>
      <point x="133" y="563"/>
      <point x="137" y="563"/>
    </contour>
    <contour>
      <point x="152" y="366" type="curve" smooth="yes"/>
      <point x="446" y="366" type="line" smooth="yes"/>
      <point x="461" y="366"/>
      <point x="466" y="366"/>
      <point x="466" y="409" type="curve" smooth="yes"/>
      <point x="466" y="413" type="line" smooth="yes"/>
      <point x="466" y="456"/>
      <point x="461" y="456"/>
      <point x="446" y="456" type="curve" smooth="yes"/>
      <point x="152" y="456" type="line" smooth="yes"/>
      <point x="137" y="456"/>
      <point x="133" y="456"/>
      <point x="133" y="413" type="curve" smooth="yes"/>
      <point x="133" y="409" type="line" smooth="yes"/>
      <point x="133" y="366"/>
      <point x="137" y="366"/>
    </contour>
    <component base="Y"/>
  </outline>
</glyph>
<glyph name="brokenbar" format="1">
  <advance width="446"/>
  <unicode hex="00A6"/>
  <outline>
    <contour>
      <point x="206" y="822" type="curve" smooth="yes"/>
      <point x="239" y="822" type="line" smooth="yes"/>
      <point x="254" y="822"/>
      <point x="262" y="826"/>
      <point x="262" y="869" type="curve" smooth="yes"/>
      <point x="262" y="1471" type="line" smooth="yes"/>
      <point x="262" y="1514"/>
      <point x="254" y="1518"/>
      <point x="239" y="1518" type="curve" smooth="yes"/>
      <point x="206" y="1518" type="line" smooth="yes"/>
      <point x="192" y="1518"/>
      <point x="184" y="1514"/>
      <point x="184" y="1471" type="curve" smooth="yes"/>
      <point x="184" y="869" type="line" smooth="yes"/>
      <point x="184" y="826"/>
      <point x="192" y="822"/>
    </contour>
    <contour>
      <point x="206" y="-75" type="curve" smooth="yes"/>
      <point x="239" y="-75" type="line" smooth="yes"/>
      <point x="254" y="-75"/>
      <point x="262" y="-71"/>
      <point x="262" y="-28" type="curve" smooth="yes"/>
      <point x="262" y="570" type="line" smooth="yes"/>
      <point x="262" y="613"/>
      <point x="254" y="617"/>
      <point x="239" y="617" type="curve" smooth="yes"/>
      <point x="206" y="617" type="line" smooth="yes"/>
      <point x="192" y="617"/>
      <point x="184" y="613"/>
      <point x="184" y="570" type="curve" smooth="yes"/>
      <point x="184" y="-28" type="line" smooth="yes"/>
      <point x="184" y="-71"/>
      <point x="192" y="-75"/>
    </contour>
  </outline>
</glyph>
<glyph name="section" format="1">
  <advance width="685"/>
  <unicode hex="00A7"/>
  <outline>
    <contour>
      <point x="419" y="521" type="line"/>
      <point x="399" y="534"/>
      <point x="379" y="547"/>
      <point x="358" y="559" type="curve" smooth="yes"/>
      <point x="265" y="614"/>
      <point x="224" y="669"/>
      <point x="224" y="778" type="curve" smooth="yes"/>
      <point x="224" y="855"/>
      <point x="256" y="911"/>
      <point x="322" y="930" type="curve"/>
      <point x="332" y="924"/>
      <point x="343" y="917"/>
      <point x="353" y="911" type="curve" smooth="yes"/>
      <point x="434" y="862"/>
      <point x="505" y="804"/>
      <point x="505" y="681" type="curve" smooth="yes"/>
      <point x="505" y="606"/>
      <point x="477" y="551"/>
      <point x="421" y="521" type="curve"/>
    </contour>
    <contour>
      <point x="181" y="22"/>
      <point x="243" y="-13"/>
      <point x="343" y="-13" type="curve" smooth="yes"/>
      <point x="490" y="-13"/>
      <point x="574" y="100"/>
      <point x="574" y="247" type="curve" smooth="yes"/>
      <point x="574" y="356"/>
      <point x="532" y="425"/>
      <point x="474" y="478" type="curve"/>
      <point x="538" y="519"/>
      <point x="574" y="585"/>
      <point x="574" y="680" type="curve" smooth="yes"/>
      <point x="574" y="853"/>
      <point x="467" y="927"/>
      <point x="358" y="992" type="curve" smooth="yes"/>
      <point x="265" y="1047"/>
      <point x="224" y="1102"/>
      <point x="224" y="1211" type="curve" smooth="yes"/>
      <point x="224" y="1301"/>
      <point x="269" y="1389"/>
      <point x="360" y="1389" type="curve" smooth="yes"/>
      <point x="427" y="1389"/>
      <point x="465" y="1363"/>
      <point x="507" y="1318" type="curve"/>
      <point x="522" y="1323" type="line"/>
      <point x="543" y="1355" type="line"/>
      <point x="539" y="1374" type="line"/>
      <point x="489" y="1427"/>
      <point x="426" y="1451"/>
      <point x="358" y="1451" type="curve" smooth="yes"/>
      <point x="236" y="1451"/>
      <point x="155" y="1351"/>
      <point x="155" y="1208" type="curve" smooth="yes"/>
      <point x="155" y="1093"/>
      <point x="201" y="1025"/>
      <point x="262" y="973" type="curve"/>
      <point x="195" y="938"/>
      <point x="155" y="875"/>
      <point x="155" y="775" type="curve" smooth="yes"/>
      <point x="155" y="607"/>
      <point x="252" y="539"/>
      <point x="353" y="478" type="curve" smooth="yes"/>
      <point x="434" y="429"/>
      <point x="505" y="371"/>
      <point x="505" y="248" type="curve" smooth="yes"/>
      <point x="505" y="144"/>
      <point x="451" y="49"/>
      <point x="344" y="49" type="curve" smooth="yes"/>
      <point x="262" y="49"/>
      <point x="208" y="91"/>
      <point x="155" y="155" type="curve"/>
      <point x="136" y="149" type="line"/>
      <point x="119" y="120" type="line"/>
      <point x="120" y="96" type="line"/>
    </contour>
  </outline>
</glyph>
<glyph name="dieresis" format="1">
  <advance width="254"/>
  <unicode hex="00A8"/>
  <outline>
    <contour>
      <point x="100" y="0" type="curve" smooth="yes"/>
      <point x="143" y="0" type="line" smooth="yes"/>
      <point x="158" y="0"/>
      <point x="170" y="34"/>
      <point x="170" y="77" type="curve" smooth="yes"/>
      <point x="170" y="173" type="line" smooth="yes"/>
      <point x="170" y="216"/>
      <point x="158" y="250"/>
      <point x="143" y="250" type="curve" smooth="yes"/>
      <point x="100" y="250" type="line" smooth="yes"/>
      <point x="85" y="250"/>
      <point x="73" y="216"/>
      <point x="73" y="173" type="curve" smooth="yes"/>
      <point x="73" y="77" type="line" smooth="yes"/>
      <point x="73" y="34"/>
      <point x="85" y="0"/>
    </contour>
    <contour>
      <point x="317.472" y="0" type="curve" smooth="yes"/>
      <point x="360.472" y="0" type="line" smooth="yes"/>
      <point x="375.472" y="0"/>
      <point x="386.472" y="34"/>
      <point x="386.472" y="77" type="curve" smooth="yes"/>
      <point x="386.472" y="173" type="line" smooth="yes"/>
      <point x="386.472" y="216"/>
      <point x="375.472" y="250"/>
      <point x="360.472" y="250" type="curve" smooth="yes"/>
      <point x="317.472" y="250" type="line" smooth="yes"/>
      <point x="303.472" y="250"/>
      <point x="292.472" y="216"/>
      <point x="292.472" y="173" type="curve" smooth="yes"/>
      <point x="292.472" y="77" type="line" smooth="yes"/>
      <point x="292.472" y="34"/>
      <point x="303.472" y="0"/>
    </contour>
    <contour>
      <point x="229.736" y="1006" type="move" name="_top"/>
    </contour>
  </outline>
</glyph>
<glyph name="guillemotleft" format="1">
  <advance width="494"/>
  <unicode hex="00AB"/>
  <outline>
    <contour>
      <point x="391.0" y="101.0" type="curve" smooth="yes"/>
      <point x="397.0" y="101.0"/>
      <point x="400.0" y="114.0"/>
      <point x="400.0" y="139.0" type="curve" smooth="yes"/>
      <point x="400.0" y="167.0" type="line" smooth="yes"/>
      <point x="400.0" y="210.0"/>
      <point x="392.0" y="218.0"/>
      <point x="376.0" y="241.0" type="curve" smooth="yes"/>
      <point x="138.0" y="592.0" type="line" smooth="yes"/>
      <point x="135.0" y="595.0"/>
      <point x="134.0" y="600.0"/>
      <point x="134.0" y="604.0" type="curve" smooth="yes"/>
      <point x="134.0" y="609.0"/>
      <point x="135.0" y="614.0"/>
      <point x="137.0" y="617.0" type="curve" smooth="yes"/>
      <point x="377.0" y="1010.0" type="line" smooth="yes"/>
      <point x="392.0" y="1034.0"/>
      <point x="400.0" y="1051.0"/>
      <point x="400.0" y="1094.0" type="curve" smooth="yes"/>
      <point x="400.0" y="1109.0" type="line" smooth="yes"/>
      <point x="400.0" y="1137.0"/>
      <point x="397.0" y="1151.0"/>
      <point x="390.0" y="1151.0" type="curve" smooth="yes"/>
      <point x="386.0" y="1151.0"/>
      <point x="381.0" y="1148.0"/>
      <point x="376.0" y="1139.0" type="curve" smooth="yes"/>
      <point x="101.0" y="692.0" type="line" smooth="yes"/>
      <point x="78.0" y="655.0"/>
      <point x="75.0" y="650.0"/>
      <point x="75.0" y="611.0" type="curve" smooth="yes"/>
      <point x="75.0" y="606.0" type="line" smooth="yes"/>
      <point x="75.0" y="566.0"/>
      <point x="76.0" y="555.0"/>
      <point x="100.0" y="520.0" type="curve" smooth="yes"/>
      <point x="377.0" y="119.0" type="line" smooth="yes"/>
      <point x="383.0" y="110.0"/>
      <point x="388.0" y="101.0"/>
    </contour>
  </outline>
</glyph>
<glyph name="registered" format="1">
  <advance width="1306"/>
  <unicode hex="00AE"/>
  <outline>
    <contour>
      <point x="525" y="779" type="line" smooth="yes"/>
      <point x="522" y="779"/>
      <point x="522" y="782"/>
      <point x="522" y="784" type="curve" smooth="yes"/>
      <point x="522" y="1069" type="line" smooth="yes"/>
      <point x="522" y="1072"/>
      <point x="523" y="1074"/>
      <point x="526" y="1074" type="curve" smooth="yes"/>
      <point x="613" y="1074" type="line" smooth="yes"/>
      <point x="730" y="1074"/>
      <point x="796" y="1079"/>
      <point x="796" y="933" type="curve" smooth="yes"/>
      <point x="796" y="784"/>
      <point x="749" y="779"/>
      <point x="629" y="779" type="curve" smooth="yes"/>
    </contour>
    <contour>
      <point x="293" y="51"/>
      <point x="169" y="390"/>
      <point x="169" y="714" type="curve" smooth="yes"/>
      <point x="169" y="1049"/>
      <point x="293" y="1388"/>
      <point x="655" y="1388" type="curve" smooth="yes"/>
      <point x="1017" y="1388"/>
      <point x="1141" y="1049"/>
      <point x="1141" y="714" type="curve" smooth="yes"/>
      <point x="1141" y="390"/>
      <point x="1017" y="51"/>
      <point x="655" y="51" type="curve" smooth="yes"/>
    </contour>
    <contour>
      <point x="1054" y="-13"/>
      <point x="1216" y="331"/>
      <point x="1216" y="718" type="curve" smooth="yes"/>
      <point x="1216" y="1105"/>
      <point x="1054" y="1451"/>
      <point x="653" y="1451" type="curve" smooth="yes"/>
      <point x="254" y="1451"/>
      <point x="90" y="1105"/>
      <point x="90" y="718" type="curve" smooth="yes"/>
      <point x="90" y="331"/>
      <point x="254" y="-13"/>
      <point x="653" y="-13" type="curve" smooth="yes"/>
    </contour>
    <contour>
      <point x="508" y="325" type="line" smooth="yes"/>
      <point x="518" y="325"/>
      <point x="522" y="328"/>
      <point x="522" y="348" type="curve" smooth="yes"/>
      <point x="522" y="715" type="line" smooth="yes"/>
      <point x="522" y="720"/>
      <point x="523" y="723"/>
      <point x="526" y="723" type="curve" smooth="yes"/>
      <point x="630" y="723" type="line" smooth="yes"/>
      <point x="725" y="723"/>
      <point x="791" y="715"/>
      <point x="791" y="597" type="curve" smooth="yes"/>
      <point x="791" y="357" type="line" smooth="yes"/>
      <point x="791" y="333"/>
      <point x="795" y="325"/>
      <point x="805" y="325" type="curve" smooth="yes"/>
      <point x="840" y="325" type="line" smooth="yes"/>
      <point x="847" y="325"/>
      <point x="855" y="333"/>
      <point x="855" y="357" type="curve" smooth="yes"/>
      <point x="855" y="598" type="line" smooth="yes"/>
      <point x="855" y="712"/>
      <point x="799" y="728"/>
      <point x="750" y="745" type="curve" smooth="yes"/>
      <point x="747" y="746"/>
      <point x="745" y="747"/>
      <point x="745" y="748" type="curve" smooth="yes"/>
      <point x="745" y="750"/>
      <point x="747" y="751"/>
      <point x="749" y="751" type="curve" smooth="yes"/>
      <point x="819" y="765"/>
      <point x="859" y="823"/>
      <point x="859" y="933" type="curve" smooth="yes"/>
      <point x="859" y="1117"/>
      <point x="743" y="1123"/>
      <point x="613" y="1123" type="curve" smooth="yes"/>
      <point x="471" y="1123" type="line" smooth="yes"/>
      <point x="461" y="1123"/>
      <point x="456" y="1122"/>
      <point x="456" y="1098" type="curve" smooth="yes"/>
      <point x="456" y="348" type="line" smooth="yes"/>
      <point x="456" y="328"/>
      <point x="461" y="325"/>
      <point x="471" y="325" type="curve" smooth="yes"/>
    </contour>
    <contour>
      <point x="660" y="344" type="move" name="bottom"/>
    </contour>
    <contour>
      <point x="660" y="1108" type="move" name="top"/>
    </contour>
  </outline>
</glyph>
<glyph name="cedilla" format="1">
  <advance width="245"/>
  <unicode hex="00B8"/>
  <outline>
    <contour>
      <point x="137" y="-642" type="curve" smooth="yes"/>
      <point x="186" y="-642"/>
      <point x="212" y="-548"/>
      <point x="212" y="-370" type="curve" smooth="yes"/>
      <point x="212" y="-259"/>
      <point x="186" y="-156"/>
      <point x="149" y="-156" type="curve" smooth="yes"/>
      <point x="124" y="-156" type="line" smooth="yes"/>
      <point x="120" y="-156"/>
      <point x="119" y="-163"/>
      <point x="119" y="-173" type="curve" smooth="yes"/>
      <point x="119" y="-244" type="line" smooth="yes"/>
      <point x="119" y="-255"/>
      <point x="124" y="-254"/>
      <point x="124" y="-254" type="curve"/>
      <point x="137" y="-254" type="line" smooth="yes"/>
      <point x="155" y="-254"/>
      <point x="165" y="-331"/>
      <point x="165" y="-407" type="curve" smooth="yes"/>
      <point x="165" y="-517"/>
      <point x="156" y="-557"/>
      <point x="141" y="-557" type="curve" smooth="yes"/>
      <point x="123" y="-557"/>
      <point x="114" y="-514"/>
      <point x="114" y="-461" type="curve" smooth="yes"/>
      <point x="114" y="-441.809"/>
      <point x="124.139" y="-373"/>
      <point x="107" y="-373" type="curve" smooth="yes"/>
      <point x="85" y="-373" type="line" smooth="yes"/>
      <point x="68.3406" y="-373"/>
      <point x="68" y="-442.941"/>
      <point x="68" y="-464" type="curve" smooth="yes"/>
      <point x="68" y="-572"/>
      <point x="98" y="-642"/>
    </contour>
    <contour>
      <point x="140" y="0" type="move" name="_bottom"/>
    </contour>
  </outline>
</glyph>
<glyph name="guillemotright" format="1">
  <advance width="494"/>
  <unicode hex="00BB"/>
  <outline>
    <contour>
      <point x="84.0" y="1151.0" type="curve" smooth="yes"/>
      <point x="78.0" y="1151.0"/>
      <point x="75.0" y="1138.0"/>
      <point x="75.0" y="1113.0" type="curve" smooth="yes"/>
      <point x="75.0" y="1085.0" type="line" smooth="yes"/>
      <point x="75.0" y="1042.0"/>
      <point x="83.0" y="1034.0"/>
      <point x="99.0" y="1011.0" type="curve" smooth="yes"/>
      <point x="337.0" y="660.0" type="line" smooth="yes"/>
      <point x="340.0" y="657.0"/>
      <point x="341.0" y="652.0"/>
      <point x="341.0" y="648.0" type="curve" smooth="yes"/>
      <point x="341.0" y="643.0"/>
      <point x="340.0" y="638.0"/>
      <point x="338.0" y="635.0" type="curve" smooth="yes"/>
      <point x="98.0" y="242.0" type="line" smooth="yes"/>
      <point x="83.0" y="218.0"/>
      <point x="75.0" y="201.0"/>
      <point x="75.0" y="158.0" type="curve" smooth="yes"/>
      <point x="75.0" y="143.0" type="line" smooth="yes"/>
      <point x="75.0" y="115.0"/>
      <point x="78.0" y="101.0"/>
      <point x="85.0" y="101.0" type="curve" smooth="yes"/>
      <point x="89.0" y="101.0"/>
      <point x="94.0" y="104.0"/>
      <point x="99.0" y="113.0" type="curve" smooth="yes"/>
      <point x="374.0" y="560.0" type="line" smooth="yes"/>
      <point x="397.0" y="597.0"/>
      <point x="400.0" y="602.0"/>
      <point x="400.0" y="641.0" type="curve" smooth="yes"/>
      <point x="400.0" y="646.0" type="line" smooth="yes"/>
      <point x="400.0" y="686.0"/>
      <point x="399.0" y="697.0"/>
      <point x="375.0" y="732.0" type="curve" smooth="yes"/>
      <point x="98.0" y="1133.0" type="line" smooth="yes"/>
      <point x="92.0" y="1142.0"/>
      <point x="87.0" y="1151.0"/>
    </contour>
  </outline>
</glyph>
<glyph name="Oslash" format="1">
  <advance width="1428"/>
  <unicode hex="00D8"/>
  <outline>
    <component base="O"/>
    <component base="fraction" xScale="0.84" xOffset="927"/>
    <contour>
      <point x="397" y="1455" type="move" name="top"/>
    </contour>
  </outline>
</glyph>
<glyph name="oslash" format="1">
  <advance width="819"/>
  <unicode hex="00F8"/>
  <outline>
    <contour>
      <point x="97" y="-90" type="line" smooth="yes"/>
      <point x="101" y="-91"/>
      <point x="107" y="-84"/>
      <point x="111" y="-71" type="curve" smooth="yes"/>
      <point x="608" y="1047" type="line" smooth="yes"/>
      <point x="613" y="1056"/>
      <point x="614" y="1069"/>
      <point x="611" y="1069" type="curve" smooth="yes"/>
      <point x="583" y="1082" type="line" smooth="yes"/>
      <point x="580" y="1083"/>
      <point x="574" y="1075"/>
      <point x="568" y="1063" type="curve" smooth="yes"/>
      <point x="70" y="-53" type="line" smooth="yes"/>
      <point x="67" y="-63"/>
      <point x="65" y="-74"/>
      <point x="67" y="-75" type="curve" smooth="yes"/>
    </contour>
    <component base="o"/>
  </outline>
</glyph>
